<svg id="Layer_1" data-name="Layer 1" xmlns="http://www.w3.org/2000/svg" viewBox="0 0 393.44 440"><defs><style>.cls-1{opacity:0.13;}.cls-2{fill:#49231a;}.cls-3{fill:#fae0c5;}.cls-4{fill:#82574b;}.cls-5{fill:#694138;}.cls-6{fill:#c5a992;}.cls-7{fill:#be8676;}.cls-8{fill:#c4a891;}.cls-9{fill:#c6aa93;}.cls-10{fill:#c4a892;}.cls-11{fill:#fde29d;}.cls-12{fill:#fcc634;}.cls-13{fill:#f8f7f7;}.cls-14{fill:#f3bd33;}.cls-15{fill:#fbfbfb;}.cls-16{fill:#fac434;}.cls-17{fill:#9e9394;}.cls-18{fill:#5b4d4b;}.cls-19{fill:#d3cdcd;}.cls-20,.cls-21{fill:none;stroke:#49231a;stroke-linecap:round;stroke-miterlimit:10;}.cls-20{stroke-width:6.34px;}.cls-21{stroke-width:5.81px;}</style></defs><title>background</title><g class="cls-1"><path class="cls-2" d="M370.93,240.84a115.4,115.4,0,0,1-152.1,3c-40.83-34.22-52.38-94-27.17-141.25,1.42-2.66,1.35-4.12-.93-6.17-6.61-6-10.9-13.49-13.55-22-1.36-4.37,0-6,4.6-5.23A114.58,114.58,0,0,0,196,70.58a51.63,51.63,0,0,0,34-10.29c16-11.81,34.56-17.83,54.4-19.49,6.56-.55,10.86-4.2,14.43-9.23a112.62,112.62,0,0,0,10.1-16.93c2-4.2,4-4.38,6.88-.64,6.2,8.17,10.14,17.26,10.65,27.6.12,2.43.78,3.56,3.26,4.36a114.06,114.06,0,0,1,79.21,116.49C406.83,193.58,393.93,219.73,370.93,240.84Z"/><path class="cls-3" d="M215.43,113.14c7.24-15.71,25.95-24.34,44.29-20.43a57.79,57.79,0,0,1,12.33,4.17c4.66,2.16,5.16,1.9,7-3.15,4.34-12.16,11.72-21.54,24.47-25.54,13.29-4.17,25.62-.8,37.11,6,19.18,11.36,31.33,28.57,39.65,48.83.76,1.85.64,2.7-1.46,3.46-3.14,1.14-12.66,8.55-20.27,26.9-6,14.58-9.37,26.65-13.72,36.76-5,11.73-11.88,19.29-9.88,19,11.31-1.7,18.42-9.6,19.13-8.82,2.52,2.78,1.07,12.92-2.95,25.57A61.57,61.57,0,0,1,338,249c-5.58,6.09-11.16,9.39-22,13.15-6.55,2.26-38.57,9.28-47.5-8.24-4.14-8.14-13.37-49.27-33.43-68.18-12-14.79-11.19-18.27-12.51-20.05-5.34-7.15-.74-6.63-3.51-15.09a103,103,0,0,1-4.73-29.61A26,26,0,0,1,215.43,113.14Z"/><path class="cls-4" d="M313.3,20.75c4.78,7.47,7.76,15.49,7.17,24.52-.09,1.41.73,2.5.79,3.81.36,4.84,1.8,6.71,6.54,8.06a124.42,124.42,0,0,1,40.37,20.24,57,57,0,0,1,8.27,7.08c.5.22.49-.69.29-.2-.09.21-.26.26-.38.07-1.54-2.47-5.31-3.11-5.49-6.7,4.95,3.18,7.79,8.15,10.88,12.9l1.3,1.91c.33,4.92,5.78,22.14,1.85,25.52-1.79-6.91-15.13-27.71-22.59-34.14-10.5-10.27-22.11-18.66-36.77-22C311.67,58.59,299,61.21,287.9,70A41.39,41.39,0,0,0,275,88.08c-1.06,2.82-2.24,2.79-4.62,1.82-13.2-5.35-26.42-5.79-39.5.44a74.75,74.75,0,0,0-6.73,4.07c-2.61,1.33-4.51,3.54-6.53,5.54s-3.29,1.51-4.54-.66c-.59-1-1.15-2.06-1.72-3.09-2.77-4.91-6.35-8.87-11.77-11-2.22-.89-4.87-1.38-6.21-3.82.3-2.32,2.08-1.6,3.26-1.32,13.2,3.15,24.87-.67,35.42-8.29a109.2,109.2,0,0,1,52.51-20.21c15.9-1.81,24.19-10,27.25-25.94C312.1,23.9,312.18,22.16,313.3,20.75Z"/><path class="cls-5" d="M193.36,80.63c1.5,1.9,3.83,2.29,5.88,3.07,6.68,2.53,10.94,7.38,14,13.64,2,4.09,2,4,5.59.92,1.65-1.41,2.8-3.58,5.29-3.85-13.16,10-19.77,23.65-22.27,39.56-2.91,18.45,0,36.21,7.34,53.24,1.77,4.15,2.26,7.29-.09,11.62-3.77,6.94-5.28,13.8-2.29,23.7-3.23-3.21-5-6.68-6.85-9.92-10.72-18.36-16.29-38-15.45-59.5.7-18,5-34.83,13.93-50.47,2.59-4.51,2.42-5.74-1.85-8.78-5.94-4.23-9.23-10.26-12.05-16.71-.73-1.68-.35-1.89,1.19-1.4C188,77.86,191.7,77.62,193.36,80.63Z"/><path class="cls-6" d="M215.43,113.14c-.31,11.58.46,23,3.72,34.24,2.77,9.54,4.78,19.81,10.25,30.55,8.47,10.88,2.43,3.95-2.6,4.6-3.37.43-6.19,2.78-9,4.7-1,.68-1.72,1.18-2.35-.37-10-24.32-13-48.7-.56-73.19C215,113.45,215.24,113.31,215.43,113.14Z"/><path class="cls-7" d="M193.36,80.63c-2.45-1.77-6.05-1.76-7.64-4.88a88.68,88.68,0,0,0,27.16-.57c7.43-1.24,13.32-5.4,19.28-9.54,15-10.43,31.6-17,49.8-18.53,10-.85,17.09-5.23,22.44-13.34,2.32-3.52,4.69-7,6.78-10.65.49-.86.45-2.48,2.12-2.37a38.31,38.31,0,0,1-12.06,26.19c-3.88,3.73-8.56,4.83-13.64,5.37-14.35,1.52-28.41,4.29-41.1,11.6-6.47,3.73-12.61,8-19,11.86-10.17,6.12-21,8.14-32.59,4.78A4.78,4.78,0,0,0,193.36,80.63Z"/><path class="cls-5" d="M383,92.44a32.87,32.87,0,0,0,.8,23.81c1.88,4.07,2.36,7.93,3.05,12.34a2.19,2.19,0,0,1-.21,1.75,2.34,2.34,0,0,1-1.35.64c-6.66,1.58-11.44,5.93-15.08,11.73s-6.67,13.39-9.17,19.77c-4.45,11.36-5.61,23.67-14.43,36a36.33,36.33,0,0,0,11.59-7.68c4.13,7.67,6.55,25-4.4,45.43-1.16,2.17-4,6.62-5.06,8.84a2.2,2.2,0,0,0-.29,1.83,1.85,1.85,0,0,0,1.13.87c3.16,1.1,16.16-10.74,18.51-13.11,15.69-15.77,22.35-24.81,27.3-39.11,4.33-12.51,7.62-29.65,8-41.52.13-4.66-2.46-24.79-5.91-33.21C394,109.77,390.16,101.42,383,92.44Z"/><path class="cls-7" d="M370.86,77.63l6.35,7c-8.15-5.35-15.83-11.2-24.32-15.88A113.16,113.16,0,0,0,326.72,58c-4.31-1.11-6.81-4.15-6.53-7.67.06-.67.11-1.35,1.07-1.22,1.51,1.47,3.61,1.48,5.45,2.06C343.53,56.48,358.41,65,370.86,77.63Z"/><path class="cls-2" d="M222.92,134.2c-2-18.14,9.44-32.6,26.18-33.13,20.31-.63,33.76,19.43,25.77,38.47-.45,1.09-1,2.16-1.45,3.24-8.66,16.25-29.14,16.72-39.89,8.73C227.64,147.13,224,141.5,222.92,134.2Z"/><path class="cls-2" d="M291.59,114.51c-4.9-10.34-4.92-20.42,2.11-29.83a26.79,26.79,0,0,1,31-9.33,27.55,27.55,0,0,1,17.81,26.8c0,.78-.07,1.57-.11,2.36-1.29,10.62-6.9,18.14-16.7,22.19s-19.21,2.58-27.55-3.9C295.42,120.66,293.45,117.54,291.59,114.51Z"/><path class="cls-2" d="M281.3,142.08a18.72,18.72,0,0,1-1.06-12.18c2-7.46,8.1-10,16.06-6.86l.78.48a11.1,11.1,0,0,1,2.74,2.28,17.94,17.94,0,0,1,3.38,5.73c.61,1.71,1,3.35-.55,4.7-1.78,1.55.72,3.05-.06,4.55-.4,4.56-2.28,8-7,9.32s-8.47-.08-11.49-3.83A21.47,21.47,0,0,1,281.3,142.08Z"/><path class="cls-6" d="M222.92,134.2c2.74,8.43,7.37,15.32,15.81,19a27.18,27.18,0,0,0,32.84-8.4c.56-.72,1.23-1.35,1.85-2-3.77,9.07-10.85,13.88-20.29,15.31a26.58,26.58,0,0,1-30.34-21.24C222.6,135.94,222.29,135.06,222.92,134.2Z"/><path class="cls-8" d="M291.59,114.51c2.6,3,4.87,6.24,8.18,8.52a27.15,27.15,0,0,0,41.46-14.79c.38-1.25.8-2.49,1.2-3.73.72,7-2.64,12.41-7,17.23-9.36,10.33-26.3,11.08-35.81,2.89C299.33,124.41,292.15,117.91,291.59,114.51Z"/><path class="cls-9" d="M324.89,165.63c-4.12,3.65-14.2,2.07-16.4-2.19-.71-1.38-.13-2.56,1.51-2.16,6.49,1.59,11.88-.39,16.65-4.72.5-.46,1.14-.76,1.75-.26a1.52,1.52,0,0,1,.29,1.81C327.73,161,326.66,163.8,324.89,165.63Z"/><path class="cls-9" d="M288.77,175c-3.51,4.73-12.07,1.33-15.59-2a1.58,1.58,0,0,1-.32-1.39c.31-.9,1.17-1,2-.8,6.08,1.56,11.15-.21,15.46-4.6.65-.66,1.54-1.22,2.47-.57s.39,1.64.21,2.52A11.61,11.61,0,0,1,288.77,175Z"/><path class="cls-9" d="M310.48,183c-4.23,4-13.6,2.53-16.3-2a2,2,0,0,1-.35-1.39c.24-.78,1.08-.72,1.68-.58,6.47,1.51,11.83-.64,16.59-4.91.47-.43,1-.95,1.71-.44s.41,1.16.26,1.81A22.5,22.5,0,0,1,310.48,183Z"/><path class="cls-9" d="M331.81,190.72c-4.23,4-13.6,2.54-16.3-2a2.07,2.07,0,0,1-.35-1.4c.25-.77,1.08-.72,1.68-.58,6.47,1.52,11.83-.63,16.59-4.9.48-.43,1.05-.95,1.71-.44s.41,1.16.26,1.8A22.5,22.5,0,0,1,331.81,190.72Z"/><path class="cls-9" d="M301.31,202.74c-4.23,4-13.6,2.54-16.3-2a2.06,2.06,0,0,1-.35-1.4c.25-.77,1.08-.72,1.68-.58,6.47,1.52,11.83-.63,16.59-4.9.48-.43,1.05-1,1.71-.44s.41,1.16.26,1.8A22.5,22.5,0,0,1,301.31,202.74Z"/><path class="cls-9" d="M321.93,209.71c-4.23,4-13.6,2.54-16.3-2a2,2,0,0,1-.35-1.39c.25-.78,1.08-.72,1.68-.58,6.47,1.51,11.83-.64,16.59-4.91.48-.43,1.05-.94,1.71-.44s.41,1.16.26,1.81A22.5,22.5,0,0,1,321.93,209.71Z"/><path class="cls-9" d="M335.8,224.24c-3.59,3.39-11.55,2.16-13.84-1.72a1.76,1.76,0,0,1-.3-1.18c.21-.66.92-.61,1.43-.49,5.49,1.28,10.05-.54,14.08-4.17.41-.36.89-.8,1.46-.37s.34,1,.22,1.53A19.15,19.15,0,0,1,335.8,224.24Z"/><path class="cls-9" d="M313.83,229.94c-3.59,3.38-11.55,2.15-13.84-1.73a1.76,1.76,0,0,1-.3-1.18c.21-.66.92-.61,1.43-.49,5.49,1.29,10.05-.54,14.08-4.17.41-.36.9-.8,1.46-.37s.34,1,.22,1.53A19.1,19.1,0,0,1,313.83,229.94Z"/><path class="cls-9" d="M327,239.38c-3.28,3.07-10.52,2-12.6-1.57a1.52,1.52,0,0,1-.27-1.08c.19-.6.83-.55,1.29-.45,5,1.18,9.15-.49,12.82-3.79.37-.33.82-.73,1.33-.34s.31.9.2,1.4A17.55,17.55,0,0,1,327,239.38Z"/><path class="cls-10" d="M281.3,142.08a23,23,0,0,1,1.79,2c5.19,7.59,16.36,8,19.5-3.35.47,5.14-1.46,8.84-5.54,10.64-4.27,1.88-8.36,1-11.81-2.7C283.44,146.8,281.53,144.94,281.3,142.08Z"/><path class="cls-11" d="M267.5,126.7c-5.93-11.26-13.62-14.49-25.85-10.85-2-1.68-2.8-3.67-1.56-6.17,12.63-7.2,28.64.68,30.85,15.18C270.39,126.6,269.16,127.05,267.5,126.7Z"/><path class="cls-12" d="M240.09,109.68c0,2.19,1,4.13,1.56,6.17a22.9,22.9,0,0,0-8.75,8.31c-1.93,3.44-2.29,7.32-2.86,11.15C227,123.48,230.69,114.48,240.09,109.68Z"/><path class="cls-13" d="M255.63,122c1.67,2.09,1.68,4.24-.15,6a4.22,4.22,0,1,1-5.83-6.11C251.51,120.12,253.67,120.27,255.63,122Z"/><path class="cls-14" d="M267.5,126.7l3.44-1.84c1.29,5.85-.36,11-3.79,15.79A24.37,24.37,0,0,0,267.5,126.7Z"/><path class="cls-11" d="M305.75,82c13.07-6.71,28,1,30.41,15.67-.88,2.21-2.51,2.62-4.6,1.91C325.35,88.77,319,85.82,307.33,88.3,304.74,86.73,303.71,84.77,305.75,82Z"/><path class="cls-12" d="M305.75,82c-.67,2.39.34,4.36,1.58,6.27-6.3,2.57-10.34,7.26-12.52,14.45C293.08,94.56,297.72,86.32,305.75,82Z"/><path class="cls-15" d="M320.48,94.3c1.77,2.12,1.79,4.17-.15,6a3.77,3.77,0,0,1-5.87-.26,3.66,3.66,0,0,1,.2-5.57C316.6,92.55,318.55,92.64,320.48,94.3Z"/><path class="cls-16" d="M331.56,99.61c1.59-.49,3.28-.76,4.6-1.91.83,7.09-.66,11.91-5.6,17.33A22.76,22.76,0,0,0,331.56,99.61Z"/><path class="cls-17" d="M295.23,132.49a34.25,34.25,0,0,1-4.58.55c-1.61,0-4,.27-4.38-1.48-.43-2,1.27-3.46,3.38-4C292.07,128.57,294.78,129.25,295.23,132.49Z"/><path class="cls-18" d="M286.92,138.37c2.57.76,4.6,1.29,6.58,2,.76.26,2.12.26,1.75,1.62a2.11,2.11,0,0,1-2.16,1.45C289.93,143.4,287.9,141.92,286.92,138.37Z"/><path class="cls-6" d="M297.67,237.29c-2.34-11.85-8.53-21.57-16.18-30.91-7.34-8.95-15.78-17.32-26.16-22.42-3-1.47-6.08-2.65-9.17-3.82l-19.28-7.33a1.15,1.15,0,0,0-.65-.11c-.35.09-.51.48-.59.83-.72,3.2,1.53,6.24,3.66,8.73,3.17,3.7,6.44,7.39,10.51,10.06,3,2,6.39,3.34,9.54,5.12,6.29,3.56,11.52,8.7,16.4,14,5.9,6.44,11.64,13.84,12.34,22.54.63,7.7,4.1,16,.69,22.88-1.65,3.37,5.07,10.06,10.86,7.7C295.75,262.1,300.27,250.42,297.67,237.29Z"/><path class="cls-19" d="M295.23,132.49a25.41,25.41,0,0,0-5.58-4.92c2.8-.44,4.75,1,6.42,3C297,131.58,296.93,132.45,295.23,132.49Z"/><path class="cls-5" d="M230,244.55c-11.59-8-24.71-20.2-28.44-31.28-.91-2.7-1-8.19-.55-11.17a27.18,27.18,0,0,1,2.92-8c1.84-3.63,3.51-10.9,20-11.21,11.23-.22,27.38,6.53,37.33,17.48,23.47,25.81,24.1,43.12,22.61,53.11-.55,3.71-2.65,8.94-7.23,9.31-3.25.26-12.38-1.69-15.23-2.55C249.61,256.71,239.41,251.08,230,244.55Z"/><path class="cls-20" d="M211.2,183.05s35.27-2.07,60.33,30.31c24.6,31.78,8.37,51.52,8.37,51.52"/><path class="cls-4" d="M216.68,203.22c13.62,2.73,25,12.1,34.13,22.56,4.07,4.66,7.88,9.71,9.89,15.55s2,12.66-1.29,17.9c-1.71,2.73-16.28-2.41-18.69-4.44-14-11.82-26.4-18.4-38.83-31.94C191.42,211.44,203.61,200.6,216.68,203.22Z"/><path class="cls-4" d="M266.69,262.13a23,23,0,0,0,2.68-10.41,41.14,41.14,0,0,0-1.32-11.45,56.85,56.85,0,0,0-10.76-21,67.76,67.76,0,0,0-8.35-8.68,76.84,76.84,0,0,0-9.81-7.14,90.37,90.37,0,0,0-22.45-9.65,90.73,90.73,0,0,1,23.23,8.27,78.82,78.82,0,0,1,10.53,6.67,70,70,0,0,1,9.26,8.47,60.62,60.62,0,0,1,12.91,21.74,46.09,46.09,0,0,1,2.31,12.81,28.93,28.93,0,0,1-2.64,13.39Z"/><path class="cls-7" d="M393.15,164.75c-1.69,14.65-8.74,26.52-19.12,24.53-7.17-1.37-7.68-14.37-4.82-28.85s8.28-22.67,15.54-23.77C392.29,135.52,394.61,152.11,393.15,164.75Z"/><path class="cls-21" d="M192.93,205.38s23.69,52.75,81.71,60"/><path class="cls-4" d="M387.93,165.25c-1.9,14.61-8.89,25.27-14.73,24.11s-8.26-13.83-5.39-28.31,9.71-23.29,15.76-24.12C387.66,136.37,389.58,152.66,387.93,165.25Z"/><path class="cls-4" d="M379.72,87.14c1.27,1.64,2.32,3.15,3.39,4.77.54.79,1.06,1.59,1.56,2.41s1,1.61,1.49,2.44c1.95,3.26,3.75,6.62,5.38,10a126.68,126.68,0,0,1,8,21.28,108.31,108.31,0,0,1,3.73,22.4A99,99,0,0,1,402,173.1a104,104,0,0,1-2.53,11l-1.78,5.37a26.85,26.85,0,0,1-1,2.63l-1.08,2.61-1.08,2.6c-.4.85-.84,1.69-1.25,2.53-.86,1.67-1.66,3.36-2.56,5-2,3.19-3.73,6.51-6,9.51a153.79,153.79,0,0,1-30.68,32.32,152.83,152.83,0,0,0,29.36-33.2c2.11-3,3.72-6.36,5.54-9.56.82-1.65,1.55-3.34,2.33-5,.38-.83.78-1.66,1.14-2.51l1-2.58,1-2.58a26.49,26.49,0,0,0,.88-2.6l1.54-5.28a98.86,98.86,0,0,0,2.08-10.77,96,96,0,0,0,.45-21.83A103.79,103.79,0,0,0,395,129.41a121.67,121.67,0,0,0-8.4-20.11c-1.69-3.23-3.51-6.37-5.49-9.41-.48-.77-1-1.52-1.49-2.27s-1-1.49-1.55-2.22c-1-1.45-2.16-3-3.22-4.21Z"/><path class="cls-7" d="M371.33,214.59a16,16,0,0,0,5.67-3.92,20.3,20.3,0,0,0,3.74-5.61l.64-1.56c.2-.52.33-1.07.5-1.6a27.62,27.62,0,0,0,.73-3.27c.18-1.1.23-2.23.36-3.32l0-3.36v-.16a2.13,2.13,0,1,1,4.25,0,1.66,1.66,0,0,1,0,.32l-.59,3.65c-.32,1.2-.57,2.4-.95,3.58a30.75,30.75,0,0,1-1.34,3.45c-.27.55-.5,1.12-.81,1.66l-.94,1.58a21.76,21.76,0,0,1-4.9,5.39A16.44,16.44,0,0,1,371.33,214.59Z"/><path class="cls-7" d="M371.29,183.91a31.61,31.61,0,0,0,5-12.88,32.1,32.1,0,0,0,.33-3.36,30.58,30.58,0,0,0-.14-3.33,26.92,26.92,0,0,0-1.44-6.34l-.05-.15a2.66,2.66,0,1,1,5.05-1.65,2.47,2.47,0,0,1,.11.47,31.26,31.26,0,0,1-.26,11.42,32.92,32.92,0,0,1-1,3.59,33.68,33.68,0,0,1-3.16,6.6A32.11,32.11,0,0,1,371.29,183.91Z"/><path class="cls-7" d="M250.1,230.54a60,60,0,0,0-6.69-6.18,62.1,62.1,0,0,0-7.43-5.07,48.49,48.49,0,0,0-8-3.75,40.5,40.5,0,0,0-8.3-2l-.15,0a3.19,3.19,0,1,1,1-6.3,3,3,0,0,1,.52.12,46.11,46.11,0,0,1,9,3.91,52.57,52.57,0,0,1,7.8,5.46,66.52,66.52,0,0,1,6.69,6.52A60.72,60.72,0,0,1,250.1,230.54Z"/><path class="cls-7" d="M248.9,240.21a60.13,60.13,0,0,0-6.61-6.27,62.81,62.81,0,0,0-7.36-5.2,49.2,49.2,0,0,0-8-3.89,41.09,41.09,0,0,0-8.35-2.17l-.14,0a2.65,2.65,0,0,1,.89-5.23l.36.09a45.35,45.35,0,0,1,8.91,3.75,52.15,52.15,0,0,1,7.81,5.32,64.93,64.93,0,0,1,6.75,6.4A60.77,60.77,0,0,1,248.9,240.21Z"/><path class="cls-7" d="M368,206.2a9.55,9.55,0,0,0,3.42-2.26,11.83,11.83,0,0,0,2.29-3.31,15.41,15.41,0,0,0,1.13-3.82c.11-.65.15-1.32.22-2l0-2v-.1a1.27,1.27,0,0,1,2.53,0,1.15,1.15,0,0,1,0,.19l-.36,2.18c-.19.72-.34,1.44-.57,2.14a16.86,16.86,0,0,1-1.88,4,12.63,12.63,0,0,1-3,3.17A9.66,9.66,0,0,1,368,206.2Z"/><path class="cls-7" d="M271.37,81.9a26.09,26.09,0,0,1,4.48-11.76,32.17,32.17,0,0,1,9.06-9.06,25.18,25.18,0,0,1,2.78-1.66A21,21,0,0,1,290.6,58c1-.38,2-.78,3-1.13s2.07-.52,3.11-.76a16.7,16.7,0,0,1,3.14-.5c1.06-.09,2.11-.16,3.16-.21a9.17,9.17,0,0,1,1.57,0c.53,0,1.05.08,1.57.14,1,.11,2.08.23,3.11.42-2,.81-3.94,1.3-5.82,2-.94.36-1.87.71-2.79,1-.46.18-.94.29-1.38.49l-1.34.6-2.66,1.14c-.84.46-1.7.88-2.54,1.31A23.29,23.29,0,0,0,290.26,64a20.58,20.58,0,0,0-2.4,1.51,54.16,54.16,0,0,0-8.79,7.27A74.51,74.51,0,0,0,271.37,81.9Z"/><path class="cls-7" d="M218.36,92.58a26,26,0,0,1,8.69-9.09,32.25,32.25,0,0,1,11.87-4.83,24.66,24.66,0,0,1,3.2-.46,23.15,23.15,0,0,1,3.22-.16c1.08,0,2.15.06,3.22.13s2.11.33,3.16.51a17.22,17.22,0,0,1,3.09.76c1,.32,2,.67,3,1a10.21,10.21,0,0,1,1.44.64c.47.25.94.48,1.39.74.92.51,1.83,1,2.7,1.59-2.14,0-4.13-.33-6.13-.44-1,0-2-.08-3-.14-.49,0-1-.09-1.46-.08l-1.46,0h-2.89c-1,.1-1.91.15-2.86.22a22.31,22.31,0,0,0-2.83.34,23.67,23.67,0,0,0-2.8.45A53.57,53.57,0,0,0,229,87.14,73.9,73.9,0,0,0,218.36,92.58Z"/><path class="cls-6" d="M373.35,125.18s0,0,0,0l-.15,0a2.56,2.56,0,0,0-.32.12l-.71.3a15.46,15.46,0,0,0-1.46.83,13.19,13.19,0,0,0-1.43,1c-.47.37-1,.69-1.4,1.11l-1.35,1.23c-.45.4-.85.88-1.28,1.32s-.86.88-1.25,1.37L362.8,134a76.48,76.48,0,0,0-8.05,12.89c-.61,1.13-1.1,2.32-1.65,3.48s-1.11,2.32-1.58,3.52l-1.44,3.6c-.47,1.2-1,2.39-1.38,3.62-.82,2.45-1.74,4.87-2.49,7.35L344,175.88l1.59-7.63c.54-2.54,1.25-5.05,1.87-7.58.3-1.27.7-2.51,1.08-3.76l1.14-3.75c.38-1.25.87-2.47,1.3-3.71s.86-2.48,1.38-3.68a80.16,80.16,0,0,1,7.26-14.15l1.14-1.67c.37-.56.83-1.07,1.24-1.61s.83-1.09,1.3-1.59l1.41-1.52c.46-.52,1-1,1.53-1.45a18.44,18.44,0,0,1,1.65-1.37,19,19,0,0,1,1.83-1.25c.32-.2.68-.38,1-.56a5.28,5.28,0,0,1,.58-.26l.3-.13c.11,0,.3-.1.44-.15a2.64,2.64,0,1,1,1.3,5.12Z"/><path class="cls-6" d="M218,146.83c0,.08.11.29.18.48s.17.38.26.57a13.1,13.1,0,0,0,.61,1.17,26.48,26.48,0,0,0,1.44,2.29c.57.71,1.07,1.49,1.71,2.15l.93,1c.31.34.67.63,1,1a31,31,0,0,0,9.52,6l2.74.94a8.26,8.26,0,0,0,1.4.38l1.43.31a40.22,40.22,0,0,0,5.82.86,24.56,24.56,0,0,0,3,.09l3,0,6-.54-5.9,1.33-3,.38a23.89,23.89,0,0,1-3,.3,42.26,42.26,0,0,1-6.16-.08l-1.55-.14a9,9,0,0,1-1.55-.21l-3.08-.62a34.87,34.87,0,0,1-11.56-5.32c-.44-.33-.9-.62-1.31-1l-1.25-1.06a31.54,31.54,0,0,1-2.36-2.27,31.07,31.07,0,0,1-2.13-2.56,15.6,15.6,0,0,1-1-1.39c-.16-.24-.32-.47-.47-.74s-.3-.5-.48-.87L212,149a3.2,3.2,0,1,1,5.76-2.8A3.26,3.26,0,0,1,218,146.83Z"/></g></svg>