<svg id="Layer_1" data-name="Layer 1" xmlns="http://www.w3.org/2000/svg" viewBox="0 0 64 64"><defs><style>.cls-1{fill:#49231a;}.cls-2{fill:#fae0c5;}.cls-3{fill:#82574b;}.cls-4{fill:#694138;}.cls-5{fill:#c5a992;}.cls-6{fill:#be8676;}.cls-7{fill:#c4a891;}.cls-8{fill:#c6aa93;}.cls-9{fill:#c4a892;}.cls-10{fill:#fde29d;}.cls-11{fill:#fcc634;}.cls-12{fill:#f8f7f7;}.cls-13{fill:#f3bd33;}.cls-14{fill:#fbfbfb;}.cls-15{fill:#fac434;}.cls-16{fill:#9e9394;}.cls-17{fill:#5b4d4b;}.cls-18{fill:#d3cdcd;}.cls-19,.cls-20{fill:none;stroke:#49231a;stroke-linecap:round;stroke-miterlimit:10;}.cls-19{stroke-width:1.58px;}.cls-20{stroke-width:1.45px;}</style></defs><title>Owllogo</title><path class="cls-1" d="M32,64A28.63,28.63,0,0,1,22.07,8.44c.71-.25.94-.53.87-1.29A12,12,0,0,1,24.12.83c.48-1,1-1.1,1.73-.2a27,27,0,0,0,2.4,2.62,12.82,12.82,0,0,0,8,3.8,26.16,26.16,0,0,1,13.3,5.53,4.78,4.78,0,0,0,4.21.72,27.79,27.79,0,0,0,4.71-1.43c1.07-.44,1.48-.13,1.37,1a12.2,12.2,0,0,1-2.66,6.88A1,1,0,0,0,57,21.14a28.44,28.44,0,0,1-4.93,34.77A28.2,28.2,0,0,1,32,64Z"/><path class="cls-2" d="M24.7,14.36A9.84,9.84,0,0,1,36.29,18a14,14,0,0,1,1.58,2.83c.5,1.18.63,1.22,1.81.59,2.84-1.51,5.78-2,8.8-.61s4.86,4.15,5.84,7.34c1.63,5.31,1,10.52-.88,15.65-.17.47-.34.61-.85.4-.77-.32-3.77-.55-8.25,1.56-3.56,1.67-6.2,3.34-8.7,4.48-2.9,1.31-5.42,1.56-5,1.84,2.37,1.58,5,1.32,5,1.58,0,.94-2,2.57-4.83,4.22A15.32,15.32,0,0,1,24.52,60a11.71,11.71,0,0,1-6.27-1.27c-1.59-.68-8.67-4.76-7.38-9.49.6-2.19,5.8-11.33,5.27-18.18.27-4.74,1-5.25,1.06-5.8.21-2.21,1-1.34,1.88-3.37a25.67,25.67,0,0,1,4.1-6.25A6.3,6.3,0,0,1,24.7,14.36Z"/><path class="cls-3" d="M58.25,13.74a10,10,0,0,1-2.8,5.73c-.25.24-.28.58-.49.83a1.87,1.87,0,0,0-.15,2.58,31.13,31.13,0,0,1,4.06,10.51,15.23,15.23,0,0,1,.34,2.69c0,.13.2,0,.08,0s-.09,0-.08-.05c.13-.71-.46-1.46.11-2.15a9.92,9.92,0,0,1-.15,4.2c0,.19-.06.38-.09.57-.76,1-2.64,5.05-3.94,5C56,42.1,57,36,56.7,33.59a19.28,19.28,0,0,0-3.08-10.23,10.63,10.63,0,0,0-8.31-4.8,10.32,10.32,0,0,0-5.43,1.17c-.67.34-.88.14-1.16-.44a11.77,11.77,0,0,0-7.36-6.55,17.59,17.59,0,0,0-1.92-.37,6.63,6.63,0,0,0-2.13-.08c-.72,0-.86-.27-.73-.88.06-.29.13-.57.2-.86a5.85,5.85,0,0,0-.32-4A2.58,2.58,0,0,1,26,4.79c.44-.38.65.06.82.3A10.45,10.45,0,0,0,34.7,9.51a27.17,27.17,0,0,1,13.08,5.08c3.23,2.33,6.14,2.2,9.38-.22A2.49,2.49,0,0,1,58.25,13.74Z"/><path class="cls-4" d="M26.08,4.67a3,3,0,0,0,.57,1.55,6.31,6.31,0,0,1,.29,4.86c-.32,1.09-.29,1.07.88,1.11.54,0,1.11-.19,1.62.18A14.57,14.57,0,0,0,18.7,15.93,23.66,23.66,0,0,0,11.12,27a2.94,2.94,0,0,1-2,2.13,7,7,0,0,0-4.4,4,10.58,10.58,0,0,1,.4-3,26.75,26.75,0,0,1,7.13-13.56,26.89,26.89,0,0,1,11-7c1.24-.4,1.41-.66,1.13-1.93A9.45,9.45,0,0,1,25,2.55c.15-.44.26-.41.46-.06C25.55,3.25,26.28,3.83,26.08,4.67Z"/><path class="cls-5" d="M24.7,14.36a27.85,27.85,0,0,0-5.06,6.94,39.61,39.61,0,0,0-3.23,7.36c-.27,3.42-.22,1.13-1.25.41a5.52,5.52,0,0,0-2.46-.65c-.3,0-.51-.07-.37-.46,2.23-6.17,5.76-11.17,12.17-13.59A.66.66,0,0,1,24.7,14.36Z"/><path class="cls-6" d="M26.08,4.67c-.15-.74-.82-1.34-.59-2.18a22.37,22.37,0,0,0,5.1,4.45,12.17,12.17,0,0,0,5.16,1.47A25.28,25.28,0,0,1,48,13.34a7,7,0,0,0,6.38,1.31c1-.26,2-.5,3-.83.23-.07.49-.38.79-.08a9.56,9.56,0,0,1-6.62,2.81,5.42,5.42,0,0,1-3.42-1.3,25.36,25.36,0,0,0-9.53-4.75c-1.81-.4-3.67-.64-5.49-1a9.87,9.87,0,0,1-6.81-4.59A1.44,1.44,0,0,0,26.08,4.67Z"/><path class="cls-4" d="M59.08,38.66a8.14,8.14,0,0,0-3.84,4.53A11.26,11.26,0,0,1,53.73,46c-.08.12-.18.26-.33.28a.59.59,0,0,1-.36-.11,6.11,6.11,0,0,0-4.75-.36,30.45,30.45,0,0,0-5,2.11c-2.73,1.35-5,3.42-8.7,4.21a9,9,0,0,0,3.43.53c-.53,2.11-3,5.7-8.44,7.64-.58.21-1.84.55-2.41.78-.15.06-.32.14-.37.29a.49.49,0,0,0,.07.35c.4.73,4.78.73,5.61.69,5.54-.28,8.28-.83,11.6-2.64a39.35,39.35,0,0,0,8.43-6.32A33.08,33.08,0,0,0,57,46.31,20.21,20.21,0,0,0,59.08,38.66Z"/><path class="cls-6" d="M59.32,33.89v2.35c-.6-2.35-1-4.72-1.82-7a28.17,28.17,0,0,0-3-6.37,1.9,1.9,0,0,1,.08-2.51c.12-.12.25-.23.4-.05,0,.53.42.88.66,1.29A26.34,26.34,0,0,1,59.32,33.89Z"/><path class="cls-1" d="M22.55,19.51c2.67-3.68,7.2-4.43,10.38-1.72a6.77,6.77,0,0,1-1.7,11.41c-.26.13-.54.24-.81.36-4.32,1.54-8.18-1.8-8.82-5.08A6.29,6.29,0,0,1,22.55,19.51Z"/><path class="cls-1" d="M38.51,27.39a6.78,6.78,0,0,1,5.4-5.15,6.67,6.67,0,0,1,7.28,3.49A6.84,6.84,0,0,1,50,33.66c-.13.14-.27.28-.41.41a6.47,6.47,0,0,1-6.8,1.3A6.55,6.55,0,0,1,38.34,30,7.61,7.61,0,0,1,38.51,27.39Z"/><path class="cls-1" d="M32,30.75a4.66,4.66,0,0,1,1.85-2.42c1.62-1,3.17-.49,4.11,1.43L38,30a3,3,0,0,1,.12.88,4.4,4.4,0,0,1-.34,1.63c-.17.42-.38.78-.89.77s-.38.69-.77.83a2.34,2.34,0,0,1-2.86.55A2.55,2.55,0,0,1,31.81,32,5.24,5.24,0,0,1,32,30.75Z"/><path class="cls-5" d="M22.55,19.51a7.17,7.17,0,0,0-.27,6.15,6.76,6.76,0,0,0,7.46,4c.22,0,.45,0,.68-.06A6.09,6.09,0,0,1,24.11,29a6.64,6.64,0,0,1-2-9C22.2,19.77,22.29,19.56,22.55,19.51Z"/><path class="cls-7" d="M38.51,27.39a12,12,0,0,0,.08,2.94,6.77,6.77,0,0,0,10.13,4.23l.85-.49a5.45,5.45,0,0,1-4.19,2,6.69,6.69,0,0,1-7.09-5.48C38.28,30.52,38.05,28.11,38.51,27.39Z"/><path class="cls-8" d="M36.08,42.41c-1.37,0-3-2-2.66-3.16.11-.37.41-.49.64-.14A4.33,4.33,0,0,0,37.93,41c.17,0,.34,0,.36.25s-.1.29-.25.38A5,5,0,0,1,36.08,42.41Z"/><path class="cls-8" d="M27.84,38.08c-1.44.29-2.45-1.78-2.53-3a.39.39,0,0,1,.17-.31A.37.37,0,0,1,26,35a3.77,3.77,0,0,0,3.63,1.75c.23,0,.48,0,.55.31s-.21.37-.39.5A2.87,2.87,0,0,1,27.84,38.08Z"/><path class="cls-8" d="M30.51,43.19a3,3,0,0,1-2.66-3.11.53.53,0,0,1,.17-.32c.17-.1.32.05.4.18a4.42,4.42,0,0,0,3.89,1.88c.16,0,.35,0,.39.2s-.12.29-.26.38A5.84,5.84,0,0,1,30.51,43.19Z"/><path class="cls-8" d="M33.15,48.2a3,3,0,0,1-2.67-3.11.52.52,0,0,1,.17-.32c.18-.1.32,0,.41.18a4.41,4.41,0,0,0,3.88,1.87c.16,0,.35,0,.39.21s-.12.28-.25.38A5.84,5.84,0,0,1,33.15,48.2Z"/><path class="cls-8" d="M25.51,45.3a3,3,0,0,1-2.67-3.11.52.52,0,0,1,.17-.32c.17-.1.32.05.41.18a4.42,4.42,0,0,0,3.88,1.88c.16,0,.35,0,.39.2s-.12.28-.26.38A5.71,5.71,0,0,1,25.51,45.3Z"/><path class="cls-8" d="M28.14,50a3,3,0,0,1-2.66-3.11.52.52,0,0,1,.16-.31c.18-.11.32,0,.41.17a4.39,4.39,0,0,0,3.88,1.88c.16,0,.36,0,.39.21s-.12.28-.25.37A5.63,5.63,0,0,1,28.14,50Z"/><path class="cls-8" d="M28.26,55.05A2.53,2.53,0,0,1,26,52.41a.44.44,0,0,1,.14-.27c.15-.09.27,0,.35.15a3.72,3.72,0,0,0,3.29,1.59c.14,0,.3,0,.33.18s-.1.24-.21.32A4.86,4.86,0,0,1,28.26,55.05Z"/><path class="cls-8" d="M23.26,52.41A2.54,2.54,0,0,1,21,49.77a.44.44,0,0,1,.14-.26c.15-.09.28,0,.35.14a3.74,3.74,0,0,0,3.3,1.6c.13,0,.3,0,.33.17s-.1.24-.22.32A4.62,4.62,0,0,1,23.26,52.41Z"/><path class="cls-8" d="M24.1,56.37A2.33,2.33,0,0,1,22,54a.43.43,0,0,1,.13-.24c.14-.08.25,0,.32.13a3.37,3.37,0,0,0,3,1.45c.12,0,.27,0,.3.16s-.09.22-.2.3A4.52,4.52,0,0,1,24.1,56.37Z"/><path class="cls-9" d="M32,30.75a5.12,5.12,0,0,1,0,.68c-.32,2.27,1.68,4.22,4.16,2.65a2.39,2.39,0,0,1-2.81,1,2.44,2.44,0,0,1-1.73-2.47A2.79,2.79,0,0,1,32,30.75Z"/><path class="cls-10" d="M32,25.6c.8-3.07-.08-5-2.94-6.34a1.17,1.17,0,0,1,.74-1.4,5.21,5.21,0,0,1,3.15,8A.66.66,0,0,1,32,25.6Z"/><path class="cls-11" d="M29.82,17.86a5.87,5.87,0,0,0-.74,1.4,5.7,5.7,0,0,0-3,.07,8.1,8.1,0,0,0-2.4,1.57C25.1,18.21,27.29,17.17,29.82,17.86Z"/><path class="cls-12" d="M30.63,22.73a1,1,0,0,1-1,1.09,1.06,1.06,0,1,1-.06-2.11A1,1,0,0,1,30.63,22.73Z"/><path class="cls-13" d="M32,25.6l.95.24a4.77,4.77,0,0,1-3.35,2.28A6,6,0,0,0,32,25.6Z"/><path class="cls-10" d="M46.57,23.78a5.19,5.19,0,0,1,3,8,.8.8,0,0,1-1.17-.42c.67-3,0-4.65-2.58-6.15C45.6,24.47,45.74,23.94,46.57,23.78Z"/><path class="cls-11" d="M46.57,23.78a1.86,1.86,0,0,0-.76,1.42,5.2,5.2,0,0,0-4.73.56A4.83,4.83,0,0,1,46.57,23.78Z"/><path class="cls-14" d="M47.23,28.51c0,.69-.37,1.07-1,1.08a1,1,0,0,1-1-1,.91.91,0,0,1,1-1A1,1,0,0,1,47.23,28.51Z"/><path class="cls-15" d="M48.39,31.35a3,3,0,0,0,1.17.42A4.87,4.87,0,0,1,45.62,34,5.71,5.71,0,0,0,48.39,31.35Z"/><path class="cls-16" d="M36.17,31.32a8,8,0,0,1-.94-.67c-.29-.27-.78-.62-.56-1s.82-.42,1.3-.17C36.25,30.07,36.63,30.65,36.17,31.32Z"/><path class="cls-17" d="M33.65,31c.35.57.63,1,.88,1.47.1.17.35.4,0,.59a.52.52,0,0,1-.64-.1A1.47,1.47,0,0,1,33.65,31Z"/><path class="cls-5" d="M19,51.06a17.42,17.42,0,0,0,2.2-8.42,20.28,20.28,0,0,0-1.06-8.52c-.31-.77-.68-1.51-1.05-2.24L16.8,27.29a.32.32,0,0,0-.1-.13.26.26,0,0,0-.25.06,2.7,2.7,0,0,0-.79,2.22,12.93,12.93,0,0,0,.25,3.62c.23.87.62,1.69.9,2.54a17.15,17.15,0,0,1,.68,5.34c0,2.18-.18,4.51-1.51,6.23-1.18,1.52-1.92,3.63-3.71,4.34-.87.34-.75,2.7.71,3.24S17.32,53.92,19,51.06Z"/><path class="cls-18" d="M36.17,31.32a6.78,6.78,0,0,0-.2-1.85,1.72,1.72,0,0,1,.68,1.63C36.64,31.44,36.49,31.6,36.17,31.32Z"/><path class="cls-4" d="M5.34,41c-.79-3.42-1.17-7.87,0-10.54a7.53,7.53,0,0,1,1.77-2.15,6.86,6.86,0,0,1,1.88-1c.95-.36,2.47-1.42,5.57,1.29a13.69,13.69,0,0,1,4,9.49c0,8.69-2.78,12-4.73,13.58-.73.6-2,1.21-2.9.51a17.06,17.06,0,0,1-2.38-3A27.54,27.54,0,0,1,5.34,41Z"/><path class="cls-19" d="M12.19,26.55a19,19,0,0,1,6,15.71c-.79,10-7.09,10.91-7.09,10.91"/><path class="cls-3" d="M9.82,31.19c2,2.79,2.58,6.42,2.51,9.88a12,12,0,0,1-.79,4.53A5.27,5.27,0,0,1,8.3,48.69c-.77.21-2.59-3.18-2.7-4C5,40.2,3.82,36.91,3.8,32.33,3.78,28.47,7.85,28.51,9.82,31.19Z"/><path class="cls-3" d="M9.16,50.44A6.22,6.22,0,0,0,11.4,49a10,10,0,0,0,1.66-2.34A14,14,0,0,0,14.61,41a18.3,18.3,0,0,0-.69-6,24.35,24.35,0,0,0-2.52-5.55,24.31,24.31,0,0,1,2.89,5.42A18.65,18.65,0,0,1,15.4,41a15,15,0,0,1-1.27,6.17,8.94,8.94,0,0,1-4.44,4.78Z"/><path class="cls-6" d="M48.82,53.69c-2.77,2.42-6.06,3.43-7.64,1.32-1.09-1.45,1-3.94,4-6.13S50.46,46.09,52,47.1,51.21,51.61,48.82,53.69Z"/><path class="cls-20" d="M5.08,27.6s-4.48,13.71,5,24.78"/><path class="cls-3" d="M47.77,52.91c-2.8,2.38-5.88,3.17-6.76,2s.8-3.94,3.75-6.13,5.7-2.67,7-1.8C52.57,47.54,50.19,50.86,47.77,52.91Z"/><path class="cls-3" d="M59.36,37.13A31.08,31.08,0,0,1,56.15,48a25.55,25.55,0,0,1-7.09,8.72,23.67,23.67,0,0,1-4.81,2.92,27.7,27.7,0,0,1-2.6,1c-.9.26-1.78.57-2.7.75a38.25,38.25,0,0,1-11.08.82,38.21,38.21,0,0,0,11-1.2c.9-.21,1.76-.55,2.63-.84s1.71-.67,2.51-1.11a22.82,22.82,0,0,0,4.57-3,24.7,24.7,0,0,0,6.53-8.63,30.17,30.17,0,0,0,2.69-10.42Z"/><path class="cls-6" d="M36.43,59.23a4.53,4.53,0,0,0,3.34-.18,6.34,6.34,0,0,0,1.42-.88c.22-.17.42-.37.63-.55l.57-.61,0,0a.53.53,0,0,1,.75,0,.53.53,0,0,1,0,.75l-.06,0-.72.58c-.26.17-.51.35-.78.5a7.23,7.23,0,0,1-1.69.72A4.82,4.82,0,0,1,36.43,59.23Z"/><path class="cls-6" d="M41.57,53.56A7.87,7.87,0,0,0,44.66,52a6.45,6.45,0,0,0,2-2.61h0a.67.67,0,0,1,.87-.36.67.67,0,0,1,.35.87.24.24,0,0,1-.06.11A7.45,7.45,0,0,1,45,52.58,8.12,8.12,0,0,1,41.57,53.56Z"/><path class="cls-6" d="M11.4,41.83a15.34,15.34,0,0,0-.72-4.44,11.71,11.71,0,0,0-.84-2A10.25,10.25,0,0,0,8.65,33.6l0,0a.79.79,0,1,1,1.23-1,1,1,0,0,1,.08.11,11.51,11.51,0,0,1,1,2.22,12.71,12.71,0,0,1,.52,2.32A15.81,15.81,0,0,1,11.4,41.83Z"/><path class="cls-6" d="M9.56,43.42A15.43,15.43,0,0,0,8.9,39a12.25,12.25,0,0,0-.81-2.06,10.34,10.34,0,0,0-1.18-1.8l0,0A.66.66,0,0,1,7,34.15a.66.66,0,0,1,.93.11.22.22,0,0,1,.05.08,11.37,11.37,0,0,1,1,2.18,13.38,13.38,0,0,1,.55,2.29A16.18,16.18,0,0,1,9.56,43.42Z"/><path class="cls-6" d="M37.22,57.12a2.68,2.68,0,0,0,2-.07,3.53,3.53,0,0,0,.85-.52,5.84,5.84,0,0,0,.72-.69h0a.32.32,0,0,1,.45,0,.3.3,0,0,1,0,.44l0,0a8,8,0,0,1-.89.64,4.3,4.3,0,0,1-1,.42A2.9,2.9,0,0,1,37.22,57.12Z"/><path class="cls-6" d="M40.26,18a6.39,6.39,0,0,1,2.79-1.42,8.27,8.27,0,0,1,6.2.92,7.66,7.66,0,0,1,2.34,2.08c-1-.4-1.85-.84-2.78-1.15a14.31,14.31,0,0,0-5.6-.84A19.35,19.35,0,0,0,40.26,18Z"/><path class="cls-6" d="M28.68,11.06a6.38,6.38,0,0,1,3.13-.21,8.16,8.16,0,0,1,3,1.09,8.4,8.4,0,0,1,2.36,2.16,7.64,7.64,0,0,1,1.34,2.82c-.74-.75-1.38-1.49-2.11-2.13a13.84,13.84,0,0,0-2.27-1.72,13.51,13.51,0,0,0-2.57-1.23A20.18,20.18,0,0,0,28.68,11.06Z"/><path class="cls-5" d="M51.8,43.07a2.88,2.88,0,0,0-.7-.2,6.24,6.24,0,0,0-.88-.09,10.33,10.33,0,0,0-1.83.14,19.65,19.65,0,0,0-3.65,1,35.62,35.62,0,0,0-3.5,1.61c-1.14.6-2.25,1.26-3.36,1.94,1-.77,2.1-1.53,3.19-2.23a35.52,35.52,0,0,1,3.41-1.92A19.66,19.66,0,0,1,48.19,42a10.29,10.29,0,0,1,2-.33,7.51,7.51,0,0,1,1.06,0,3.83,3.83,0,0,1,1.16.27.66.66,0,1,1-.51,1.22l-.07,0Z"/><path class="cls-5" d="M19.52,21a6.26,6.26,0,0,0-.31,2.63,7.47,7.47,0,0,0,.75,2.7,10.22,10.22,0,0,0,1.68,2.37c.33.36.72.68,1.08,1l1.2.9-1.32-.74c-.4-.3-.84-.56-1.23-.89a10.76,10.76,0,0,1-2.1-2.26A8.88,8.88,0,0,1,18,23.81a7.44,7.44,0,0,1,0-3.32.8.8,0,0,1,1.55.36l0,.11Z"/></svg>