<svg id="Layer_1" data-name="Layer 1" xmlns="http://www.w3.org/2000/svg" width="79.2" height="59.4" viewBox="0 0 79.2 59.4">
  <title>latest-winners</title>
  <g>
    <path d="M57.13591,10.18093A.97028.97028,0,0,1,56.835,8.89206a11.90992,11.90992,0,0,0,.32852-7.18518c-.26694-1.11117-.74229-1.26906-1.59418-.5311A27.26843,27.26843,0,0,1,51.666,3.9583a4.65845,4.65845,0,0,1-4.11328.64415,25.4638,25.4638,0,0,0-14.01466-.98062,12.53255,12.53255,0,0,1-8.57233-1.03027A28.03183,28.03183,0,0,1,21.93327.91694c-.93993-.6114-1.41165-.39229-1.53388.71381a11.71287,11.71287,0,0,0,.87,6.21139,1.01317,1.01317,0,0,1-.39658,1.4645,28.007,28.007,0,1,0,36.2631.87429ZM60.85957,32.2767c-.01312.4855-.1228.66188-.66335.62688a12.13482,12.13482,0,0,0-7.14052,4.00631c-2.77248,2.65589-4.69149,5.01579-6.647,6.84076-2.26964,2.11968-4.531,3.133-4.05459,3.2612,2.68223.72552,5.03707-.33762,5.11913-.09346.29047.86449-1.02581,2.97968-3.15654,5.40334a14.98829,14.98829,0,0,1-5.17758,3.85345,11.446,11.446,0,0,1-6.18687.7736A17.23334,17.23334,0,0,1,25.609,54.34694a7.27426,7.27426,0,0,1-1.19146-1.05385c.73371-.44488,4.6842-3.26157,2.66311-11.34651a19.218,19.218,0,0,0-8.9931-11.0136,15.97636,15.97636,0,0,1,6.893-17.18959,10.39823,10.39823,0,0,1,12.01381.0041,14.23,14.23,0,0,1,2.33676,2.13425c.82514.93641.9622.92893,1.85863-.02055a9.18646,9.18646,0,0,1,7.94207-3.29335,10.81629,10.81629,0,0,1,7.67439,4.964A23.48242,23.48242,0,0,1,60.85957,32.2767Z" fill="#694138"/>
    <path d="M42.17,24.07537c-1.46373-1.47748-3.066-1.50547-4.24465-.0436a4.53853,4.53853,0,0,0-.95434,2.815,5.23136,5.23136,0,0,0,.21611,1.20759,2.48915,2.48915,0,0,0,2.18268,1.976,2.2788,2.2788,0,0,0,2.46554-1.39152c.322-.257-.08778-.83636.45866-1.00779.47664-.14957.55021-.55185.58379-.99224a4.3577,4.3577,0,0,0-.19418-1.60555,2.69773,2.69773,0,0,0-.38684-.7763Z" fill="#694138"/>
  </g>
  <path d="M27.94,20,22.3,25.64a1.1996,1.1996,0,0,1-.3-.78V21.14A1.13951,1.13951,0,0,1,23.14,20Z" fill="#694138"/>
  <path d="M36,21.14v3.72A1.13951,1.13951,0,0,1,34.86,26H24.06l6-6h4.8A1.13951,1.13951,0,0,1,36,21.14Z" fill="#694138"/>
  <path d="M44.97,25.97l.02.02A1.1354,1.1354,0,0,1,44,24.86V21.14A1.13951,1.13951,0,0,1,45.14,20h5.8Z" fill="#694138"/>
  <path d="M58,21.14v3.72A1.13951,1.13951,0,0,1,56.86,26h-9.8l6-6h3.8A1.13951,1.13951,0,0,1,58,21.14Z" fill="#694138"/>
  <path d="M35,22s4-3,10,0" fill="none" stroke="#694138" stroke-miterlimit="10"/>
  <line x1="22.5" y1="21.5" x2="18.5" y2="18.5" fill="none" stroke="#694138" stroke-miterlimit="10"/>
  <line x1="56.5" y1="22.5" x2="59.5" y2="17.5" fill="none" stroke="#694138" stroke-miterlimit="10"/>
</svg>
