<svg id="Layer_1" data-name="Layer 1" xmlns="http://www.w3.org/2000/svg" width="48" height="48" viewBox="0 0 48 48">
  <title>48Х48</title>
  <g>
    <path d="M23.968,48A21.47092,21.47092,0,0,1,16.55452,6.33139c.53134-.18942.706-.39975.64915-.971A9.00454,9.00454,0,0,1,18.09014.61953c.3609-.7764.7581-.82142,1.29431-.14429a21.44956,21.44956,0,0,0,1.79955,1.963,9.6499,9.6499,0,0,0,5.99777,2.852,19.57482,19.57482,0,0,1,9.97694,4.14847,3.58455,3.58455,0,0,0,3.15708.53752,21.00319,21.00319,0,0,0,3.527-1.07128c.80242-.33027,1.10968-.098,1.03195.7777a9.16417,9.16417,0,0,1-1.999,5.15749.74524.74524,0,0,0-.09747,1.01327,21.32757,21.32757,0,0,1-3.69771,26.07939A21.17574,21.17574,0,0,1,23.968,48Z" fill="#49231a"/>
    <path d="M18.52307,10.77286a7.38315,7.38315,0,0,1,8.69705,2.74638,10.85537,10.85537,0,0,1,1.181,2.128c.37283.88486.47411.91306,1.36025.44062a7.06463,7.06463,0,0,1,6.597-.45488,8.311,8.311,0,0,1,4.37845,5.49919,18.04914,18.04914,0,0,1-.6572,11.74246c-.12753.3512-.25136.45327-.63619.29511-.57826-.23764-2.82872-.4105-6.18857,1.17061-2.6716,1.25722-4.6491,2.5085-6.52206,3.35985-2.174.98819-4.07073,1.17307-3.75513,1.38347,1.77874,1.18583,3.75513.98819,3.75513,1.18583,0,.70181-1.47685,1.92206-3.62414,3.16613a11.52854,11.52854,0,0,1-4.71963,1.5408,8.79187,8.79187,0,0,1-4.70036-.9518c-1.19186-.511-6.50271-3.56782-5.53387-7.115.44989-1.64718,4.348-8.49845,3.95276-13.637a11.62779,11.62779,0,0,1,.79056-4.348c.16146-1.659.73233-1.00865,1.41425-2.52861a19.21377,19.21377,0,0,1,3.07023-4.691A4.89261,4.89261,0,0,1,18.52307,10.77286Z" fill="#fae0c5"/>
    <path d="M43.68435,10.30456a7.48449,7.48449,0,0,1-2.09343,4.29471c-.1899.18341-.21295.43829-.36917.62637a1.39481,1.39481,0,0,0-.11055,1.93694A23.28275,23.28275,0,0,1,44.15056,25.042a10.78858,10.78858,0,0,1,.25367,2.01925c.041.094.15316-.03359.06392.00882-.03749.01782-.069.003-.06134-.03836.09888-.53537-.34273-1.0987.08332-1.61656a7.36487,7.36487,0,0,1-.11612,3.15276c-.02314.14241-.04123.28564-.06166.42849-.57271.72178-1.98536,3.78887-2.95439,3.76285a21.04245,21.04245,0,0,0,1.16984-7.56571,14.50862,14.50862,0,0,0-2.31419-7.67341,7.96413,7.96413,0,0,0-6.23375-3.60308,7.75346,7.75346,0,0,0-4.07012.87865c-.50023.257-.66014.10354-.868-.32905a8.81048,8.81048,0,0,0-5.519-4.90918,14.11045,14.11045,0,0,0-1.443-.28329,5.185,5.185,0,0,0-1.59967-.05512c-.53648.02163-.64627-.20572-.5461-.66243.04721-.21526.10077-.42891.15-.64362a4.39507,4.39507,0,0,0-.23749-3.00839,1.92677,1.92677,0,0,1-.37774-1.3099c.3339-.284.48962.03955.61676.22608a7.8239,7.8239,0,0,0,5.94175,3.31023,20.39675,20.39675,0,0,1,9.80709,3.811c2.42646,1.74834,4.60906,1.65358,7.03272-.16247A1.9311,1.9311,0,0,1,43.68435,10.30456Z" fill="#82574b"/>
    <path d="M19.5589,3.50087a2.24908,2.24908,0,0,0,.4273,1.16327,4.753,4.753,0,0,1,.21938,3.64606c-.23932.81608-.2153.805.657.83126.40568.01222.83811-.14362,1.2172.13282a10.954,10.954,0,0,0-8.058,2.6709,17.85541,17.85541,0,0,0-5.683,8.28873,2.18274,2.18274,0,0,1-1.47217,1.59556,5.26876,5.26876,0,0,0-3.30031,2.99061,8.11676,8.11676,0,0,1,.301-2.235,20.56878,20.56878,0,0,1,13.624-15.402c.92524-.29854,1.05672-.48978.84892-1.44813a7.0477,7.0477,0,0,1,.43524-3.82612c.11-.326.19055-.30667.34121-.04494C19.16024,2.43762,19.70827,2.87505,19.5589,3.50087Z" fill="#694138"/>
    <path d="M18.52307,10.77286a20.79328,20.79328,0,0,0-3.7938,5.205,29.61408,29.61408,0,0,0-2.42414,5.516c-.19764,2.5693-.16067.8517-.93855.3084a4.18214,4.18214,0,0,0-1.83995-.48511c-.2263-.03259-.38732-.05216-.28042-.34737,1.67488-4.625,4.32285-8.37711,9.13088-10.19458A.44215.44215,0,0,1,18.52307,10.77286Z" fill="#c5a992"/>
    <path d="M19.5589,3.50087c-.11509-.55437-.61447-1.00492-.4422-1.63694a16.61919,16.61919,0,0,0,3.82841,3.33886A8.99842,8.99842,0,0,0,26.8135,6.30744a18.97569,18.97569,0,0,1,9.21889,3.70107,5.2337,5.2337,0,0,0,4.78213.97835c.76339-.19455,1.52784-.37624,2.27813-.62061.175-.057.37327-.28685.5918-.06166a7.15173,7.15173,0,0,1-4.96371,2.10516,4.03837,4.03837,0,0,1-2.56237-.97206A19.08184,19.08184,0,0,0,29.0135,7.87187c-1.36357-.29836-2.75266-.47805-4.12248-.75034a7.38836,7.38836,0,0,1-5.108-3.439C19.73558,3.60527,19.63483,3.5607,19.5589,3.50087Z" fill="#be8676"/>
    <path d="M44.31231,28.99643a6.13946,6.13946,0,0,0-2.885,3.39268,8.16873,8.16873,0,0,1-1.13007,2.09225.41519.41519,0,0,1-.2494.21508.43794.43794,0,0,1-.2672-.0824,4.56942,4.56942,0,0,0-3.56128-.27365,23.17862,23.17862,0,0,0-3.75513,1.58111c-2.04474,1.01263-3.75512,2.56929-6.52206,3.16221a6.76271,6.76271,0,0,0,2.5693.39528c-.39528,1.5811-2.23559,4.277-6.32442,5.7315-.43338.15416-1.38484.41435-1.81158.586-.1113.04478-.23524.10259-.2718.21685a.345.345,0,0,0,.0484.262c.29723.54942,3.5851.54748,4.209.51625,4.15457-.208,6.21185-.62136,8.69608-1.97638a29.40073,29.40073,0,0,0,6.32442-4.74332,24.54633,24.54633,0,0,0,3.35985-5.33623A15.28842,15.28842,0,0,0,44.31231,28.99643Z" fill="#694138"/>
    <path d="M44.49013,25.41518v1.76346c-.45287-1.76452-.77929-3.54076-1.36691-5.25585a21.09654,21.09654,0,0,0-2.26473-4.78043A1.41911,1.41911,0,0,1,40.92015,15.26c.092-.08592.18382-.1733.30154-.03438.02332.39423.31179.6584.49286.97043A19.74839,19.74839,0,0,1,44.49013,25.41518Z" fill="#be8676"/>
    <path d="M16.909,14.62893c2.00724-2.75958,5.40714-3.32213,7.78885-1.28874a5.08538,5.08538,0,0,1-1.27347,8.56325c-.2005.09335-.40545.17713-.60834.26536A5.14282,5.14282,0,0,1,16.2,18.35813,4.73426,4.73426,0,0,1,16.909,14.62893Z" fill="#49231a"/>
    <path d="M28.88445,20.54427a5.07935,5.07935,0,0,1,4.04544-3.86057A5.0091,5.0091,0,0,1,38.396,19.29535a5.14948,5.14948,0,0,1-.90724,5.9478c-.10237.10607-.20822.2088-.31245.31308a4.84351,4.84351,0,0,1-5.10165.96771,4.91057,4.91057,0,0,1-3.3208-4.0048A5.62751,5.62751,0,0,1,28.88445,20.54427Z" fill="#49231a"/>
    <path d="M23.99407,23.06349A3.49074,3.49074,0,0,1,25.37954,21.245c1.21737-.777,2.37878-.36405,3.08393,1.07174.02149.074.03336.115.04794.16348a2.07441,2.07441,0,0,1,.09183.66074,3.3514,3.3514,0,0,1-.25178,1.21811c-.13242.31282-.28459.58812-.66872.58037-.44041-.00889-.28361.51388-.58133.62238a1.75268,1.75268,0,0,1-2.1384.41041,1.91447,1.91447,0,0,1-1.10722-1.97535A4.02431,4.02431,0,0,1,23.99407,23.06349Z" fill="#49231a"/>
    <path d="M16.909,14.62893a5.3915,5.3915,0,0,0-.20217,4.61729,5.07846,5.07846,0,0,0,5.59811,2.96948c.16813-.02874.34063-.03186.5111-.0469a4.569,4.569,0,0,1-4.73377-.4344,4.97062,4.97062,0,0,1-1.52369-6.75531C16.64645,14.82978,16.71465,14.66833,16.909,14.62893Z" fill="#c5a992"/>
    <path d="M28.88445,20.54427a8.87723,8.87723,0,0,0,.061,2.20646,5.07713,5.07713,0,0,0,7.5967,3.17092c.20911-.12558.42265-.24378.63413-.36541a4.09241,4.09241,0,0,1-3.139,1.50136,5.0034,5.0034,0,0,1-5.31742-4.10627A5.90069,5.90069,0,0,1,28.88445,20.54427Z" fill="#c4a891"/>
    <path d="M27.06132,31.80438c-1.03-.01339-2.22514-1.50012-1.99269-2.36573.07532-.28048.30323-.37122.47974-.10869a3.24294,3.24294,0,0,0,2.896,1.44172c.12849.00018.25469.03863.27624.18466.02017.13675-.07454.22353-.18815.2869A3.749,3.749,0,0,1,27.06132,31.80438Z" fill="#c6aa93"/>
    <path d="M20.88047,28.56215c-1.08138.213-1.83639-1.33461-1.89906-2.24416a.302.302,0,0,1,.13132-.2337c.15609-.08506.28909.00871.37444.13845a2.83282,2.83282,0,0,0,2.71823,1.30968c.173-.00965.36539.02372.41226.23178.04951.21972-.15259.27575-.28883.37471A2.1646,2.1646,0,0,1,20.88047,28.56215Z" fill="#c6aa93"/>
    <path d="M22.88566,32.39191A2.24206,2.24206,0,0,1,20.886,30.06077a.37967.37967,0,0,1,.12644-.23713c.13138-.07629.23954.03574.30491.13075a3.30061,3.30061,0,0,0,2.912,1.40834c.12047.0007.26473.00149.2927.15494.02519.13816-.08988.21118-.191.28275A4.24168,4.24168,0,0,1,22.88566,32.39191Z" fill="#c6aa93"/>
    <path d="M24.862,36.147A2.242,2.242,0,0,1,22.8624,33.8159a.37972.37972,0,0,1,.12644-.23713c.13138-.07629.23955.03574.30491.13075a3.30063,3.30063,0,0,0,2.912,1.40834c.12048.00069.26473.00149.2927.15494.02519.13816-.08988.21118-.191.28275A4.24157,4.24157,0,0,1,24.862,36.147Z" fill="#c6aa93"/>
    <path d="M19.13054,33.973a2.24205,2.24205,0,0,1-1.99965-2.33113.37977.37977,0,0,1,.12644-.23714c.13138-.07628.23955.03575.30491.13076a3.30063,3.30063,0,0,0,2.912,1.40834c.12048.00069.26473.00149.29271.15494.02518.13816-.08989.21118-.191.28275A4.24161,4.24161,0,0,1,19.13054,33.973Z" fill="#c6aa93"/>
    <path d="M21.10692,37.5305a2.24206,2.24206,0,0,1-1.99965-2.33113.37979.37979,0,0,1,.12644-.23714c.13139-.07628.23955.03574.30492.13075a3.30061,3.30061,0,0,0,2.912,1.40835c.12047.00069.26473.00149.2927.15494.02518.13816-.08988.21118-.191.28275A4.24161,4.24161,0,0,1,21.10692,37.5305Z" fill="#c6aa93"/>
    <path d="M21.19669,41.28566A1.90355,1.90355,0,0,1,19.499,39.30648a.32237.32237,0,0,1,.10735-.20133c.11154-.06477.20338.03034.25887.111a2.80232,2.80232,0,0,0,2.47234,1.19571c.10228.00059.22476.00126.24851.13154.02138.1173-.07631.1793-.16216.24006A3.60123,3.60123,0,0,1,21.19669,41.28566Z" fill="#c6aa93"/>
    <path d="M17.44157,39.30927a1.90354,1.90354,0,0,1-1.69774-1.97917.32237.32237,0,0,1,.10735-.20133c.11155-.06477.20338.03034.25888.111a2.80226,2.80226,0,0,0,2.47233,1.1957c.10229.00059.22476.00127.24851.13155.02138.1173-.07631.1793-.16215.24006A3.60108,3.60108,0,0,1,17.44157,39.30927Z" fill="#c6aa93"/>
    <path d="M18.07794,42.27386a1.7327,1.7327,0,0,1-1.54537-1.80155.29352.29352,0,0,1,.09771-.18326c.10154-.059.18513.02762.23565.101a2.55075,2.55075,0,0,0,2.25044,1.08839c.09311.00054.20459.00116.22621.11974.01946.10678-.06947.16321-.1476.21852A3.27807,3.27807,0,0,1,18.07794,42.27386Z" fill="#c6aa93"/>
    <path d="M23.99407,23.06349a4.203,4.203,0,0,1-.01074.5095,1.94865,1.94865,0,0,0,3.11808,1.98881,1.79783,1.79783,0,0,1-2.1045.77433,1.83165,1.83165,0,0,1-1.29322-1.85889A2.08544,2.08544,0,0,1,23.99407,23.06349Z" fill="#c4a892"/>
    <path d="M24.01839,19.19992c.59689-2.3039-.05994-3.71737-2.20873-4.75311a.87431.87431,0,0,1,.55891-1.05038,3.905,3.905,0,0,1,2.358,5.981A.4838.4838,0,0,1,24.01839,19.19992Z" fill="#fde29d"/>
    <path d="M22.36857,13.39643a4.18823,4.18823,0,0,0-.55907,1.05034,4.27841,4.27841,0,0,0-2.25688.04988,5.89024,5.89024,0,0,0-1.79841,1.18173C18.82361,13.66113,20.46413,12.87841,22.36857,13.39643Z" fill="#fcc634"/>
    <path d="M22.97594,17.04908a.7681.7681,0,0,1-.77968.81385.78962.78962,0,1,1-.03759-1.57879A.77407.77407,0,0,1,22.97594,17.04908Z" fill="#f8f7f7"/>
    <path d="M24.01839,19.19992q.35421.08856.70828.17733a3.56785,3.56785,0,0,1-2.51007,1.70921A4.55758,4.55758,0,0,0,24.01839,19.19992Z" fill="#f3bd33"/>
    <path d="M34.93031,17.83255a3.88924,3.88924,0,0,1,2.23608,5.9932.60062.60062,0,0,1-.87727-.31557c.50481-2.28058.00112-3.48423-1.92964-4.61118C34.1995,18.356,34.30379,17.95453,34.93031,17.83255Z" fill="#fde29d"/>
    <path d="M34.93031,17.83255a1.39017,1.39017,0,0,0-.57062,1.06652,3.917,3.917,0,0,0-3.54938.42388A3.63766,3.63766,0,0,1,34.93031,17.83255Z" fill="#fcc634"/>
    <path d="M35.42429,21.38378c-.0207.51463-.27692.80189-.77171.80722a.70591.70591,0,0,1-.7807-.77541.686.686,0,0,1,.72867-.745A.71927.71927,0,0,1,35.42429,21.38378Z" fill="#fbfbfb"/>
    <path d="M36.28912,23.51018a2.19513,2.19513,0,0,0,.87741.31535,3.65289,3.65289,0,0,1-2.95479,1.69268A4.25053,4.25053,0,0,0,36.28912,23.51018Z" fill="#fac434"/>
    <path d="M27.127,23.48969a6.38246,6.38246,0,0,1-.70322-.50059c-.22071-.20384-.58585-.46445-.41817-.75578.19084-.33156.61087-.31905.96839-.12783C27.184,22.54932,27.47364,22.98435,27.127,23.48969Z" fill="#9e9394"/>
    <path d="M25.23809,23.25825c.25951.42674.47336.75584.6614,1.09908.07211.1316.26048.30248.03868.44437a.39362.39362,0,0,1-.48081-.07071A1.10128,1.10128,0,0,1,25.23809,23.25825Z" fill="#5b4d4b"/>
    <path d="M14.28152,38.29316a13.12681,13.12681,0,0,0,1.64974-6.3116,15.25674,15.25674,0,0,0-.79833-6.39237c-.2274-.57636-.50814-1.12993-.78842-1.68252l-1.74462-3.43946a.20347.20347,0,0,0-.07652-.09561.18786.18786,0,0,0-.18552.04075,2.022,2.022,0,0,0-.59228,1.66837,9.70143,9.70143,0,0,0,.18842,2.712c.16836.654.46375,1.26774.67491,1.90919a12.9116,12.9116,0,0,1,.505,4.00462,7.49514,7.49514,0,0,1-1.12828,4.67037c-.8819,1.14314-1.44118,2.72217-2.78425,3.25212-.65138.257-.56345,2.02972.53445,2.431C10.89478,41.48373,12.98752,40.43669,14.28152,38.29316Z" fill="#c5a992"/>
    <path d="M27.127,23.48969a4.76675,4.76675,0,0,0-.153-1.38412,1.2804,1.2804,0,0,1,.514,1.21983C27.48134,23.58074,27.36738,23.69881,27.127,23.48969Z" fill="#d3cdcd"/>
    <path d="M4.00433,30.7829c-.59292-2.5693-.87773-5.90287,0-7.90553a5.73571,5.73571,0,0,1,1.32934-1.61473,5.0865,5.0865,0,0,1,1.40727-.73555c.71167-.272,1.85736-1.06613,4.18072.96681a10.27813,10.27813,0,0,1,2.96458,7.115c0,6.52206-2.09128,8.99691-3.55382,10.19147-.54341.44384-1.491.903-2.17138.37737a12.73741,12.73741,0,0,1-1.78506-2.268A20.76421,20.76421,0,0,1,4.00433,30.7829Z" fill="#694138"/>
    <path d="M9.14292,19.9128a14.22278,14.22278,0,0,1,4.53247,11.78294c-.59485,7.49038-5.323,8.17852-5.323,8.17852" fill="none" stroke="#49231a" stroke-linecap="round" stroke-miterlimit="10" stroke-width="1.18583"/>
    <path d="M7.36365,23.39223a12.00171,12.00171,0,0,1,1.88312,7.41335,8.98829,8.98829,0,0,1-.58959,3.39589,3.96062,3.96062,0,0,1-2.42976,2.31367c-.58.16286-1.94739-2.38125-2.02546-2.9653-.45463-3.40127-1.33723-5.86635-1.35321-9.30289C2.83529,21.3519,5.88508,21.3855,7.36365,23.39223Z" fill="#82574b"/>
    <path d="M6.87038,37.83286A4.68128,4.68128,0,0,0,8.54918,36.728a7.61853,7.61853,0,0,0,1.24854-1.75506,10.453,10.453,0,0,0,1.15612-4.25409,13.484,13.484,0,0,0-.51759-4.471A18.01494,18.01494,0,0,0,8.55,22.08682a18.16537,18.16537,0,0,1,2.16807,4.069,13.93005,13.93005,0,0,1,.8284,4.5811,11.191,11.191,0,0,1-.94987,4.62684,6.69618,6.69618,0,0,1-3.33156,3.58737Z" fill="#82574b"/>
    <path d="M36.61464,40.26954c-2.07727,1.81366-4.54568,2.5693-5.73151.98819-.81838-1.09117.74522-2.95317,2.96288-4.59568s3.99743-2.09537,5.14029-1.33347C40.17213,36.11913,38.406,38.70549,36.61464,40.26954Z" fill="#be8676"/>
    <path d="M3.80669,20.70335S.44684,30.98054,7.56181,39.28135" fill="none" stroke="#49231a" stroke-linecap="round" stroke-miterlimit="10" stroke-width="1.08701"/>
    <path d="M35.82909,39.68338c-2.10145,1.781-4.40853,2.37627-5.07115,1.48162s.598-2.95143,2.81565-4.59395,4.27448-2.0006,5.21522-1.35412C39.42509,35.65418,37.64132,38.14748,35.82909,39.68338Z" fill="#82574b"/>
    <path d="M44.51958,27.84485a23.452,23.452,0,0,1-2.40516,8.15837,19.23067,19.23067,0,0,1-5.323,6.53729A17.39279,17.39279,0,0,1,33.186,44.72956a19.59685,19.59685,0,0,1-3.97448,1.35171,28.7651,28.7651,0,0,1-8.30913.61151,28.617,28.617,0,0,0,8.23633-.89889,19.227,19.227,0,0,0,3.85373-1.46469,16.8747,16.8747,0,0,0,3.42639-2.24989,18.48845,18.48845,0,0,0,4.89605-6.46564,22.508,22.508,0,0,0,2.02-7.82186Z" fill="#82574b"/>
    <path d="M27.32564,44.41994a3.39214,3.39214,0,0,0,2.50163-.13457,4.93371,4.93371,0,0,0,1.066-.65426,7.34478,7.34478,0,0,0,.89622-.87414l.008-.009a.39677.39677,0,1,1,.59321.52706.43234.43234,0,0,1-.04219.04093,8.01929,8.01929,0,0,1-1.12249.80588,5.4227,5.4227,0,0,1-1.27.53723A3.58761,3.58761,0,0,1,27.32564,44.41994Z" fill="#be8676"/>
    <path d="M31.17959,40.17072a5.91442,5.91442,0,0,0,2.3179-1.14832,4.88384,4.88384,0,0,0,1.46624-1.96029.49644.49644,0,1,1,.9197.37414.58646.58646,0,0,1-.04476.08522,5.62984,5.62984,0,0,1-2.06857,1.913A6.15973,6.15973,0,0,1,31.17959,40.17072Z" fill="#be8676"/>
    <path d="M8.55,31.37582a11.64171,11.64171,0,0,0-.538-3.33359,8.15977,8.15977,0,0,0-1.52558-2.84385.59538.59538,0,0,1,.90224-.77708.695.695,0,0,1,.06271.08783A9.04752,9.04752,0,0,1,8.5908,27.91361,11.93486,11.93486,0,0,1,8.55,31.37582Z" fill="#be8676"/>
    <path d="M7.16654,32.56165a11.68024,11.68024,0,0,0-.48977-3.34431,8.2586,8.2586,0,0,0-1.4934-2.89057l-.00384-.00468a.4956.4956,0,0,1,.76668-.62825.541.541,0,0,1,.04128.05856A8.99581,8.99581,0,0,1,7.1591,29.11016,11.92423,11.92423,0,0,1,7.16654,32.56165Z" fill="#be8676"/>
    <path d="M27.91855,42.83884a1.99348,1.99348,0,0,0,1.49088-.05267,3.28063,3.28063,0,0,0,1.17185-.90462.23657.23657,0,0,1,.36084.306.31078.31078,0,0,1-.02738.02742,3.62957,3.62957,0,0,1-1.431.79494A2.11023,2.11023,0,0,1,27.91855,42.83884Z" fill="#be8676"/>
    <path d="M30.19139,13.48955a4.828,4.828,0,0,1,2.09825-1.06006,6.09024,6.09024,0,0,1,2.39382-.11646,6.17886,6.17886,0,0,1,2.2547.80328,5.79974,5.79974,0,0,1,1.75168,1.55907c-.73018-.30049-1.388-.63045-2.0797-.86118a10.35484,10.35484,0,0,0-2.07084-.52415,9.90961,9.90961,0,0,0-2.13192-.10146A14.34872,14.34872,0,0,0,30.19139,13.48955Z" fill="#be8676"/>
    <path d="M21.51339,8.29811A4.82806,4.82806,0,0,1,23.85863,8.136a6.09027,6.09027,0,0,1,2.25118.82227,6.17908,6.17908,0,0,1,1.76581,1.61581,5.79965,5.79965,0,0,1,1.00877,2.11694c-.55618-.56046-1.03425-1.12-1.58206-1.60121a10.35552,10.35552,0,0,0-1.70478-1.28718,9.90967,9.90967,0,0,0-1.92521-.92138A14.34763,14.34763,0,0,0,21.51339,8.29811Z" fill="#be8676"/>
    <path d="M38.8526,32.30588a3.27824,3.27824,0,0,0-1.18837-.21883,7.2693,7.2693,0,0,0-1.37482.10617,14.36509,14.36509,0,0,0-2.73581.77,25.82329,25.82329,0,0,0-2.62459,1.206c-.857.44938-1.68757.94864-2.51636,1.45575.782-.57483,1.57008-1.145,2.39222-1.66935a26.18937,26.18937,0,0,1,2.55223-1.44577,14.97323,14.97323,0,0,1,2.78341-1.04274,8.05965,8.05965,0,0,1,1.50923-.24467,3.86147,3.86147,0,0,1,1.66789.21143.49564.49564,0,0,1-.35866.92411.50382.50382,0,0,1-.0501-.02267Z" fill="#c5a992"/>
    <path d="M14.64371,15.76005a4.64782,4.64782,0,0,0-.23931,1.96847,5.78131,5.78131,0,0,0,.56268,2.02721,7.64079,7.64079,0,0,0,1.26352,1.77641c.25.27256.53945.50715.81044.76554l.89678.67851-.98411-.55874c-.30487-.222-.63144-.42277-.92431-.66757a8.08283,8.08283,0,0,1-1.57541-1.697,6.52821,6.52821,0,0,1-.929-2.19182,5.59025,5.59025,0,0,1-.00091-2.49157.59546.59546,0,0,1,1.15966.27109.60144.60144,0,0,1-.02309.07587Z" fill="#c5a992"/>
  </g>
</svg>
