<svg id="Layer_1" data-name="Layer 1" xmlns="http://www.w3.org/2000/svg" xmlns:xlink="http://www.w3.org/1999/xlink" viewBox="0 0 202 134"><defs><style>.cls-1{fill:url(#linear-gradient);}.cls-2{fill:url(#linear-gradient-2);}.cls-3{fill:#49231a;}.cls-4{fill:#fae0c5;}.cls-5{fill:#82574b;}.cls-6{fill:#694138;}.cls-7{fill:#c5a992;}.cls-8{fill:#be8676;}.cls-9{fill:#c4a891;}.cls-10{fill:#c6aa93;}.cls-11{fill:#c4a892;}.cls-12{fill:#fde29d;}.cls-13{fill:#fcc634;}.cls-14{fill:#f8f7f7;}.cls-15{fill:#f3bd33;}.cls-16{fill:#fbfbfb;}.cls-17{fill:#fac434;}.cls-18{fill:#9e9394;}.cls-19{fill:#5b4d4b;}.cls-20{fill:#d3cdcd;}</style><linearGradient id="linear-gradient" x1="190.23266" y1="554.83384" x2="188.67716" y2="500.91363" gradientTransform="translate(0 -432.00005)" gradientUnits="userSpaceOnUse"><stop offset="0" stop-color="#ffb000"/><stop offset="0.0852" stop-color="#ffb30a" stop-opacity="0.9148"/><stop offset="0.2301" stop-color="#ffbb25" stop-opacity="0.7699"/><stop offset="0.417" stop-color="#ffc951" stop-opacity="0.583"/><stop offset="0.6386" stop-color="#ffdc8d" stop-opacity="0.3614"/><stop offset="0.8869" stop-color="#fff3da" stop-opacity="0.1131"/><stop offset="1" stop-color="#fff" stop-opacity="0"/></linearGradient><linearGradient id="linear-gradient-2" x1="171.26561" y1="561.75731" x2="168.14322" y2="453.52201" gradientTransform="translate(0 -432.00005)" gradientUnits="userSpaceOnUse"><stop offset="0" stop-color="#ffb000"/><stop offset="0.08508" stop-color="#ffb30a" stop-opacity="0.9149"/><stop offset="0.2289" stop-color="#ffbb24" stop-opacity="0.7711"/><stop offset="0.4139" stop-color="#ffc94f" stop-opacity="0.5861"/><stop offset="0.633" stop-color="#ffdb8b" stop-opacity="0.367"/><stop offset="0.8779" stop-color="#fff3d7" stop-opacity="0.1221"/><stop offset="1" stop-color="#fff" stop-opacity="0"/></linearGradient></defs><title>owl202x134fullcolor</title><path class="cls-1" d="M193.7,71.1a66.831,66.831,0,0,1,1.6,25.6,88.52522,88.52522,0,0,1-7.3,25,2.35053,2.35053,0,1,1-4.3-1.9c0-.1.1-.1.1-.2A85.15626,85.15626,0,0,0,193,96.3,66.71174,66.71174,0,0,0,193.7,71.1Z"/><path class="cls-2" d="M159.3,26.2a62.52454,62.52454,0,0,1,18.9,21,60.09972,60.09972,0,0,1,7,27.9,72.50622,72.50622,0,0,1-5.9,28.6,90.60546,90.60546,0,0,1-15.7,24.8,4.53928,4.53928,0,1,1-6.9-5.9c.1-.1.2-.2.2-.3h0A84.62257,84.62257,0,0,0,173,100.8a66.7626,66.7626,0,0,0,7.5-25.9A56.49433,56.49433,0,0,0,176,48.1,59.10532,59.10532,0,0,0,159.3,26.2Z"/><path class="cls-3" d="M148.89188,111.97043A47.86182,47.86182,0,0,1,80.2316,47.26974c.68675-1.041.7375-1.6427-.13176-2.58969A20.15677,20.15677,0,0,1,75.377,35.0156c-.39084-1.86638.25128-2.476,2.11881-1.97187a47.93522,47.93522,0,0,0,5.83356,1.10864,21.61129,21.61129,0,0,0,14.53026-2.86226,43.53272,43.53272,0,0,1,23.36618-5.84164c2.754.04481,4.68338-1.28868,6.35989-3.23065a44.62414,44.62414,0,0,0,4.87867-6.60975c.988-1.66284,1.86159-1.64811,2.87131.024a20.39345,20.39345,0,0,1,3.2901,11.88991,1.677,1.677,0,0,0,1.17892,1.94464A47.54286,47.54286,0,0,1,167.8522,81.0326,47.06555,47.06555,0,0,1,148.89188,111.97043Z"/><path class="cls-4" d="M89.68941,52.58788c3.64093-6.2213,11.76756-9.03884,19.22-6.64409a25.02172,25.02172,0,0,1,4.944,2.23389c1.83816,1.09,2.06238.98984,3.02533-1.01939,2.29742-4.85845,5.7396-8.44366,11.20006-9.57955,5.695-1.17741,10.65127.71559,15.13209,4.02343,7.46987,5.50065,11.808,13.12828,14.43613,21.8933.22537.79482.15448,1.14609-.73626,1.37634-1.344.33468-5.60783,3.03705-9.52009,10.32255-3.12222,5.80286-4.98283,10.66867-7.21237,14.68039-2.57354,4.66538-5.73525,7.5114-4.872,7.46747,4.75845-.2495,8.03258-3.21219,8.28669-2.87006.93705,1.26161-.09449,5.4121-2.27035,10.47888A25.947,25.947,0,0,1,134.925,113.983c-2.56786,2.3054-5.01833,3.42869-9.67421,4.531-2.82127.66874-16.38129,2.24632-19.35038-5.3696-1.37918-3.55441-3.50873-20.98464-11.04372-29.65534-4.36938-6.64222-3.8781-8.03568-4.36983-8.83175-1.90826-3.19462-.02972-2.765-.8438-6.40735a43.78911,43.78911,0,0,1-.7462-12.48537A9.60091,9.60091,0,0,1,89.68941,52.58788Z"/><path class="cls-5" d="M134.08184,18.32189a16.51488,16.51488,0,0,1,1.95963,10.456c-.1039.57487.20274,1.07707.163,1.60428-.05208,2.02946.47141,2.86829,2.38047,3.607A52.26251,52.26251,0,0,1,154.48266,44.0467a23.381,23.381,0,0,1,3.13315,3.28025c.1912.12342.23033-.27062.12279-.058-.04826.069-.1283.09529-.15456.01526-.54363-1.08931-2.08128-1.50668-1.99442-2.99792,1.92672,1.52194,2.90219,3.684,3.97907,5.804.14783.28836.317.56085.46485.84921-.07347,2.04534,1.485,9.41495-.27878,10.65864-.46041-2.94282-5.12162-12.1222-7.95787-15.09208-3.915-4.69031-8.41411-8.64817-14.34474-10.64693a17.84963,17.84963,0,0,0-15.9585,1.83276,17.29133,17.29133,0,0,0-6.11642,6.9982c-.5487,1.13748-1.03314,1.066-2.00568.56066-5.26651-2.75746-10.71827-3.48609-16.40667-1.45095a31.35028,31.35028,0,0,0-2.96856,1.40855,12.31926,12.31926,0,0,0-2.94477,2.0213c-.93048.75747-1.42469.49412-1.85715-.4455-.20035-.44843-.4007-.89685-.57966-1.36116a9.74838,9.74838,0,0,0-4.43-5.07095c-.88213-.47291-1.96221-.76562-2.43131-1.84393.21756-.9579.92436-.587,1.41369-.41959,5.36127,1.85759,10.34216.7461,15.02688-1.97029a45.45645,45.45645,0,0,1,22.6221-6.218c6.65961-.10213,10.4457-3.17964,12.37241-9.654A5.0964,5.0964,0,0,1,134.08184,18.32189Z"/><path class="cls-6" d="M81.85611,38.19958A4.71746,4.71746,0,0,0,84.16649,39.702a10.50609,10.50609,0,0,1,5.229,6.236c.65232,1.77171.67921,1.71856,2.28783.62331.74291-.51861,1.30625-1.36836,2.3558-1.38477-5.86079,3.58991-9.173,9.003-10.85472,15.49446A39.82414,39.82414,0,0,0,84.02818,83.071a4.9208,4.9208,0,0,1-.50193,4.81887A11.751,11.751,0,0,0,81.595,97.61915a17.8903,17.8903,0,0,1-2.43539-4.39573,45.93419,45.93419,0,0,1,3.92617-45.68466c1.24946-1.75751,1.23055-2.27434-.40353-3.715-2.292-2.01376-3.40918-4.63468-4.31251-7.41442-.23637-.72028-.0708-.81008.55658-.54611C79.73695,36.82058,81.30822,36.88119,81.85611,38.19958Z"/><path class="cls-7" d="M89.68941,52.58788a46.51359,46.51359,0,0,0,.14614,14.35778c.76945,4.07364,1.17538,8.41729,2.99677,13.10316,3.05116,4.86741.84966,1.72468-1.27634,1.81066a9.68082,9.68082,0,0,0-3.94419,1.56915c-.45393.23761-.7478.42269-.9524-.25483-3.15275-10.49884-3.39267-20.739,2.78931-30.37395C89.48108,52.70943,89.5825,52.66729,89.68941,52.58788Z"/><path class="cls-8" d="M81.85611,38.19958c-.94441-.8248-2.42465-.9862-2.967-2.34186a37.19717,37.19717,0,0,0,11.27379.88363c3.1334-.20381,5.75068-1.68325,8.38934-3.17857a42.06311,42.06311,0,0,1,21.41-5.61636,11.72116,11.72116,0,0,0,9.85565-4.59946c1.11442-1.35859,2.24472-2.6958,3.25834-4.14543.24134-.34515.28171-1.00555.98975-.901a15.90652,15.90652,0,0,1-6.07879,10.35458,9.05049,9.05049,0,0,1-5.86249,1.66674c-6.02.0252-11.952.61551-17.5201,3.12534-2.83475,1.276-5.55344,2.79758-8.37781,4.13221a16.39135,16.39135,0,0,1-13.70475.62332A2.782,2.782,0,0,0,81.85611,38.19958Z"/><path class="cls-6" d="M160.05492,50.9236a13.62118,13.62118,0,0,0-.64283,9.90046,17.60341,17.60341,0,0,1,.748,5.25089.89605.89605,0,0,1-.16317.71843.95883.95883,0,0,1-.58161.19972,10.14419,10.14419,0,0,0-6.73751,4.24108,53.45318,53.45318,0,0,0-4.6179,7.80961c-2.30656,4.53344-3.29968,9.58442-7.46649,14.33826a15.10082,15.10082,0,0,0,5.12152-2.709c1.3908,3.34671,1.68715,10.62519-3.6883,18.66567-.56333.84974-1.92459,2.59075-2.472,3.46187a1.02837,1.02837,0,0,0-.20593.75019.78059.78059,0,0,0,.43494.40691c1.26516.58657,7.14557-3.781,8.20985-4.67106,7.17139-5.89053,10.29344-9.37068,12.94648-15.09049a65.20388,65.20388,0,0,0,5.00652-16.89086c.24879-1.94331.01118-10.39352-1.09064-14.02123A33.82546,33.82546,0,0,0,160.05492,50.9236Z"/><path class="cls-8" d="M155.611,44.27038l2.35057,3.16472c-3.16314-2.5612-6.091-5.29711-9.42587-7.59807A46.52313,46.52313,0,0,0,138.12,34.30133c-1.73373-.63671-2.65428-2.01012-2.40247-3.458.05989-.27674.08252-.559.48694-.46121.56688.67389,1.42949.76315,2.16317,1.08088A44.30937,44.30937,0,0,1,155.611,44.27038Z"/><path class="cls-3" d="M91.91124,61.65466c-.0764-7.60775,5.27137-13.13919,12.22663-12.66459,8.44649.56146,13.189,9.44822,9.09952,17.03121-.23646.44107-.48879.86075-.74114,1.28043C108.242,73.68,99.73194,73.033,95.58349,69.27918A10.751,10.751,0,0,1,91.91124,61.65466Z"/><path class="cls-3" d="M121.22037,56.30954c-1.60392-4.48242-1.19551-8.66778,2.119-12.29087a11.13727,11.13727,0,0,1,13.25036-2.57523,11.48342,11.48342,0,0,1,6.28421,11.85593l-.143.9689a11.40486,11.40486,0,0,1-19.1093,5.7656A11.79572,11.79572,0,0,1,121.22037,56.30954Z"/><path class="cls-3" d="M115.80437,67.33312a7.69463,7.69463,0,0,1,.06637-5.0926c1.14875-3.0099,3.77881-3.80206,6.94628-2.17311.13807.09653.223.16619.30789.23584a5.56707,5.56707,0,0,1,1.04458,1.049,7.39578,7.39578,0,0,1,1.17094,2.51462c.17772.73067.265,1.429-.41924,1.93719-.80707.56626.16974,1.30065-.22191,1.89016-.371,1.86815-1.27767,3.23837-3.28761,3.56994a4.29453,4.29453,0,0,1-4.60921-2.0512A10.53255,10.53255,0,0,1,115.80437,67.33312Z"/><path class="cls-7" d="M91.91124,61.65466c.79819,3.621,2.42483,6.65979,5.767,8.524a11.33751,11.33751,0,0,0,13.962-2.10843c.2676-.26512.57246-.52473.856-.76846a10.239,10.239,0,0,1-9.03955,5.51955A11.0851,11.0851,0,0,1,91.7462,62.77263C91.69492,62.3462,91.61676,61.97292,91.91124,61.65466Z"/><path class="cls-9" d="M121.22037,56.30954A20.35583,20.35583,0,0,0,124.2655,60.186a11.32715,11.32715,0,0,0,17.80856-4.43451c.18881-.50521.43077-.98354.641-1.50464.0236,2.93546-1.60038,5.0375-3.62265,6.87132-4.30665,3.89549-11.36882,3.5003-14.979-.28827C124.01254,60.73889,121.29358,57.74825,121.22037,56.30954Z"/><path class="cls-10" d="M132.90976,78.88258c-1.85484,1.34448-5.97845.25979-6.71568-1.58157-.237-.58711.04223-1.05993.71239-.82773a7.21094,7.21094,0,0,0,7.0965-1.25612c.23522-.17471.4967-.26938.73005-.04454a.62056.62056,0,0,1,.039.76731A7.82818,7.82818,0,0,1,132.90976,78.88258Z"/><path class="cls-10" d="M117.55053,81.2988c-1.63862,1.8143-5.07183.05094-6.3858-1.49479a.77364.77364,0,0,1-.08242-.60237c.1668-.35615.52908-.35979.85347-.23575a6.33035,6.33035,0,0,0,6.60105-1.2531.78673.78673,0,0,1,1.05018-.14959c.37141.32137.08731.69828-.02085,1.044A4.75464,4.75464,0,0,1,117.55053,81.2988Z"/><path class="cls-10" d="M126.22523,85.47325c-1.91412,1.48805-5.7451.48463-6.668-1.51741a.76386.76386,0,0,1-.08242-.60237c.13992-.303.47531-.2535.73067-.17773a7.38262,7.38262,0,0,0,7.09162-1.352c.21383-.15882.47044-.34941.71967-.10318.23335.22483.11481.51195.039.76731A9.7691,9.7691,0,0,1,126.22523,85.47325Z"/><path class="cls-10" d="M134.74048,89.567c-1.91411,1.488-5.74509.48463-6.668-1.51741a.76392.76392,0,0,1-.08243-.60238c.13993-.303.47532-.25349.73068-.17772a7.38262,7.38262,0,0,0,7.09162-1.352c.21383-.15882.47043-.34941.71966-.10318.23336.22483.11482.51195.039.76731A9.55344,9.55344,0,0,1,134.74048,89.567Z"/><path class="cls-10" d="M121.60182,93.32012c-1.91411,1.48805-5.74509.48463-6.668-1.51741a.76385.76385,0,0,1-.08242-.60237c.13992-.303.47531-.25349.73067-.17772a7.38264,7.38264,0,0,0,7.09162-1.352c.21383-.15882.47043-.34941.71967-.10319.23335.22483.11481.512.039.76732A10.51552,10.51552,0,0,1,121.60182,93.32012Z"/><path class="cls-10" d="M129.86847,97.03451c-1.91412,1.48805-5.7451.48463-6.66805-1.51741a.76386.76386,0,0,1-.08242-.60237c.13992-.303.47531-.25349.73067-.17772a7.38264,7.38264,0,0,0,7.09162-1.352c.21384-.15882.47044-.34941.71967-.10319.23335.22483.11482.512.039.76732A9.76917,9.76917,0,0,1,129.86847,97.03451Z"/><path class="cls-10" d="M135.00516,103.63769c-1.63063,1.24431-4.87636.40344-5.67287-1.29436a.68925.68925,0,0,1-.07755-.50645c.113-.24986.41116-.20585.61337-.157a6.20044,6.20044,0,0,0,6.01457-1.14929c.19245-.14294.40628-.30176.62375-.09831.20159.18207.10993.416.01828.65A7.0384,7.0384,0,0,1,135.00516,103.63769Z"/><path class="cls-10" d="M125.67024,105.09646c-1.63063,1.24432-4.87637.40345-5.67288-1.29435a.68927.68927,0,0,1-.07754-.50646c.113-.24985.41116-.20585.61337-.157a6.20042,6.20042,0,0,0,6.01456-1.14929c.19245-.14294.40629-.30176.62376-.09831.20159.18207.10993.416.01828.65A7.655,7.655,0,0,1,125.67024,105.09646Z"/><path class="cls-10" d="M130.74235,109.55776c-1.48095,1.13314-4.43407.37354-5.15666-1.18008a.58455.58455,0,0,1-.06717-.4478c.09165-.234.35251-.19547.55473-.14658a5.67639,5.67639,0,0,0,5.46533-1.04c.17107-.12706.36352-.27.56511-.08793.1857.16068.09405.39466.02927.57549A7.273,7.273,0,0,1,130.74235,109.55776Z"/><path class="cls-11" d="M115.80437,67.33312a8.22406,8.22406,0,0,1,.66155.93536c1.82761,3.35407,6.454,3.99894,8.21749-.59563-.03132,2.14676-.97041,3.60739-2.73112,4.18518a4.07713,4.07713,0,0,1-4.787-1.62051A4.63915,4.63915,0,0,1,115.80437,67.33312Z"/><path class="cls-12" d="M110.7013,60.37317c-1.9961-4.92109-5.04628-6.57079-10.277-5.57234a1.9624,1.9624,0,0,1-.39262-2.6282,8.71123,8.71123,0,0,1,12.1695,7.58423C111.92618,60.45879,111.39284,60.58948,110.7013,60.37317Z"/><path class="cls-13" d="M100.04754,52.194a9.436,9.436,0,0,0,.39261,2.6282,9.50409,9.50409,0,0,0-3.97791,3.08727,12.99508,12.99508,0,0,0-1.65654,4.51516C94.06749,57.36558,95.94878,53.77842,100.04754,52.194Z"/><path class="cls-14" d="M105.98216,57.90592a1.70058,1.70058,0,0,1-.30993,2.48641,1.77176,1.77176,0,0,1-2.17648-2.79633A1.76148,1.76148,0,0,1,105.98216,57.90592Z"/><path class="cls-15" d="M110.7013,60.37317c.50708-.21073,1.01415-.42146,1.49984-.6163a7.9728,7.9728,0,0,1-2.21933,6.39307A10.03914,10.03914,0,0,0,110.7013,60.37317Z"/><path class="cls-12" d="M128.43506,43.41913a8.6735,8.6735,0,0,1,11.97154,7.76444,1.32632,1.32632,0,0,1-1.97392.60344c-2.1354-4.75126-4.6376-6.24392-9.57324-5.69691C127.80811,45.3447,127.46056,44.47472,128.43506,43.41913Z"/><path class="cls-13" d="M128.43506,43.41913a3.13723,3.13723,0,0,0,.38711,2.66546,8.72637,8.72637,0,0,0-5.795,5.46544C122.6597,48.10687,124.9069,44.87834,128.43506,43.41913Z"/><path class="cls-16" d="M134.02879,49.1188a1.64505,1.64505,0,0,1-.30993,2.48641,1.55966,1.55966,0,0,1-2.42225-.35757,1.51753,1.51753,0,0,1,.31968-2.29458A1.587,1.587,0,0,1,134.02879,49.1188Z"/><path class="cls-17" d="M138.39542,51.78151a4.74624,4.74624,0,0,0,1.97392-.60344,8.15342,8.15342,0,0,1-3.0264,6.95933A9.46926,9.46926,0,0,0,138.39542,51.78151Z"/><path class="cls-18" d="M121.98405,63.90451a16.70767,16.70767,0,0,1-1.92866.03895c-.6549-.07764-1.66719-.05572-1.749-.79127-.10257-.85285.66173-1.38734,1.55734-1.52167C120.83077,62.17309,121.93711,62.54583,121.98405,63.90451Z"/><path class="cls-19" d="M118.28235,66.0235c1.04219.42039,1.85591.71186,2.63724,1.09374.303.13992.86749.18517.65179.74354a.85623.85623,0,0,1-.95063.507A2.46027,2.46027,0,0,1,118.28235,66.0235Z"/><path class="cls-7" d="M118.67507,107.47178c-.47736-5.02054-2.647-9.28186-5.43492-13.48212-2.68223-4.01331-5.81289-7.82628-9.92966-10.376-1.16863-.72464-2.42829-1.34848-3.65069-1.96682-2.57247-1.27457-5.12357-2.565-7.696-3.83958a.64078.64078,0,0,0-.25536-.07577c-.15456.01526-.23521.1747-.29448.31826-.43752,1.28717.37123,2.64408,1.15434,3.78777a21.90748,21.90748,0,0,0,3.9474,4.59989c1.17288.95374,2.51746,1.64723,3.73861,2.53193a28.70652,28.70652,0,0,1,6.21864,6.49634c2.17587,2.92951,4.25945,6.22618,4.19992,9.8538-.05767,3.22808,1.03376,6.79714-.66235,9.5168-.82667,1.344,1.695,4.38163,4.18634,3.62611C116.84276,117.69167,119.18721,113.03055,118.67507,107.47178Z"/><path class="cls-20" d="M121.98405,63.90451a10.01885,10.01885,0,0,0-2.12032-2.274,2.84448,2.84448,0,0,1,2.53947,1.49816C122.73122,63.615,122.6976,63.97177,121.98405,63.90451Z"/><path class="cls-6" d="M90.29,107.71766c-4.48384-3.8033-9.40679-9.40395-10.514-14.15574a13.08505,13.08505,0,0,1,.22944-4.64967A12.60786,12.60786,0,0,1,81.544,85.71239c.91771-1.44475,1.9009-4.36486,8.77061-3.82673,4.66494.384,11.08418,3.84473,14.753,8.78427,8.67169,11.67528,8.21723,18.881,7.19668,22.957-.3746,1.50588-1.46586,3.61041-3.38353,3.57483a28.61821,28.61821,0,0,1-6.20373-1.69638A47.012,47.012,0,0,1,90.29,107.71766Z"/><path class="cls-3" d="M110.95234,119.23418a1.32161,1.32161,0,0,1-1.71811-1.99964c.26853-.27412,6.63044-7.00683-1.53676-20.05469A30.63587,30.63587,0,0,0,84.99793,82.7341a1.32168,1.32168,0,0,1,.10844-2.64114,32.72455,32.72455,0,0,1,24.8311,15.68389c9.34205,14.92445,1.49765,22.99622,1.15893,23.33261A1.33933,1.33933,0,0,1,110.95234,119.23418Z"/><path class="cls-5" d="M86.489,90.00262c5.53783,1.69327,9.86463,6.04454,13.22553,10.74825a20.20326,20.20326,0,0,1,3.46276,6.85108,8.86543,8.86543,0,0,1-1.25966,7.37244c-.82543,1.0776-6.646-1.66647-7.57394-2.60308-5.339-5.49071-10.1931-8.72039-14.78855-14.8629C75.66891,92.36543,81.16929,88.37962,86.489,90.00262Z"/><path class="cls-5" d="M104.79252,116.52207a8.96191,8.96191,0,0,0,1.0106-1.94508l.19431-.54248.14117-.56937a2.00245,2.00245,0,0,0,.1039-.57486c.0275-.18633.07639-.38854.1039-.57487a16.99848,16.99848,0,0,0-.07356-4.78959,23.73632,23.73632,0,0,0-3.57988-9.153,28.54452,28.54452,0,0,0-3.09277-3.94064,34.75889,34.75889,0,0,0-3.76665-3.37377,37.75052,37.75052,0,0,0-8.90557-4.932,38.4784,38.4784,0,0,1,9.29171,4.37975,32.4159,32.4159,0,0,1,4.09779,3.19419,28.40966,28.40966,0,0,1,3.49781,3.90524,25.809,25.809,0,0,1,4.473,9.55141,19.02872,19.02872,0,0,1,.43823,5.41459,11.95388,11.95388,0,0,1-1.63951,5.43154Z"/><path class="cls-8" d="M161.261,81.31618c-1.30659,6.01376-4.711,10.63265-8.94576,9.39827-2.89934-.86589-2.59713-6.26637-.81159-12.17135,1.80143-5.8836,4.384-9.06262,7.416-9.22428C162.10072,69.17916,162.38243,76.1699,161.261,81.31618Z"/><path class="cls-3" d="M108.67756,119.16057a1.20638,1.20638,0,0,1-.99171.20876C83.53988,113.87082,75.47305,90.544,75.39407,90.309a1.21143,1.21143,0,0,1,2.297-.7707c.07538.22248,7.74047,22.27817,30.533,27.46939a1.21063,1.21063,0,0,1,.45352,2.15287Z"/><path class="cls-5" d="M159.07148,81.31663c-1.397,5.98137-4.72988,10.11581-7.09713,9.38558s-2.85374-6.07578-1.05231-11.95939,5.00289-9.25684,7.52843-9.34095C160.15555,69.32991,160.26743,76.18135,159.07148,81.31663Z"/><path class="cls-5" d="M158.89375,48.6008c.24861.3794.42819.71053.62366,1.063l.5864,1.05754c.36955.72091.72322,1.42043,1.0555,2.13584.66457,1.43082,1.28637,2.8934,1.82814,4.38225a54.69258,54.69258,0,0,1,2.4558,9.15844,45.66068,45.66068,0,0,1,.6218,9.45887,42.71566,42.71566,0,0,1-1.43392,9.32675,43.44842,43.44842,0,0,1-8.86137,16.436,63.81257,63.81257,0,0,1-14.08867,12.12318,64.36533,64.36533,0,0,0,13.55781-12.52521,42.30019,42.30019,0,0,0,8.083-16.32246,39.72947,39.72947,0,0,0,1.08629-9.03538,44.4553,44.4553,0,0,0-.91141-9.04469,51.08418,51.08418,0,0,0-2.63911-8.69049c-.57416-1.39843-1.207-2.78649-1.88253-4.14277q-.50668-1.01723-1.07751-1.98678c-.17958-.33113-.38055-.64638-.58152-.96163s-.40193-.6305-.587-.92436Z"/><path class="cls-8" d="M150.15181,101.11392a6.49285,6.49285,0,0,0,2.51037-1.4,7.86051,7.86051,0,0,0,1.76816-2.176l.33849-.61639c.10753-.21259.17781-.43069.28534-.64328a11.04444,11.04444,0,0,0,.443-1.32443,1.043,1.043,0,0,0,.08677-.32989l.07089-.35127.12041-.68666.16627-1.38432.011-.07454a.886.886,0,1,1,1.76248.184.368.368,0,0,1-.03789.12768l-.39049,1.4845-.25908.72331-.12954.36165a1.98665,1.98665,0,0,1-.14543.34027,13.43231,13.43231,0,0,1-.699,1.38185c-.12892.22847-.25783.45694-.40264.664l-.47167.61576a8.90929,8.90929,0,0,1-2.24161,2.02991A6.912,6.912,0,0,1,150.15181,101.11392Z"/><path class="cls-8" d="M151.40455,88.37152a12.08179,12.08179,0,0,0,1.599-2.44843,13.38419,13.38419,0,0,0,1.02471-2.68552c.12466-.45757.1748-.92613.27807-1.36782l.04587-.69766a4.15033,4.15033,0,0,0,.02449-.68178,11.516,11.516,0,0,0-.34435-2.69723l-.01038-.05864a1.10885,1.10885,0,1,1,2.16513-.48.66773.66773,0,0,1,.02564.21321,12.20568,12.20568,0,0,1-.20673,3.20607,3.47225,3.47225,0,0,1-.16867.75569l-.20594.75019a13.81328,13.81328,0,0,1-.57681,1.457,14.269,14.269,0,0,1-1.5837,2.603A12.2426,12.2426,0,0,1,151.40455,88.37152Z"/><path class="cls-8" d="M99.21529,102.71432a22.44576,22.44576,0,0,0-2.53325-2.83,27.00751,27.00751,0,0,0-2.88151-2.4054A20.09109,20.09109,0,0,0,90.65018,95.605l-.8186-.38739c-.28713-.11854-.55837-.21569-.8296-.31285l-.4148-.15643-.4203-.11916-.84061-.23832-.09041-.03239a1.327,1.327,0,1,1,.6832-2.56457c.07453.011.14355.05927.21809.07027l.92489.44116.46244.22057.457.25785c.2975.17718.57912.333.87662.51018l.82837.57921A21.86573,21.86573,0,0,1,94.695,96.44963a31.75219,31.75219,0,0,1,2.51125,2.979A30.17874,30.17874,0,0,1,99.21529,102.71432Z"/><path class="cls-8" d="M98.30716,106.6736a29.74123,29.74123,0,0,0-2.4691-2.87761,24.47607,24.47607,0,0,0-2.85463-2.45854A21.44727,21.44727,0,0,0,89.84408,99.389l-.8186-.38739c-.28713-.11853-.55837-.21569-.84549-.33423l-.41479-.15643-.42031-.11916-.85648-.25971L86.398,98.0997a1.10275,1.10275,0,0,1,.61718-2.11739c.05315.02689.09042.03239.14356.05927l.9304.40389.46244.22058.44106.23646c.29751.17719.60051.31711.87663.51018l.83386.54195a19.12239,19.12239,0,0,1,3.01407,2.5392,26.93188,26.93188,0,0,1,2.53813,2.92587A30.20722,30.20722,0,0,1,98.30716,106.6736Z"/><path class="cls-8" d="M149.10864,97.47583a4.09463,4.09463,0,0,0,1.52735-.80262,4.82035,4.82035,0,0,0,1.082-1.26818l.18819-.372a2.66153,2.66153,0,0,0,.1723-.39341c.113-.24986.17293-.5266.27009-.79784a6.1025,6.1025,0,0,0,.15828-.81434l.08376-.82534.00551-.03727a.5277.5277,0,1,1,1.04893.11676l-.011.07454-.24382.87787c-.11854.28712-.19981.57974-.31835.86686a7.89063,7.89063,0,0,1-.42465.8131,2.77431,2.77431,0,0,1-.24684.38242l-.28411.37691a5.16665,5.16665,0,0,1-1.37465,1.18691A3.14489,3.14489,0,0,1,149.10864,97.47583Z"/><path class="cls-8" d="M114.16477,41.94085a8.71719,8.71719,0,0,1,.87991-2.47842,11.706,11.706,0,0,1,1.47-2.22,13.81438,13.81438,0,0,1,4.11784-3.39027,11.778,11.778,0,0,1,1.228-.58028c.42155-.1472.84859-.33167,1.26464-.4416a13.33565,13.33565,0,0,1,2.61293-.54718,12.86621,12.86621,0,0,1,5.20253.48241c-1.71182.37558-3.30634.7304-4.88009,1.20252a3.77149,3.77149,0,0,0-.58161.19972c-.18145.06841-.37877.11544-.56022.18385-.38428.1527-.76306.26813-1.11007.42633-.74718.28952-1.4467.64319-2.14623.99686a23.48576,23.48576,0,0,0-3.93328,2.656A36.88394,36.88394,0,0,0,114.16477,41.94085Z"/><path class="cls-8" d="M91.74762,44.191A8.557,8.557,0,0,1,93.52,42.24413a12.51369,12.51369,0,0,1,2.19635-1.46542,13.53417,13.53417,0,0,1,5.11593-1.51041c.46369-.04578.90049-.03842,1.34281-.06832.45268.02875.91087.02022,1.34217.06486a13.72342,13.72342,0,0,1,2.608.51825,13.37311,13.37311,0,0,1,4.62323,2.47212c-1.7246-.3117-3.3374-.60689-4.95081-.7689-.18633-.02751-.394-.03913-.60176-.05075s-.394-.03913-.60175-.05075c-.39954-.00187-.79357-.041-1.19312-.04286a19.65832,19.65832,0,0,0-2.37647.10612,23.5429,23.5429,0,0,0-4.66564.91052A32.35619,32.35619,0,0,0,91.74762,44.191Z"/><path class="cls-7" d="M154.68213,64.10494h0l-.08.02626c-.05865.01038-.08.02626-.13868.03664-.10142.04215-.19733.047-.29875.08918a4.43581,4.43581,0,0,0-.65126.28464,6.69045,6.69045,0,0,0-.64088.34328c-.19244.14294-.41666.24312-.63049.40194l-.59874.4447a22.65524,22.65524,0,0,0-1.16081,1.02808l-.55659.54612c-.37452.34453-.72277.76909-1.06553,1.15638-.18206.20159-.34275.3873-.50893.61027l-.49306.63165-.49306.63165-.23583.30788-.22.32927-.9012,1.33295a6.20188,6.20188,0,0,0-.424.67992l-.40814.7013c-.25785.457-.553.90839-.79491,1.38672l-.74176,1.4136c-.242.47833-.52119.95116-.72588,1.435l-.67273,1.46187c-.22607.49971-.468.978-.65684,1.48325l-1.22328,2.9989.97342-3.11193c.15155-.51072.36174-1.03181.52917-1.52114l.55056-1.537c.17293-.5266.399-1.02631.6037-1.51014l.641-1.50464c.2102-.5211.468-.978.69412-1.47775l.355-.72818a6.49008,6.49008,0,0,1,.37639-.74407l.78453-1.44537.20407-.35065.20407-.35066.44541-.6958.4454-.6958c.16619-.223.33238-.44594.48268-.6903.33237-.44594.64886-.91327,1.013-1.31644l.55171-.642c.16619-.223.38552-.41906.56759-.62066.20345-.21747.38552-.41906.60485-.61514l.63662-.57238c.21934-.19609.47043-.34941.68977-.5455.23521-.1747.48631-.328.75879-.49723.2511-.15332.53947-.30114.80644-.43307.14419-.07392.30425-.12644.44843-.20035l.2401-.07879.13868-.03664a1.29911,1.29911,0,0,0,.19733-.047,1.04045,1.04045,0,0,1,1.248.83155,1.05566,1.05566,0,0,1-.59146,1.16925Z"/><path class="cls-7" d="M89.36272,66.66643a.02608.02608,0,0,1-.0055.03727l.01038.05865.02076.11729.07879.2401a3.11606,3.11606,0,0,0,.21073.50708,8.169,8.169,0,0,0,.51737,1.00927,13.10732,13.10732,0,0,0,1.3231,1.87073,12.51274,12.51274,0,0,0,3.705,2.88869,13.87844,13.87844,0,0,0,2.24383.92144c.383.11366.782.2487,1.17049.32509l.60663.14667.61213.1094a24.62584,24.62584,0,0,0,4.97956.31623,24.02216,24.02216,0,0,1-5.04132.36l-.64451-.019c-.20771-.01162-.43131-.04462-.639-.05625-.43131-.04463-.85711-.12653-1.267-.187a15.27541,15.27541,0,0,1-2.52731-.6777,14.4332,14.4332,0,0,1-4.57434-2.67433,13.06019,13.06019,0,0,1-1.8552-2.00639,12.03941,12.03941,0,0,1-.78311-1.1437c-.12155-.20833-.22723-.39528-.34879-.60361a1.55892,1.55892,0,0,0-.1637-.30975l-.0684-.18145-.04215-.10141-.058-.1228a1.33517,1.33517,0,0,1,2.53963-.82454Z"/><path class="cls-3" d="M42.028,63.93366A24.53149,24.53149,0,0,1,23.72584,19.17631c.54132-.33991.6927-.60988.48813-1.23617a10.3313,10.3313,0,0,1-.15241-5.51124c.21375-.9537.64271-1.10185,1.407-.47031a24.56844,24.56844,0,0,0,2.48635,1.75527,11.07689,11.07689,0,0,0,7.38649,1.74831,22.3125,22.3125,0,0,1,12.14116,2.23349,4.06492,4.06492,0,0,0,3.65281-.15752,22.872,22.872,0,0,0,3.67889-2.04838c.81383-.56612,1.21829-.37385,1.33449.62058a10.45254,10.45254,0,0,1-.98835,6.24544.85952.85952,0,0,0,.13732,1.15746,24.368,24.368,0,0,1,2.1419,30.01033A24.12334,24.12334,0,0,1,42.028,63.93366Z"/><path class="cls-4" d="M27.00971,23.66466a8.423,8.423,0,0,1,10.37705.97917,12.82485,12.82485,0,0,1,1.83251,2.09145c.62627.89865.75213.8995,1.62781.16646a8.06636,8.06636,0,0,1,7.25837-2.09237,9.461,9.461,0,0,1,6.206,5.08853c2.31767,4.15161,2.72284,8.63092,2.08882,13.278-.06354.41865-.17116.56749-.63559.48588-.69809-.1291-3.26086.2268-6.63228,2.79555-2.68817,2.04469-4.58888,3.92-6.48046,5.31844-2.19079,1.63045-4.26987,2.28726-3.85781,2.45,2.273.89346,4.42928.20608,4.47523.41963.16943.78747-1.19267,2.505-3.28311,4.40706a13.299,13.299,0,0,1-4.90157,2.85608,9.97223,9.97223,0,0,1-5.47508.06084c-1.45817-.28675-8.11936-2.42851-7.88829-6.61181.11088-1.951,2.81648-10.535,1.14119-16.17937a13.66751,13.66751,0,0,1-.16441-5.04781c-.21231-1.89543.57294-1.29632.96613-3.16841a22.44418,22.44418,0,0,1,2.30157-5.98337A4.921,4.921,0,0,1,27.00971,23.66466Z"/><path class="cls-5" d="M54.993,17.09915a8.46471,8.46471,0,0,1-1.30476,5.2941c-.17048.24615-.134.54552-.26443.78306a1.5848,1.5848,0,0,0,.3451,2.18805,26.78714,26.78714,0,0,1,5.28258,8.0662,11.98375,11.98375,0,0,1,.76561,2.19532c.063.09816.16489-.07738.0696-.001-.03717.022-.08008.01723-.07535-.02569-.02245-.62358-.65125-1.14463-.29425-1.82193a8.24191,8.24191,0,0,1,.62466,3.5523c.00777.16591.02888.32894.03665.49485-.46835.93866-1.30525,4.70768-2.39209,4.91359a23.9506,23.9506,0,0,0-.50981-8.73,16.53768,16.53768,0,0,0-4.43294-8.0116,9.14878,9.14878,0,0,0-7.83435-2.53173,8.86266,8.86266,0,0,0-4.33879,1.96693c-.4974.41424-.70824.27807-1.05473-.16408a10.096,10.096,0,0,0-7.34656-4.15885,16.0675,16.0675,0,0,0-1.68389.02716,6.31414,6.31414,0,0,0-1.80285.31807c-.59487.15592-.76955-.07182-.7719-.602.00169-.25173.00339-.50346.01843-.75806a4.9965,4.9965,0,0,0-.99061-3.306c-.31119-.40785-.753-.77363-.743-1.37627.30479-.40073.55584-.0777.7486.10427a8.93247,8.93247,0,0,0,7.42889,2.26985,23.29847,23.29847,0,0,1,11.87389,1.9c3.1287,1.36569,5.54821.73339,7.82113-1.8783C54.43459,17.55445,54.63074,17.233,54.993,17.09915Z"/><path class="cls-6" d="M26.40867,15.28942a2.4179,2.4179,0,0,0,.759,1.19127,5.38484,5.38484,0,0,1,1.11611,4.01911c-.07166.965-.04783.94594.9351.77634.45667-.08429.89983-.36118,1.393-.1461a12.508,12.508,0,0,0-8.35255,4.92525A20.41185,20.41185,0,0,0,17.8992,36.685a2.52213,2.52213,0,0,1-1.25686,2.14171A6.023,6.023,0,0,0,13.67652,42.956a9.1699,9.1699,0,0,1-.20334-2.56766A23.54345,23.54345,0,0,1,25.00036,19.90755c.95592-.55479,1.05679-.79993.60015-1.81887a8.08019,8.08019,0,0,1-.43846-4.37439c.04259-.38621.13889-.393.37558-.13667C25.71264,14.19631,26.43285,14.55805,26.40867,15.28942Z"/><path class="cls-7" d="M27.00971,23.66466a23.84037,23.84037,0,0,0-2.9789,6.72959,34.73443,34.73443,0,0,0-1.38269,6.74923c.39052,2.91841.03039.985-.97974.57389a4.96167,4.96167,0,0,0-2.17316-.105c-.26221.01452-.43859.03851-.39026-.321.75721-5.5673,2.81851-10.39575,7.74746-13.57892C26.88672,23.67716,26.943,23.679,27.00971,23.66466Z"/><path class="cls-8" d="M26.40867,15.28942c-.26557-.58524-.92192-.97469-.88726-1.72227A19.065,19.065,0,0,0,30.59363,16.372a10.07527,10.07527,0,0,0,4.5886.29748,21.55931,21.55931,0,0,1,11.1807,1.92345,6.00771,6.00771,0,0,0,5.57425-.05424c.80825-.39734,1.61938-.78134,2.39993-1.24254.18585-.10981.34483-.40935.653-.21032a8.15288,8.15288,0,0,1-5.03355,3.54082,4.63886,4.63886,0,0,1-3.08885-.46655A21.6697,21.6697,0,0,0,38.03048,17.9c-1.59334-.0063-3.18466.12661-4.78561.14988a8.40135,8.40135,0,0,1-6.52619-2.61768A1.42531,1.42531,0,0,0,26.40867,15.28942Z"/><path class="cls-6" d="M60.19173,37.82153a6.98147,6.98147,0,0,0-2.401,4.4826,9.02294,9.02294,0,0,1-.7654,2.60853c-.04377.12113-.11135.26136-.2286.30055A.49147.49147,0,0,1,56.483,45.183a5.19939,5.19939,0,0,0-4.04343.54879,27.39755,27.39755,0,0,0-3.81187,2.66352c-2.03822,1.62555-3.57351,3.7713-6.5264,5.10489a7.73991,7.73991,0,0,0,2.96435-.177c-.06138,1.85655-1.4678,5.3152-5.68209,7.92566-.44316.27689-1.44773.80026-1.888,1.0905-.10863.07923-.24109.17755-.25529.30629a.4001.4001,0,0,0,.11657.28214c.46577.54217,4.13617-.24755,4.8216-.43693,4.5959-1.22625,6.79106-2.18733,9.24272-4.29285a33.42,33.42,0,0,0,5.92044-6.81787,27.65776,27.65776,0,0,0,2.46683-6.773A17.33738,17.33738,0,0,0,60.19173,37.82153Z"/><path class="cls-8" d="M59.53042,33.77438l.425,1.97534c-.9322-1.86622-1.71758-3.764-2.7851-5.54527a23.84563,23.84563,0,0,0-3.68461-4.79314,1.64057,1.64057,0,0,1-.387-2.12317c.08667-.1164.15712-.24328.325-.11183.12146.4347.505.65942.77984.96336A22.71076,22.71076,0,0,1,59.53042,33.77438Z"/><path class="cls-3" d="M26.1221,28.36626c1.57891-3.56558,5.24781-5.01133,8.392-3.31383a5.81474,5.81474,0,0,1,.6309,9.877c-.20392.15559-.41071.29784-.61751.44009a5.884,5.884,0,0,1-8.31027-2.66674A5.51037,5.51037,0,0,1,26.1221,28.36626Z"/><path class="cls-3" d="M40.93056,32.09265a5.80269,5.80269,0,0,1,3.597-5.28457,5.70841,5.70841,0,0,1,6.72845,1.6106,5.88579,5.88579,0,0,1,.41575,6.865l-.27235.42169a5.84554,5.84554,0,0,1-10.139-1.36555A6.04553,6.04553,0,0,1,40.93056,32.09265Z"/><path class="cls-3" d="M36.06426,36.08625A3.94381,3.94381,0,0,1,37.176,33.7244c1.17472-1.16046,2.56988-.97188,3.70195.46032.04393.07434.06876.12486.09359.17537a2.85325,2.85325,0,0,1,.26472.71111,3.79043,3.79043,0,0,1,.01263,1.42169c-.07215.37861-.17961.72292-.60671.81482-.49671.0929-.19684.64283-.50467.83475a2.00709,2.00709,0,0,1-2.29146.96783A2.20115,2.20115,0,0,1,36.131,37.17512,5.3978,5.3978,0,0,1,36.06426,36.08625Z"/><path class="cls-7" d="M26.1221,28.36626a6.15045,6.15045,0,0,0,.88158,5.20073,5.811,5.811,0,0,0,6.96142,1.97942c.18111-.0669.37844-.12332.56242-.17687a5.248,5.248,0,0,1-5.38876.65671,5.68165,5.68165,0,0,1-3.33092-7.17343C25.87442,28.643,25.91717,28.45225,26.1221,28.36626Z"/><path class="cls-9" d="M40.93056,32.09265a10.43323,10.43323,0,0,0,.598,2.45482A5.80571,5.80571,0,0,0,50.7782,36.258c.19531-.19564.40971-.36745.61837-.566a4.66,4.66,0,0,1-3.1484,2.437,5.71966,5.71966,0,0,1-6.92725-3.31343C41.29321,34.75172,40.65938,32.77941,40.93056,32.09265Z"/><path class="cls-10" d="M41.59364,45.10482c-1.15071.23362-2.84437-1.14757-2.79754-2.16312.014-.32421.24465-.48554.508-.235a3.696,3.696,0,0,0,3.57744.92c.14681-.03159.2889-.02026.35.13416a.31807.31807,0,0,1-.14463.36627A4.01243,4.01243,0,0,1,41.59364,45.10482Z"/><path class="cls-10" d="M33.91505,42.97248c-1.14953.4987-2.37706-1.05261-2.662-2.05261a.39652.39652,0,0,1,.08938-.29853c.15341-.13076.3232-.05558.44822.07114a3.24461,3.24461,0,0,0,3.34564.81628c.184-.05355.41949-.06233.5217.15308.10508.22876-.10746.34431-.2313.48267A2.437,2.437,0,0,1,33.91505,42.97248Z"/><path class="cls-10" d="M37.07628,46.76105A2.55277,2.55277,0,0,1,34.28736,44.638a.39149.39149,0,0,1,.08938-.29853c.12959-.11167.27555-.01739.37861.07215a3.784,3.784,0,0,0,3.59551.87424c.13347-.02872.29363-.06318.35766.10458.06115.15442-.05509.26322-.14463.36628A5.00734,5.00734,0,0,1,37.07628,46.76105Z"/><path class="cls-10" d="M40.18024,50.47814a2.55277,2.55277,0,0,1-2.78892-2.12307.39159.39159,0,0,1,.08938-.29853c.12959-.11167.27556-.01739.37861.07216a3.784,3.784,0,0,0,3.59551.87423c.13347-.02871.29364-.06317.35766.10459.06116.15442-.05508.26322-.14463.36628A4.89657,4.89657,0,0,1,40.18024,50.47814Z"/><path class="cls-10" d="M33.25394,49.44078A2.55277,2.55277,0,0,1,30.465,47.31771a.39157.39157,0,0,1,.08938-.29853c.12959-.11167.27556-.01739.37861.07215a3.784,3.784,0,0,0,3.59551.87424c.13347-.02872.29364-.06318.35766.10459.06116.15442-.05508.26322-.14463.36627A5.39,5.39,0,0,1,33.25394,49.44078Z"/><path class="cls-10" d="M36.32243,52.92811A2.55277,2.55277,0,0,1,33.53351,50.805a.39157.39157,0,0,1,.08938-.29853c.12959-.11167.27556-.0174.37861.07215a3.784,3.784,0,0,0,3.59551.87424c.13347-.02872.29364-.06318.35766.10459.06115.15441-.05508.26321-.14463.36627A5.00721,5.00721,0,0,1,36.32243,52.92811Z"/><path class="cls-10" d="M37.31758,57.09893a2.187,2.187,0,0,1-2.372-1.8078.35334.35334,0,0,1,.0713-.25274c.10577-.09258.23552-.00878.31948.05694a3.17805,3.17805,0,0,0,3.05.74025c.12012-.02585.25359-.05457.31187.08651.05542.12772-.037.21743-.12942.30714A3.60743,3.60743,0,0,1,37.31758,57.09893Z"/><path class="cls-10" d="M32.65281,55.79841a2.187,2.187,0,0,1-2.372-1.8078.35329.35329,0,0,1,.07131-.25274c.10576-.09258.23551-.00878.31948.05694a3.178,3.178,0,0,0,3.05.74025c.12012-.02585.25359-.05457.31188.08651.05541.12772-.037.21743-.12943.30714A3.92323,3.92323,0,0,1,32.65281,55.79841Z"/><path class="cls-10" d="M34.07239,58.95625A1.98217,1.98217,0,0,1,31.917,57.31131a.29959.29959,0,0,1,.0637-.22317c.09241-.08971.20594-.01638.28991.04934a2.90943,2.90943,0,0,0,2.77054.67469c.10678-.023.2269-.04882.28231.0789.05254.11438-.03988.20409-.10847.27471A3.72806,3.72806,0,0,1,34.07239,58.95625Z"/><path class="cls-11" d="M36.06426,36.08625a4.21641,4.21641,0,0,1,.11013.57679c.14085,1.9527,2.16243,3.2354,3.96025,1.46607a2.06769,2.06769,0,0,1-2.16239,1.373,2.08972,2.08972,0,0,1-1.88946-1.772A2.37779,2.37779,0,0,1,36.06426,36.08625Z"/><path class="cls-12" d="M35.16051,31.75611c.1131-2.71954-.95984-4.13653-3.61213-4.7808a1.00582,1.00582,0,0,1,.3746-1.3095,4.46493,4.46493,0,0,1,4.06808,6.12107A.54257.54257,0,0,1,35.16051,31.75611Z"/><path class="cls-13" d="M31.92585,25.67916a4.83635,4.83635,0,0,0-.37459,1.30949,4.87128,4.87128,0,0,0-2.51108.59615,6.66055,6.66055,0,0,0-1.73109,1.755C28.03834,26.82282,29.67734,25.54849,31.92585,25.67916Z"/><path class="cls-14" d="M33.48242,29.60351a.87163.87163,0,0,1-.67227,1.09425.90812.90812,0,0,1-.422-1.76653A.90284.90284,0,0,1,33.48242,29.60351Z"/><path class="cls-15" d="M35.16051,31.75611c.2813.0093.56259.0186.83054.03077a4.08644,4.08644,0,0,1-2.39219,2.51167A5.14553,5.14553,0,0,0,35.16051,31.75611Z"/><path class="cls-12" d="M47.03221,27.60981A4.44558,4.44558,0,0,1,50.96969,33.773a.6798.6798,0,0,1-1.049-.13739c.01207-2.66987-.83854-3.89729-3.25734-4.68956C46.33106,28.37512,46.35354,27.89548,47.03221,27.60981Z"/><path class="cls-13" d="M47.03221,27.60981a1.608,1.608,0,0,0-.38507,1.32572,4.47266,4.47266,0,0,0-3.86352,1.32A4.1645,4.1645,0,0,1,47.03221,27.60981Z"/><path class="cls-16" d="M48.43234,31.4561a.84316.84316,0,0,1-.67227,1.09425.79939.79939,0,0,1-1.05421-.68088.77781.77781,0,0,1,.63611-1.00269A.81342.81342,0,0,1,48.43234,31.4561Z"/><path class="cls-17" d="M49.90448,33.62509a2.43268,2.43268,0,0,0,1.049.13738,4.179,4.179,0,0,1-2.8889,2.60458A4.85342,4.85342,0,0,0,49.90448,33.62509Z"/><path class="cls-18" d="M39.675,35.79813a8.562,8.562,0,0,1-.90808-.39114c-.28906-.1752-.766-.37981-.64806-.74034.13315-.41966.60316-.50683,1.04951-.37943C39.5044,34.74559,39.94145,35.15428,39.675,35.79813Z"/><path class="cls-19" d="M37.49828,36.00115c.397.41731.7148.726.99828,1.07.11167.12958.36543.27049.14629.48522a.43885.43885,0,0,1-.5511.03479A1.261,1.261,0,0,1,37.49828,36.00115Z"/><path class="cls-7" d="M28.88513,55.42206a14.97236,14.97236,0,0,0,.32561-7.44347,17.4,17.4,0,0,0-2.43062-6.94819c-.39143-.58609-.84673-1.14447-1.28581-1.69238-.92968-1.14059-1.846-2.28405-2.77571-3.42464-.03531-.0343-.05726-.07147-.103-.08955-.07535-.02568-.14682.03159-.20494.086a2.3278,2.3278,0,0,0-.2653,2.01216,11.22848,11.22848,0,0,0,.86543,2.9838c.3448.69387.82493,1.30277,1.2069,1.97469a14.71327,14.71327,0,0,1,1.5226,4.3506c.39343,1.82853.66588,3.80877-.13176,5.48859-.712,1.49381-.96023,3.39057-2.32873,4.29947-.6709.45157-.13911,2.40394,1.18358,2.58019C25.86136,59.80126,27.94436,58.12418,28.88513,55.42206Z"/><path class="cls-20" d="M39.675,35.79813a5.13509,5.13509,0,0,0-.50663-1.51091,1.458,1.458,0,0,1,.86684,1.23791C40.085,35.82163,39.99363,35.98094,39.675,35.79813Z"/><path class="cls-6" d="M15.59,49.51275c-1.28477-2.726-2.393-6.38374-1.90108-8.83565a6.70682,6.70682,0,0,1,1.09382-2.1206,6.46208,6.46208,0,0,1,1.39689-1.16637c.73477-.47928,1.81319-1.633,4.904.076a11.767,11.767,0,0,1,5.01871,7.22922c1.568,7.28742-.1733,10.55278-1.51446,12.23782-.49436.62307-1.45011,1.37334-2.33724.94976a14.66788,14.66788,0,0,1-2.53432-2.108A24.09591,24.09591,0,0,1,15.59,49.51275Z"/><path class="cls-3" d="M22.78584,59.27081a.67739.67739,0,0,1-.3772-1.29755c.18345-.0709,4.58043-1.86186,3.53913-9.68259a15.70238,15.70238,0,0,0-7.52464-11.557.67743.67743,0,0,1,.61111-1.2092,16.7729,16.7729,0,0,1,8.25635,12.58706c1.19116,8.94558-4.18165,11.04665-4.41107,11.13171A.68589.68589,0,0,1,22.78584,59.27081Z"/><path class="cls-5" d="M17.57623,40.44119c2.22431,1.96525,3.31951,4.91358,3.88928,7.82135a10.35516,10.35516,0,0,1,.16157,3.93124A4.544,4.544,0,0,1,19.47477,55.366c-.61379.32757-2.747-2.188-2.98116-2.82184-1.32562-3.69475-2.90487-6.23171-3.74527-10.07275C12.02669,39.24725,15.43877,38.555,17.57623,40.44119Z"/><path class="cls-5" d="M20.48757,56.69822a4.59347,4.59347,0,0,0,.88429-.693l.20578-.21185.1867-.23568a1.02646,1.02646,0,0,0,.17047-.24615c.05238-.08109.1181-.16506.17048-.24615a8.71226,8.71226,0,0,0,.98215-2.25018,12.16589,12.16589,0,0,0,.27232-5.03006,14.63068,14.63068,0,0,0-.60661-2.49486,17.81675,17.81675,0,0,0-1.04133-2.3734,19.34887,19.34887,0,0,0-3.10817-4.191,19.72186,19.72186,0,0,1,3.40553,4.0153,16.61551,16.61551,0,0,1,1.23393,2.35989,14.56246,14.56246,0,0,1,.8031,2.56431,13.22837,13.22837,0,0,1,.05982,5.40546A9.75337,9.75337,0,0,1,23.16137,55.69a6.127,6.127,0,0,1-1.91761,2.18612Z"/><path class="cls-8" d="M54.30435,52.25705c-1.88586,2.52841-4.45441,3.96084-6.16817,2.48622-1.16891-1.01929.1182-3.47473,2.20443-5.85074,2.0891-2.36267,3.96866-3.29774,5.41754-2.7297C57.2719,46.77277,55.91972,50.09407,54.30435,52.25705Z"/><path class="cls-3" d="M21.74017,58.75371a.61834.61834,0,0,1-.507-.11307c-10.09831-7.6897-8.91133-20.28474-8.8983-20.41114a.62091.62091,0,0,1,1.23522.12792c-.01205.11979-1.11669,12.03653,8.41536,19.29562a.62051.62051,0,0,1-.2453,1.10067Z"/><path class="cls-5" d="M53.28274,51.79259c-1.92117,2.49411-4.35354,3.7157-5.303,2.87263s-.042-3.44028,2.04713-5.80295,4.29862-3.257,5.49475-2.76027C56.33239,46.43029,54.93054,49.65055,53.28274,51.79259Z"/><path class="cls-5" d="M60.14294,36.4914c.03547.22977.049.42237.06537.62832l.04914.61784c.01942.41477.036.81619.03916,1.22048.0064.80858-.0139,1.6229-.07711,2.4325a28.03215,28.03215,0,0,1-.79791,4.794,23.40306,23.40306,0,0,1-1.71731,4.545,21.894,21.894,0,0,1-2.64836,4.04706,22.26938,22.26938,0,0,1-7.62239,5.78757,32.70654,32.70654,0,0,1-9.14586,2.66606,32.98984,32.98984,0,0,0,8.98351-2.96628,21.681,21.681,0,0,0,7.23517-5.89977,20.36357,20.36357,0,0,0,2.42433-3.98489,22.78532,22.78532,0,0,0,1.4943-4.4132,26.18364,26.18364,0,0,0,.61307-4.61461c.02891-.77428.02826-1.55617.00091-2.33231q-.02051-.58212-.08106-1.15561c-.01351-.1926-.04037-.38233-.06722-.572s-.05372-.37946-.0777-.55584Z"/><path class="cls-8" d="M44.91981,59.136a3.328,3.328,0,0,0,1.46833-.12042,4.0286,4.0286,0,0,0,1.28672-.63994l.28873-.21573c.09529-.07636.17436-.1632.26965-.23956a5.66024,5.66024,0,0,0,.48776-.52389.53448.53448,0,0,0,.1105-.1355l.10762-.14884.2019-.2948.37137-.61057.02095-.03244a.45413.45413,0,1,1,.78322.4599.18838.18838,0,0,1-.04477.05153l-.49723.60972-.27437.28247-.1372.14124a1.01814,1.01814,0,0,1-.14006.12788,6.88508,6.88508,0,0,1-.61937.49636c-.10864.07923-.21727.15846-.32878.22435l-.35074.18718a4.56618,4.56618,0,0,1-1.47661.47132A3.54268,3.54268,0,0,1,44.91981,59.136Z"/><path class="cls-8" d="M48.20853,53.45691a6.19266,6.19266,0,0,0,1.26561-.803,6.86041,6.86041,0,0,0,1.048-1.03545c.15526-.187.2781-.395.42-.57914l.16947-.31575a2.12762,2.12762,0,0,0,.15611-.31289,5.90319,5.90319,0,0,0,.41177-1.33146l.0076-.02957a.56834.56834,0,1,1,1.112.23555.34236.34236,0,0,1-.03329.10491,6.25577,6.25577,0,0,1-.77686,1.45191,1.77961,1.77961,0,0,1-.23907.31677l-.25529.3063a7.08093,7.08093,0,0,1-.57832.55734,7.31341,7.31341,0,0,1-1.29129.87832A6.27513,6.27513,0,0,1,48.20853,53.45691Z"/><path class="cls-8" d="M20.81589,49.07262a11.50424,11.50424,0,0,0-.5813-1.85792,13.8411,13.8411,0,0,0-.83387-1.73376,10.29753,10.29753,0,0,0-1.07209-1.54286l-.2997-.35446c-.1088-.11624-.21473-.21913-.32066-.322l-.16032-.161-.1708-.14479-.34161-.28958-.03531-.0343a.68016.68016,0,1,1,.863-1.0515c.03243.02095.05439.05812.08683.07907l.33788.4021.16894.20105.15847.21727c.10119.14581.19952.27827.30071.42407l.26355.446a11.20732,11.20732,0,0,1,.85685,1.84053,16.27723,16.27723,0,0,1,.53939,1.92281A15.47068,15.47068,0,0,1,20.81589,49.07262Z"/><path class="cls-8" d="M19.55194,50.72709a15.2446,15.2446,0,0,0-.54125-1.86655,12.54508,12.54508,0,0,0-.81005-1.75285,10.99282,10.99282,0,0,0-1.05115-1.57529l-.2997-.35446c-.1088-.11624-.21473-.21913-.32352-.33537l-.16033-.161-.1708-.1448-.34447-.30293-.03532-.03429a.56521.56521,0,0,1,.73731-.85688c.01909.02382.03531.03429.0544.05812l.34836.38588.16894.20105.15559.20393c.1012.1458.21287.27539.30071.42406l.274.42981a9.80075,9.80075,0,0,1,.86732,1.82432,13.80271,13.80271,0,0,1,.56322,1.90372A15.483,15.483,0,0,1,19.55194,50.72709Z"/><path class="cls-8" d="M45.20522,57.21725a2.09859,2.09859,0,0,0,.88292-.05032,2.47027,2.47027,0,0,0,.77395-.362l.16676-.13363a1.36411,1.36411,0,0,0,.16388-.147c.10576-.09258.19244-.209.29533-.31491a3.12841,3.12841,0,0,0,.24667-.34633l.21424-.36729.01047-.01622a.27048.27048,0,1,1,.4646.27709l-.02095.03243-.30006.35783c-.11624.1088-.21626.22807-.3325.33687a4.04264,4.04264,0,0,1-.37068.28922,1.42014,1.42014,0,0,1-.19632.126l-.21254.11556a2.64827,2.64827,0,0,1-.89323.262A1.61188,1.61188,0,0,1,45.20522,57.21725Z"/><path class="cls-8" d="M40.68818,23.89161a4.4683,4.4683,0,0,1,.93651-.96957,6,6,0,0,1,1.157-.72373,7.08054,7.08054,0,0,1,2.64066-.70782,6.039,6.039,0,0,1,.69607-.01011c.22791.02078.46629.02535.68372.06236a6.83491,6.83491,0,0,1,1.33519.29924,6.59449,6.59449,0,0,1,2.32484,1.32918c-.87835-.18807-1.69757-.36092-2.532-.47465a1.93309,1.93309,0,0,0-.31373-.03025c-.09917-.00659-.20121-.02653-.30039-.03312-.21169-.01031-.4129-.03684-.60838-.03668-.41-.0235-.81145-.00695-1.21287.00959a12.03744,12.03744,0,0,0-2.39872.4044A18.90438,18.90438,0,0,0,40.68818,23.89161Z"/><path class="cls-8" d="M29.752,20.18391a4.38621,4.38621,0,0,1,1.24009-.53214,6.414,6.414,0,0,1,1.33571-.21757,6.93708,6.93708,0,0,1,2.70736.381c.22605.077.42828.17319.641.2531.2051.10949.42068.20275.61243.31511a7.03411,7.03411,0,0,1,1.10675.79527,6.85436,6.85436,0,0,1,1.63231,2.13452c-.73846-.51142-1.42826-.99142-2.14661-1.40942-.08109-.05237-.17553-.10188-.27-.15138s-.17554-.10188-.27-.15139c-.186-.08566-.36154-.18754-.54755-.2732a10.07639,10.07639,0,0,0-1.13126-.45484,12.06745,12.06745,0,0,0-2.37-.56536A16.58515,16.58515,0,0,0,29.752,20.18391Z"/><path class="cls-7" d="M54.88766,42.831h0l-.04292-.00473c-.02956-.00761-.04291-.00474-.07247-.01234-.05626-.00186-.102-.01994-.15831-.0218a2.27363,2.27363,0,0,0-.36425-.00541,3.429,3.429,0,0,0-.37185.02415c-.12012.02584-.246.025-.37946.05371l-.37371.08041a11.60854,11.60854,0,0,0-.75976.23329l-.37558.13667c-.24784.08126-.50042.20542-.74253.31338-.12772.05541-.2421.108-.367.1767l-.36408.19006-.36409.19-.17537.0936-.1725.10693-.70333.43063a3.17878,3.17878,0,0,0-.34213.22723l-.33925.24057c-.21727.15846-.45076.30645-.66516.47827l-.64607.50209c-.2144.17181-.445.33315-.6432.51544l-.6241.53926c-.21153.18516-.42593.357-.62123.55261l-1.20716,1.13951L45.12677,47.766c.17909-.20611.38774-.40461.5697-.59738l.58306-.60025c.19244-.209.404-.39414.60214-.57643L47.5,45.426c.20865-.19851.42592-.357.63745-.54214l.32016-.26439a3.3263,3.3263,0,0,1,.33351-.26726l.67276-.50784.16963-.12029.16963-.12028.35547-.2301.35547-.2301c.12485-.06875.2497-.13751.37169-.21962.2497-.13751.49654-.28838.752-.3992l.39366-.18245c.12485-.06876.26879-.11369.39652-.16911.14107-.05828.2688-.11369.41274-.15862l.41849-.13194c.14394-.04494.29363-.06318.43757-.10811.14682-.03159.29651-.04984.45954-.071.14969-.01824.3156-.026.46816-.0309.083-.00389.16877.00558.25173.00169l.12873.0142.07248.01233a.66459.66459,0,0,0,.10205.01994.53328.53328,0,0,1,.40579.65283.54108.54108,0,0,1-.52409.42Z"/><path class="cls-7" d="M23.86947,30.16363a.01336.01336,0,0,1-.01047.01622l-.00761.02956-.01521.05914-.01419.12873a1.59776,1.59776,0,0,0-.0093.2813,4.18924,4.18924,0,0,0,.02718.58067,6.718,6.718,0,0,0,.22028,1.15358,6.41326,6.41326,0,0,0,1.11549,2.134,7.11374,7.11374,0,0,0,.85131.90609c.15458.13432.312.282.47709.40008l.25189.19717.26238.18095a12.62161,12.62161,0,0,0,2.25608,1.20432,12.31174,12.31174,0,0,1-2.42842-.90191l-.29667-.14564c-.09444-.0495-.19175-.11235-.28619-.16186-.19175-.11235-.373-.24093-.55143-.35615a7.82984,7.82984,0,0,1-1.03529-.85254,7.39786,7.39786,0,0,1-1.56658-2.21849,6.694,6.694,0,0,1-.43973-1.3298,6.17238,6.17238,0,0,1-.12264-.69978c-.01249-.123-.02212-.23264-.03462-.35564a.79881.79881,0,0,0-.01064-.17925l.0066-.09917.00186-.05626-.001-.06961a.68434.68434,0,0,1,1.35984.15429Z"/></svg>