<?xml version="1.0" encoding="utf-8"?>
<!-- Generator: Adobe Illustrator 23.0.2, SVG Export Plug-In . SVG Version: 6.00 Build 0)  -->
<svg version="1.1" id="Layer_1" xmlns="http://www.w3.org/2000/svg" xmlns:xlink="http://www.w3.org/1999/xlink" x="0px" y="0px"
	 viewBox="0 0 202 134" style="enable-background:new 0 0 202 134;" xml:space="preserve">
<style type="text/css">
	.st0{fill:#49231A;}
	.st1{fill:#FAE0C5;}
	.st2{fill:#82574B;}
	.st3{fill:#694138;}
	.st4{fill:#C5A992;}
	.st5{fill:#BE8676;}
	.st6{fill:#C4A891;}
	.st7{fill:#C6AA93;}
	.st8{fill:#C4A892;}
	.st9{fill:#FDE29D;}
	.st10{fill:#FCC634;}
	.st11{fill:#F8F7F7;}
	.st12{fill:#F3BD33;}
	.st13{fill:#FBFBFB;}
	.st14{fill:#FAC434;}
	.st15{fill:#9E9394;}
	.st16{fill:#5B4D4B;}
	.st17{fill:#D3CDCD;}
	.st18{fill:none;stroke:#49231A;stroke-width:3.2363;stroke-linecap:round;stroke-miterlimit:10;}
	.st19{fill:none;stroke:#49231A;stroke-width:2.9666;stroke-linecap:round;stroke-miterlimit:10;}
	.st20{opacity:0.43;}
	.st21{opacity:0.85;}
	.st22{fill:url(#SVGID_1_);}
	.st23{fill:url(#SVGID_2_);}
	.st24{fill:url(#SVGID_3_);}
	.st25{fill:url(#SVGID_4_);}
</style>
<g class="st20">
	<g>
		<g>
			<path class="st3" d="M134.9,26.2c-1.1-0.3-1.4-0.8-1.5-1.9c-0.3-4.5-2.1-8.5-4.9-12c-1.3-1.6-2.2-1.5-3,0.3
				c-1.2,2.6-2.6,5.1-4.3,7.5c-1.5,2.2-3.4,3.9-6.2,4.2c-8.7,0.9-16.7,3.7-23.6,9c-4.5,3.4-9.3,4.9-14.8,4.8c-2.1,0-4.2-0.1-6.2-0.4
				c-2-0.3-2.6,0.4-2,2.3c1.2,3.7,3.2,6.9,6.1,9.5c1,0.9,1.1,1.5,0.5,2.7c-10.6,20.9-5,47,13.2,61.5c19.8,15.9,48.1,14.7,66.5-2.8
				c9.9-9.5,15.3-21,15.9-34.7C171.7,53.3,157.1,32.8,134.9,26.2z M157.8,59.4c0.3,0.8,0.3,1.2-0.6,1.5c-1.4,0.5-5.5,3.9-8.6,12
				c-2.5,6.4-3.8,11.7-5.7,16.2c-2.1,5.2-5,8.6-4.1,8.4c4.9-0.9,8-4.4,8.3-4c1.1,1.2,0.6,5.6-1,11.2c-1.1,3.8-2.9,7.3-5.5,10.2
				c-2.4,2.7-4.8,4.2-9.5,6c-1.9,0.7-8.5,2.4-14,1.3c-1-0.2-1.9-0.4-2.7-0.8c0.9-1.3,5.2-8.9-4.3-20.5c-7-8.7-17.8-10.4-23-11.1
				c-9.6-13.6-6.5-24.3-1.8-33.3c3.7-6.6,11.5-10.7,19.6-9.1c1.9,0.4,3.7,0.9,5.4,1.7c2.1,0.9,2.3,0.8,3-1.4
				c1.8-5.4,4.9-9.5,10.5-11.4c5.8-1.9,11.2-0.6,16.3,2.3C148.5,43.2,154,50.6,157.8,59.4z"/>
			<path class="st3" d="M100.2,51.1c-7.3,0.4-12.2,6.8-11.1,14.7c0.5,3.2,2.2,5.6,4.8,7.5c4.8,3.4,13.7,3,17.4-4.2
				c0.2-0.5,0.4-0.9,0.6-1.4C115.2,59.3,109.1,50.6,100.2,51.1z M100.6,62.8c-0.8-0.8-0.8-1.8,0-2.6c0.8-0.8,1.7-0.7,2.6,0
				c0.7,0.9,0.8,1.8,0,2.6C102.4,63.6,101.4,63.5,100.6,62.8z M110,61.3c0.6,2.5-0.1,4.8-1.5,6.9c0.6-2,0.6-4.1,0-6.1
				c-2.7-4.9-6.1-6.2-11.4-4.5c0,0,0,0,0,0c0,0,0,0,0,0c-1.5,1-2.9,2.1-3.7,3.7c-0.8,1.5-0.9,3.2-1.1,4.9c-1.4-5.1,0.1-9.1,4.2-11.3
				C101.8,51.7,108.9,54.9,110,61.3C110,61.3,110,61.3,110,61.3z"/>
			<path class="st3" d="M119.6,43.5c-3,4.2-2.9,8.6-0.6,13.1c0.8,1.3,1.7,2.7,3,3.6c3.7,2.8,7.8,3.3,12.1,1.4
				c4.3-1.9,6.6-5.2,7.1-9.9c0-0.3,0-0.7,0-1c0-5.2-3.2-9.9-8-11.6C128.1,37.4,122.7,39.1,119.6,43.5z M128.8,50
				c-0.7-0.8-0.8-1.6,0-2.4c0.8-0.8,1.7-0.8,2.5-0.1c0.8,0.9,0.8,1.8,0,2.6C130.5,50.9,129.6,50.8,128.8,50z M138.3,48.8
				C138.3,48.8,138.3,48.8,138.3,48.8C138.3,48.8,138.3,48.8,138.3,48.8C138.3,48.8,138.3,48.8,138.3,48.8
				C138.3,48.8,138.3,48.8,138.3,48.8c0.4,3.1-0.2,5.2-2.3,7.6c0.9-2.2,0.9-4.5,0.3-6.8c-2.8-4.7-5.6-5.9-10.7-4.7
				c-2.7,1.2-4.5,3.3-5.3,6.4c-0.8-3.6,1.1-7.2,4.6-9.2C130.5,39.1,137.1,42.4,138.3,48.8z"/>
			<path class="st3" d="M121.1,60.2c-3.5-1.3-6.1-0.1-7,3.2c-0.5,1.8-0.2,3.6,0.6,5.3c0.3,0.7,0.8,1.2,1.3,1.8
				c1.4,1.6,3,2.2,5.1,1.6c2-0.6,2.8-2.1,3-4.1c0.3-0.7-0.8-1.3,0-2c0.7-0.6,0.5-1.3,0.2-2.1c-0.4-0.9-0.9-1.7-1.5-2.5
				c-0.3-0.4-0.8-0.7-1.2-1C121.3,60.4,121.2,60.3,121.1,60.2z"/>
		</g>
	</g>
</g>
<g class="st21">
	<g>
		<g>
			<path class="st3" d="M52.6,16.7c-0.5-0.4-0.5-0.7-0.3-1.2C53,13.2,53,11,52.3,8.7c-0.3-1-0.7-1.2-1.5-0.5c-1.1,1-2.3,1.9-3.6,2.7
				c-1.2,0.8-2.4,1.2-3.8,0.7c-4.3-1.3-8.7-1.6-13.1-0.5c-2.8,0.7-5.4,0.4-8-0.7c-1-0.4-2-0.9-2.9-1.5c-0.9-0.5-1.3-0.3-1.4,0.7
				c-0.2,2,0.1,4,1,5.8c0.3,0.6,0.2,0.9-0.3,1.4c-9.3,7.8-12,21.4-6.3,32.1c6.2,11.6,19.9,16.9,32.3,12.3
				c6.6-2.5,11.6-6.9,14.7-13.3C64.6,37.1,61.8,24.4,52.6,16.7z M56.7,37.2c0,0.5-0.1,0.6-0.6,0.6c-0.8,0-3.4,0.7-6.6,3.9
				c-2.5,2.6-4.2,4.8-6,6.6c-2.1,2-4.1,3.1-3.7,3.2c2.5,0.6,4.7-0.5,4.8-0.2c0.3,0.8-0.9,2.8-2.8,5.1c-1.3,1.6-2.9,2.9-4.7,3.7
				c-1.7,0.8-3.2,1-5.8,0.9c-1-0.1-4.5-0.6-6.9-2.2c-0.4-0.3-0.8-0.6-1.1-1c0.7-0.4,4.3-3.2,2.2-10.7c-1.6-5.6-6.4-8.6-8.7-10
				c-1.8-8.5,1.9-12.9,5.9-16.3c3.1-2.4,7.7-2.7,11.2-0.3c0.8,0.6,1.6,1.2,2.2,1.9c0.8,0.9,0.9,0.8,1.7-0.1c1.9-2.2,4.3-3.5,7.3-3.3
				c3.2,0.3,5.5,2,7.3,4.4C55.5,27.6,56.6,32.2,56.7,37.2z"/>
			<path class="st3" d="M30.9,21.4c-3.6-1.3-7.2,0.8-8.3,4.8c-0.4,1.6-0.1,3.1,0.8,4.5c1.6,2.6,5.9,4.2,9.1,1.5
				c0.2-0.2,0.4-0.4,0.6-0.6C36.4,28.4,35.2,23,30.9,21.4z M28.7,27.1c-0.2-0.5,0-1,0.5-1.2c0.5-0.2,1,0,1.3,0.5
				c0.2,0.6,0,1-0.5,1.3C29.4,27.9,28.9,27.6,28.7,27.1z M33.5,28.3c-0.2,1.3-1,2.3-2.1,3c0.7-0.8,1.1-1.8,1.3-2.9
				c-0.3-2.9-1.6-4.2-4.5-4.5c0,0,0,0,0,0c0,0,0,0,0,0c-0.9,0.1-1.8,0.4-2.6,1c-0.7,0.6-1.1,1.3-1.6,2.1c0.4-2.8,1.9-4.3,4.3-4.5
				C31.5,22,34.2,25.1,33.5,28.3C33.5,28.3,33.5,28.3,33.5,28.3z"/>
			<path class="st3" d="M41.7,21.8c-2.3,1.4-3.1,3.5-3,6.1c0.1,0.8,0.3,1.6,0.7,2.3c1.2,2.1,3.1,3.2,5.5,3.2c2.4,0,4.2-1.1,5.4-3.3
				c0.1-0.2,0.2-0.3,0.2-0.5c1.1-2.5,0.5-5.4-1.5-7.2C47,20.6,44.1,20.3,41.7,21.8z M44.8,26.8c-0.2-0.5,0-0.9,0.5-1.2
				c0.6-0.2,1-0.1,1.2,0.5c0.2,0.6,0,1-0.5,1.2C45.4,27.5,45,27.3,44.8,26.8z M49.5,28.1C49.5,28.1,49.5,28.1,49.5,28.1
				C49.5,28.1,49.5,28.1,49.5,28.1C49.5,28.1,49.5,28.1,49.5,28.1C49.5,28.1,49.5,28.1,49.5,28.1c-0.4,1.6-1.2,2.5-2.7,3.2
				c0.9-0.9,1.4-2,1.5-3.2c-0.4-2.8-1.5-4-4.1-4.4c-1.5,0-2.8,0.7-3.9,2c0.3-1.9,2-3.2,4.1-3.4C47.8,21.9,50.3,24.8,49.5,28.1z"/>
			<path class="st3" d="M39,30.1c-1.4-1.3-2.9-1.3-4,0.1c-0.6,0.8-0.8,1.7-0.8,2.7c0,0.4,0.1,0.8,0.2,1.1c0.3,1,1,1.7,2.1,1.8
				c1.1,0.1,1.8-0.4,2.3-1.4c0.3-0.2-0.1-0.8,0.4-1c0.4-0.2,0.5-0.5,0.5-0.9c0-0.5-0.1-1-0.2-1.5c-0.1-0.3-0.2-0.5-0.4-0.7
				C39.1,30.2,39,30.1,39,30.1z"/>
		</g>
	</g>
</g>
<g>
	<linearGradient id="SVGID_1_" gradientUnits="userSpaceOnUse" x1="190.2592" y1="122.8331" x2="188.7037" y2="68.9129">
		<stop  offset="2.131116e-08" style="stop-color:#FFB000"/>
		<stop  offset="8.520067e-02" style="stop-color:#FFB30A;stop-opacity:0.9148"/>
		<stop  offset="0.2301" style="stop-color:#FFBB25;stop-opacity:0.7699"/>
		<stop  offset="0.417" style="stop-color:#FFC951;stop-opacity:0.583"/>
		<stop  offset="0.6386" style="stop-color:#FFDC8D;stop-opacity:0.3614"/>
		<stop  offset="0.8869" style="stop-color:#FFF3DA;stop-opacity:0.1131"/>
		<stop  offset="1" style="stop-color:#FFFFFF;stop-opacity:0"/>
	</linearGradient>
	<path class="st22" d="M193.7,71.1c2.2,8.3,2.7,17,1.6,25.6c-1.1,8.6-3.7,17-7.3,25c-0.5,1.2-1.9,1.7-3.1,1.2
		c-1.2-0.5-1.7-1.9-1.2-3.1c0-0.1,0.1-0.1,0.1-0.2c4.1-7.3,7.4-15.1,9.2-23.3C194.8,88.1,195.1,79.5,193.7,71.1z"/>
</g>
<g>
	<linearGradient id="SVGID_2_" gradientUnits="userSpaceOnUse" x1="171.2779" y1="129.6779" x2="168.1555" y2="21.4426">
		<stop  offset="2.131116e-08" style="stop-color:#FFB000"/>
		<stop  offset="8.507513e-02" style="stop-color:#FFB30A;stop-opacity:0.9149"/>
		<stop  offset="0.2289" style="stop-color:#FFBB24;stop-opacity:0.7711"/>
		<stop  offset="0.4139" style="stop-color:#FFC94F;stop-opacity:0.5861"/>
		<stop  offset="0.633" style="stop-color:#FFDB8B;stop-opacity:0.367"/>
		<stop  offset="0.8779" style="stop-color:#FFF3D7;stop-opacity:0.1221"/>
		<stop  offset="1" style="stop-color:#FFFFFF;stop-opacity:0"/>
	</linearGradient>
	<path class="st23" d="M159.3,26.2c7.7,5.4,14.3,12.6,18.9,21c4.6,8.5,6.9,18.2,7,27.9c0.1,9.8-2.1,19.5-5.9,28.6
		c-3.8,9.1-9.2,17.4-15.7,24.8c-1.6,1.9-4.5,2.1-6.4,0.5c-1.9-1.6-2.1-4.5-0.5-6.4c0.1-0.1,0.2-0.2,0.2-0.3l0,0
		c6.4-6.3,12-13.5,16.1-21.5c4.1-8,6.9-16.8,7.5-25.9c0.7-9-0.8-18.3-4.5-26.8C172.5,39.8,166.5,32.2,159.3,26.2z"/>
</g>
</svg>
