<svg id="Layer_1" data-name="Layer 1" xmlns="http://www.w3.org/2000/svg" width="410" height="191" viewBox="0 0 410 191">
  <title>191</title>
  <g>
    <path d="M204.87278,191a85.85724,85.85724,0,0,1-85.24934-74.46135c-5.34163-39.27255,18.23233-77.97024,55.74974-91.345,2.11432-.75375,2.80914-1.59068,2.58309-3.86368A35.83033,35.83033,0,0,1,181.4837,2.46522c1.436-3.08943,3.01658-3.26856,5.15026-.57418a85.35047,85.35047,0,0,0,7.16069,7.8112,38.3985,38.3985,0,0,0,23.86613,11.34861c14.73421,1.52645,27.94671,7.48335,39.69991,16.50746,3.88328,2.9816,8.07969,3.11881,12.56256,2.1389a83.5761,83.5761,0,0,0,14.03463-4.26282c3.193-1.3142,4.41559-.39,4.10632,3.09462-.67445,7.598-3.05751,14.57677-7.95418,20.52251-1.14855,1.39462-1.35229,2.34719-.38782,4.032a84.866,84.866,0,0,1-14.71384,103.77424C248.29273,182.96138,228.10125,190.89745,204.87278,191Z" fill="#49231a"/>
    <path d="M183.20638,42.867c11.84779-5.02339,26.46549-.40913,34.607,10.9283a43.19514,43.19514,0,0,1,4.69924,8.46784c1.48356,3.521,1.88657,3.63322,5.41267,1.75331,8.47575-4.5188,17.23116-5.991,26.25041-1.81,9.40441,4.35954,14.5028,12.38355,17.42258,21.88218,4.87277,15.85224,2.94837,31.40533-2.61508,46.72519-.50747,1.3975-1.00021,1.80364-2.5315,1.17433-2.301-.94564-11.256-1.63345-24.62538,4.658-10.63074,5.0027-18.49953,9.98175-25.95237,13.3694-8.65079,3.93218-16.1981,4.66784-14.94228,5.50505,7.07792,4.71861,14.94228,3.93218,14.94228,4.71861,0,2.79265-5.87662,7.64819-14.42105,12.59858a45.87362,45.87362,0,0,1-18.78017,6.13107c-6.12291.55663-10.8427-.41712-18.70353-3.78737-4.74261-2.03336-25.87535-14.19692-22.02019-28.31168,1.79019-6.55438,17.30158-33.81673,15.72871-54.264.78643-14.15585,2.98549-15.655,3.14574-17.30159.64249-6.60122,2.91407-4.01359,5.62753-10.06176a76.45538,76.45538,0,0,1,12.217-18.66611A19.46931,19.46931,0,0,1,183.20638,42.867Z" fill="#fae0c5"/>
    <path d="M283.32731,41.00357c-1.11317,6.50809-3.48884,12.41355-8.33012,17.08937-.75562.7298-.84737,1.744-1.469,2.49241-2.22428,2.84215-2.37222,4.59154-.4399,7.70743a92.64553,92.64553,0,0,1,12.09415,31.35365,42.9314,42.9314,0,0,1,1.00939,8.03493c.163.37417.60944-.13369.25434.03508-.1492.07089-.27447.01191-.24409-.15264.39347-2.13032-1.36376-4.37193.33156-6.43255,1.1361,4.2294.21417,8.38258-.46208,12.54535-.09207.56668-.16406,1.1366-.24534,1.705-2.27892,2.87206-7.90008,15.07653-11.756,14.973,2.47276-4.70339,5.5446-22.82774,4.655-30.10524-.6373-10.90462-2.83037-21.33559-9.20855-30.53379-6.03251-8.69972-14.34507-13.62-24.80512-14.33724a30.85208,30.85208,0,0,0-16.19567,3.49631c-1.99049,1.0227-2.62682.412-3.45378-1.30937-4.58942-9.5535-11.64834-16.41374-21.961-19.53445a56.15122,56.15122,0,0,0-5.74181-1.12723,20.6312,20.6312,0,0,0-6.36537-.21934c-2.13475.08607-2.57163-.81861-2.173-2.6359.18786-.85658.401-1.70672.59688-2.5611.937-4.08741.94741-8.0589-.945-11.97088-.77621-1.60454-1.98516-3.19963-1.50307-5.21229,1.32864-1.13,1.94827.15737,2.45419.89958,5.6908,8.34851,14.02517,12.08286,23.64321,13.172a81.16193,81.16193,0,0,1,39.024,15.16448c9.65526,6.95694,18.34022,6.57989,27.98436-.6465A7.68423,7.68423,0,0,1,283.32731,41.00357Z" fill="#82574b"/>
    <path d="M187.32814,13.93055c-.12077,1.7915.96176,3.17659,1.70029,4.62886,2.40926,4.7376,2.32884,9.54365.87293,14.50827-.9523,3.24729-.8567,3.20325,2.61447,3.30773,1.61426.04861,3.335-.57152,4.84347.52849-12.2283-1.10567-22.722,3.1237-32.064,10.628-10.83628,8.70461-18.101,19.959-22.61376,32.98223-1.09912,3.172-2.40233,5.14522-5.858,6.349-5.54911,1.933-9.81679,4.95622-13.13248,11.90015A32.29891,32.29891,0,0,1,124.88883,89.87c3.2938-15.4696,10.07407-29.08354,21.27947-40.48315,9.38949-9.55226,20.17159-16.68651,32.93267-20.80409,3.68167-1.18794,4.20487-1.94891,3.378-5.76235-1.15009-5.30383.05792-10.265,1.7319-15.22478.43785-1.29732.75825-1.22028,1.35772-.17879C185.74181,9.6997,187.9225,11.44031,187.32814,13.93055Z" fill="#694138"/>
    <path d="M183.20638,42.867c-5.96589,6.22293-11.27557,12.912-15.09615,20.71158-3.25181,6.63841-7.28675,13.29846-9.64606,21.94926-.78643,10.22366-.63936,3.389-3.73466,1.22716-2.0744-1.44884-4.80411-1.56781-7.32147-1.93032-.90046-.12969-1.5412-.20757-1.11582-1.38227,6.66463-18.40375,17.20135-33.33391,36.3333-40.56592A1.75964,1.75964,0,0,1,183.20638,42.867Z" fill="#c5a992"/>
    <path d="M187.32814,13.93056c-.458-2.20594-2.44508-3.99876-1.75962-6.51366a66.13134,66.13134,0,0,0,15.23391,13.28587c4.70845,3.03285,10.03563,3.69029,15.393,4.39559a75.507,75.507,0,0,1,36.68347,14.72718,20.82581,20.82581,0,0,0,19.02892,3.893c3.03764-.77416,6.07953-1.4971,9.065-2.46952.69634-.22681,1.48533-1.14142,2.35488-.24533a28.458,28.458,0,0,1-19.75144,8.37677c-3.99983.11776-7.13045-1.6211-10.19609-3.868-8.66193-6.34852-17.78492-11.85946-28.43064-14.189-5.42587-1.18725-10.9533-1.90225-16.404-2.98572-8.6579-1.721-15.62669-6.03152-20.32549-13.68422C188.03117,14.346,187.63025,14.1686,187.32814,13.93056Z" fill="#be8676"/>
    <path d="M285.82608,115.38161a24.42993,24.42993,0,0,0-11.47992,13.50006c-1.00182,3.18265-2.66589,5.55022-4.49671,8.3254a1.65223,1.65223,0,0,1-.99241.85584,1.74247,1.74247,0,0,1-1.06325-.32789c-4.4573-2.46255-9.26654-2.45967-14.17091-1.08888s-10.3789,4.03149-14.94228,6.29148c-8.13637,4.02943-14.94227,10.22366-25.95237,12.583a26.9101,26.9101,0,0,0,10.22366,1.57287c-1.57287,6.29149-8.89578,17.01906-25.16594,22.80663-1.72445.6134-5.51047,1.64876-7.20858,2.33185-.44285.17818-.936.40825-1.08154.8629a1.373,1.373,0,0,0,.19263,1.04247c1.18272,2.18627,14.26571,2.17854,16.74828,2.05427,16.53176-.82757,24.718-2.47249,34.60317-7.86436a116.99089,116.99089,0,0,0,25.16594-18.87445c2.40481-2.49784,11.05891-14.87359,13.3694-21.23376C283.18112,130.40318,285.24772,123.884,285.82608,115.38161Z" fill="#694138"/>
    <path d="M286.53366,101.13125v7.01708c-1.80205-7.0213-3.101-14.08928-5.4392-20.91388a83.9457,83.9457,0,0,0-9.01173-19.02216c-1.81771-2.77283-1.67556-5.69617.24539-7.49019.36611-.3419.73143-.68959,1.19984-.13682.0928,1.56871,1.24066,2.61987,1.96119,3.86149A78.58216,78.58216,0,0,1,286.53366,101.13125Z" fill="#be8676"/>
    <path d="M176.78371,58.211c7.98715-10.98083,21.51594-13.21931,30.99317-5.12812,11.49971,9.818,8.8581,27.59109-5.06737,34.07459-.7978.37148-1.61336.70485-2.42067,1.05592-12.9011,4.60807-24.41308-5.38009-26.32651-15.16328A18.83842,18.83842,0,0,1,176.78371,58.211Z" fill="#49231a"/>
    <path d="M224.436,81.74908c2.4841-8.14131,7.51525-13.70391,16.09748-15.36184a19.932,19.932,0,0,1,21.75041,10.39218,20.49063,20.49063,0,0,1-3.61,23.6673c-.40736.422-.82855.83083-1.24333,1.24577-6.02344,5.20328-12.87665,6.53222-20.30029,3.85067-7.42907-2.68353-11.86446-8.18953-13.214-15.93576A22.39278,22.39278,0,0,1,224.436,81.74908Z" fill="#49231a"/>
    <path d="M204.97641,91.77345a13.89027,13.89027,0,0,1,5.513-7.23613c4.84411-3.09174,9.46556-1.44863,12.27146,4.26464.08552.29466.13275.45738.19074.65049a8.25329,8.25329,0,0,1,.36542,2.62921,13.33678,13.33678,0,0,1-1.00186,4.84707c-.52694,1.24473-1.13246,2.34021-2.661,2.30936-1.75245-.03535-1.12853,2.04484-2.31319,2.47657-2.49864,2.30578-5.27066,3.28193-8.50905,1.63307a7.618,7.618,0,0,1-4.40583-7.86024A16.01318,16.01318,0,0,1,204.97641,91.77345Z" fill="#49231a"/>
    <path d="M176.78371,58.211c-2.71065,6.01752-3.61029,12.12363-.80447,18.373A20.20814,20.20814,0,0,0,198.25509,88.4c.669-.11438,1.35541-.12678,2.03375-.18662-6.61647,3.10693-12.92323,2.20624-18.83646-1.72857a19.77889,19.77889,0,0,1-6.063-26.88048C175.739,59.01015,176.01038,58.36771,176.78371,58.211Z" fill="#c5a992"/>
    <path d="M224.436,81.74908c-.04474,2.93015-.443,5.87127.24268,8.77988a20.20277,20.20277,0,0,0,30.22855,12.61761c.83207-.49973,1.68179-.97005,2.52329-1.454-3.1007,4.20937-7.667,5.50721-12.49067,5.97418-10.31787.99886-20.01683-7.06991-21.1589-16.33955C223.74963,91.07253,223.04379,83.902,224.436,81.74908Z" fill="#c4a891"/>
    <path d="M217.1815,126.555c-4.09872-.05331-8.85421-5.96924-7.92923-9.41366.2997-1.11608,1.20657-1.47715,1.90895-.43249,2.77351,4.12518,6.73227,5.73,11.52358,5.73685.51129.00072,1.01346.1537,1.0992.73478.08027.54414-.2966.88948-.74867,1.14163A14.91883,14.91883,0,0,1,217.1815,126.555Z" fill="#c6aa93"/>
    <path d="M192.58689,113.65356c-4.303.8477-7.3073-5.31065-7.55668-8.92987a1.20177,1.20177,0,0,1,.52251-.93c.62111-.33849,1.15035.03464,1.49.55093,2.56793,3.90348,6.24179,5.46648,10.8163,5.21142.68827-.03839,1.45394.09438,1.64047.92229.197.87432-.60721,1.09726-1.14931,1.491A8.61325,8.61325,0,0,1,192.58689,113.65356Z" fill="#c6aa93"/>
    <path d="M200.56586,128.89279c-4.32513.0729-8.75886-5.41324-7.95691-9.276a1.511,1.511,0,0,1,.50311-.94359c.5228-.30355.9532.14222,1.21331.52028,2.80356,4.07457,6.83259,5.57659,11.58729,5.604.47939.00277,1.05341.00594,1.16471.61653.10021.54977-.35765.84032-.76,1.12512A16.87822,16.87822,0,0,1,200.56586,128.89279Z" fill="#c6aa93"/>
    <path d="M208.43022,143.83507c-4.32513.07289-8.75886-5.41324-7.95691-9.276a1.511,1.511,0,0,1,.50311-.9436c.5228-.30355.9532.14222,1.2133.52029,2.80356,4.07456,6.83259,5.57659,11.5873,5.604.47939.00277,1.05341.00594,1.16471.61653.10021.54976-.35765.84032-.76,1.12512A16.8783,16.8783,0,0,1,208.43022,143.83507Z" fill="#c6aa93"/>
    <path d="M185.62359,135.18428c-4.32513.07289-8.75886-5.41325-7.95691-9.276a1.511,1.511,0,0,1,.50311-.94359c.5228-.30355.9532.14222,1.2133.52028,2.80356,4.07457,6.83259,5.5766,11.58729,5.604.4794.00277,1.05342.00594,1.16472.61653.10021.54976-.35766.84032-.76,1.12512A16.8783,16.8783,0,0,1,185.62359,135.18428Z" fill="#c6aa93"/>
    <path d="M193.48794,149.34012c-4.32513.07289-8.75886-5.41325-7.95691-9.276a1.511,1.511,0,0,1,.50311-.94359c.5228-.30355.9532.14222,1.21331.52029,2.80356,4.07456,6.83259,5.57659,11.58729,5.604.47939.00277,1.05341.00594,1.16471.61653.10021.54976-.35765.84032-.76,1.12512A16.87842,16.87842,0,0,1,193.48794,149.34012Z" fill="#c6aa93"/>
    <path d="M193.84518,164.2825c-3.67212.06189-7.43644-4.59594-6.75557-7.87547a1.28287,1.28287,0,0,1,.42715-.80113c.44387-.25772.80928.12075,1.03012.44173,2.38027,3.45938,5.801,4.73463,9.83783,4.75792.407.00235.89437.005.98886.52345.08508.46675-.30365.71344-.64523.95524A14.3299,14.3299,0,0,1,193.84518,164.2825Z" fill="#c6aa93"/>
    <path d="M178.9029,156.41815c-3.67212.06188-7.43644-4.59595-6.75557-7.87548a1.28291,1.28291,0,0,1,.42715-.80113c.44387-.25772.80929.12075,1.03012.44173,2.38028,3.45939,5.801,4.73463,9.83783,4.75792.407.00236.89437.005.98886.52345.08509.46676-.30365.71345-.64523.95525A14.33022,14.33022,0,0,1,178.9029,156.41815Z" fill="#c6aa93"/>
    <path d="M181.43512,168.21474c-3.34255.05633-6.769-4.18346-6.14926-7.16866a1.1677,1.1677,0,0,1,.38881-.72922c.404-.23459.73666.10991.93767.40208,2.16664,3.1489,5.28036,4.3097,8.95489,4.3309.37048.00214.81409.00459.90011.47647.07744.42486-.2764.64941-.58733.86951A13.044,13.044,0,0,1,181.43512,168.21474Z" fill="#c6aa93"/>
    <path d="M204.97641,91.77345a16.72316,16.72316,0,0,1-.04276,2.02742c-.94165,6.7718,5.00711,12.58864,12.40738,7.91379-2.31121,3.06345-5.2247,4.13542-8.37417,3.08118-3.29-1.10127-5.08155-3.65579-5.14591-7.3968C203.7873,95.4435,203.66988,93.459,204.97641,91.77345Z" fill="#c4a892"/>
    <path d="M205.07317,76.39967c2.37514-9.16757-.23851-14.792-8.78888-18.9134-.25838-1.92516.294-3.4189,2.224-4.17964a15.53878,15.53878,0,0,1,9.38281,23.79954A1.92508,1.92508,0,0,1,205.07317,76.39967Z" fill="#fde29d"/>
    <path d="M198.50828,53.30663a16.6652,16.6652,0,0,0-2.22464,4.17946,17.02448,17.02448,0,0,0-8.98052.19852c-2.78376.9231-4.92428,2.88346-7.15616,4.70227C184.4023,54.3599,190.93019,51.24532,198.50828,53.30663Z" fill="#fcc634"/>
    <path d="M200.9251,67.84114c-.13034,1.98482-1.19919,3.17649-3.1025,3.23844a3.142,3.142,0,1,1-.14956-6.28227A3.08016,3.08016,0,0,1,200.9251,67.84114Z" fill="#f8f7f7"/>
    <path d="M205.07317,76.39967q1.40945.3524,2.81839.70562c-2.21813,3.8682-5.70881,5.88425-9.988,6.80124A18.135,18.135,0,0,0,205.07317,76.39967Z" fill="#f3bd33"/>
    <path d="M248.49352,70.95867c10.556,2.84928,14.92448,14.55787,8.89773,23.848-1.59328.77594-2.69442.18376-3.49079-1.25569,2.00874-9.07482.00446-13.86434-7.67834-18.34868C245.5855,73.04172,246.00049,71.44406,248.49352,70.95867Z" fill="#fde29d"/>
    <path d="M248.49352,70.95867c-1.56945.98-1.99654,2.571-2.27058,4.24387-4.75247-1.74548-9.32406-1.18083-14.12358,1.68671C235.24567,71.51607,241.92506,69.30141,248.49352,70.95867Z" fill="#fcc634"/>
    <path d="M250.45917,85.08962c-.0824,2.04779-1.10194,3.19087-3.07079,3.21207a2.809,2.809,0,0,1-3.10654-3.08548,2.72975,2.72975,0,0,1,2.89953-2.9644A2.86212,2.86212,0,0,1,250.45917,85.08962Z" fill="#fbfbfb"/>
    <path d="M253.90046,93.55094a8.73484,8.73484,0,0,0,3.49136,1.25482c-3.0971,4.32222-6.33,6.22729-11.75762,6.73546A16.91357,16.91357,0,0,0,253.90046,93.55094Z" fill="#fac434"/>
    <path d="M217.443,93.46941a25.3979,25.3979,0,0,1-2.79823-1.992c-.87823-.81111-2.33119-1.84812-1.664-3.00734.7594-1.31934,2.43075-1.26955,3.8534-.50866C217.6696,89.72751,218.82218,91.45855,217.443,93.46941Z" fill="#9e9394"/>
    <path d="M209.92657,92.54846c1.03261,1.69806,1.88358,3.0076,2.63183,4.37342.28692.52364,1.03649,1.20362.15391,1.76823a1.56629,1.56629,0,0,1-1.91324-.28138C209.06444,96.8237,208.6876,94.99141,209.92657,92.54846Z" fill="#5b4d4b"/>
    <path d="M166.32853,152.37485c4.643-7.69133,6.10218-16.14267,6.56463-25.11488.44325-8.5998-.01631-17.426-3.17671-25.43632-.90486-2.29345-2.022-4.4962-3.13727-6.695l-6.94211-13.68618a.80987.80987,0,0,0-.30449-.38047.74763.74763,0,0,0-.73823.16214c-1.99878,1.40026-2.28394,4.19935-2.35677,6.63872a38.60308,38.60308,0,0,0,.74974,10.79164c.66994,2.60234,1.84534,5.04453,2.68558,7.597,1.68119,5.107,1.99174,10.55851,2.00959,15.93505.02156,6.49531-.52213,13.44137-4.48963,18.58417-3.50922,4.54876-5.73471,10.832-11.079,12.94073-2.592,1.02275-2.24208,8.07662,2.12663,9.67354C152.85216,165.07066,161.17951,160.90434,166.32853,152.37485Z" fill="#c5a992"/>
    <path d="M217.443,93.46941a18.967,18.967,0,0,0-.60872-5.50768c1.75954,1.16239,2.09588,2.95,2.04545,4.85394C218.85285,93.8317,218.39938,94.3015,217.443,93.46941Z" fill="#d3cdcd"/>
    <path d="M125.43388,122.4903c-2.35931-10.22367-3.49262-23.48852,0-31.45743a22.823,22.823,0,0,1,5.2897-6.42529,20.2385,20.2385,0,0,1,5.59976-2.92686c2.83182-1.08225,7.39074-4.24231,16.63578,3.84711,6.29149,5.505,11.79654,17.30158,11.79654,28.31168,0,25.95237-8.32154,35.8002-14.14123,40.55355-2.16232,1.76611-5.93273,3.59312-8.64029,1.50162-1.91972-1.48292-5.96486-7.12792-7.103-9.02488A82.62384,82.62384,0,0,1,125.43388,122.4903Z" fill="#694138"/>
    <path d="M142.73259,161.026a2.35947,2.35947,0,0,1-.3368-4.69431A19.02545,19.02545,0,0,0,151.103,151.601c5.93765-5.37594,9.55531-14.25078,10.46185-25.66525a54.77816,54.77816,0,0,0-7.678-33.255,48.37228,48.37228,0,0,0-9.49134-11.61152,2.35933,2.35933,0,0,1,2.96813-3.66822A51.94119,51.94119,0,0,1,157.8202,90.06609a60.1353,60.1353,0,0,1,8.44839,36.24333c-1.28506,16.18284-7.38136,24.71951-12.26919,29.0314a23.13687,23.13687,0,0,1-10.92405,5.66023A2.38251,2.38251,0,0,1,142.73259,161.026Z" fill="#49231a"/>
    <path d="M138.80121,93.08158c6.12905,8.31838,7.702,19.16858,7.49324,29.499-.093,4.60022-.52249,9.28846-2.34608,13.51282s-5.23861,7.96257-9.66844,9.20648c-2.30783.648-7.749-9.4754-8.05962-11.79946-1.80906-13.53421-5.32109-23.34316-5.38467-37.01772C120.78208,84.96277,132.91771,85.09647,138.80121,93.08158Z" fill="#82574b"/>
    <path d="M136.83841,150.54326a14.51251,14.51251,0,0,0,3.50606-1.73409l.83644-.584.80142-.65352c.13194-.11184.2728-.21158.39824-.3332l.38119-.35873c.25108-.2432.518-.4688.75874-.72615a30.41442,30.41442,0,0,0,5.00538-6.96453,42.1761,42.1761,0,0,0,4.59731-16.94863,50.45838,50.45838,0,0,0-.24684-8.959,57.30479,57.30479,0,0,0-1.82946-8.84219,60.50784,60.50784,0,0,0-3.18893-8.50948l-.97549-2.0632-1.0696-2.018-.538-1.00929-.58372-.983-1.16922-1.969,1.29412,1.89062.648.94676.60347.97516,1.204,1.95613,1.1144,2.01074a61.39254,61.39254,0,0,1,3.78239,8.40633,58.76647,58.76647,0,0,1,2.45744,8.942,52.534,52.534,0,0,1,.85578,9.29684,45.11047,45.11047,0,0,1-3.775,18.42909c-.15353.36924-.34554.722-.51712,1.08409-.1792.35864-.34749.72308-.53692,1.0775l-.59009,1.05385-.29622.52729c-.10394.173-.21557.34193-.32321.51316l-.65351,1.02453c-.22233.33923-.47158.66265-.70713.99488-.46063.67189-1.001,1.29247-1.52009,1.92944-.26188.31683-.55833.6088-.83727.91427l-.42561.45325c-.14017.15261-.30155.28813-.45172.43294l-.92167.85365-.99073.79529a19.0482,19.0482,0,0,1-4.52632,2.598Z" fill="#82574b"/>
    <path d="M255.19575,160.2392c-8.26578,7.21686-18.088,10.22367-22.80663,3.93218-3.25647-4.34195,2.96535-11.75115,11.7898-18.287s15.90644-8.33782,20.45406-5.30607C269.35159,143.72406,262.32393,154.01558,255.19575,160.2392Z" fill="#be8676"/>
    <path d="M139.59066,158.46968a2.15758,2.15758,0,0,1-1.643-.75522,75.7762,75.7762,0,0,1-14.69556-26.23063,83.64582,83.64582,0,0,1-3.913-24.496,84.72683,84.72683,0,0,1,3.25266-25.27778,2.16266,2.16266,0,0,1,4.11174,1.34238h0a82.10316,82.10316,0,0,0-3.03715,24.0294c.19648,12.69472,3.40329,31.29521,17.56534,47.8176a2.16272,2.16272,0,0,1-1.64112,3.57021Z" fill="#49231a"/>
    <path d="M252.06991,157.90677c-8.362,7.087-17.54225,9.45558-20.17894,5.89561s2.37949-11.74423,11.20394-18.28007,17.00886-7.96074,20.75222-5.38829C266.379,141.87393,259.28107,151.79519,252.06991,157.90677Z" fill="#82574b"/>
    <path d="M286.65081,110.79929l-.04573.582-.05291.54519c-.03662.3614-.078.71842-.121,1.075-.086.71263-.1868,1.41844-.29261,2.12294q-.32112,2.1118-.74949,4.19215-.42558,2.082-.93966,4.13984c-.3501,1.36993-.71659,2.73484-1.12268,4.088a94.12475,94.12475,0,0,1-6.24717,15.72074,81.18019,81.18019,0,0,1-9.1538,14.20374,73.79085,73.79085,0,0,1-12.00456,11.838,72.89846,72.89846,0,0,1-14.35234,8.7162l-1.91378.85853c-.644.27152-1.2944.52766-1.94083.7919-.32442.12926-.64563.26649-.97251.389l-.98432.35778c-.65777.23358-1.3081.48743-1.97126.70383-1.32857.42643-2.64923.87409-3.99611,1.2339l-1.0052.285-.50245.14242-.507.12571-2.0279.4981c-.673.17719-1.35908.29838-2.03844.44659-.68182.137-1.35895.29585-2.04389.41464l-2.05415.35584c-.34262.05713-.68363.12329-1.02734.173l-1.03189.14315-2.06274.286c-.689.08243-1.38013.148-2.06972.22269l-1.03467.10879-.5172.05435-.51875.03844-2.07439.15072a128.90125,128.90125,0,0,1-16.6002-.00509,128.60733,128.60733,0,0,0,16.55094-.58267l2.05613-.22305.51373-.05646.51191-.07232,1.02349-.1446c.68188-.09854,1.36491-.1878,2.04524-.29384l2.03463-.35629,1.01676-.178c.33852-.06123.674-.13888,1.011-.20749l2.01925-.42416c.67282-.14139,1.33673-.32251,2.00514-.48167.66575-.17029,1.33814-.31348,1.99609-.51222l1.9817-.56211.49485-.14148.48992-.158.97956-.31585c1.31252-.40075,2.59518-.88771,3.884-1.35211.64328-.23536,1.27251-.50761,1.90908-.75932l.95193-.3846c.31594-.13136.62574-.27723.93881-.41505.62373-.28136,1.2509-.55425,1.871-.84195l1.83978-.90538a70.82916,70.82916,0,0,0,13.63937-8.95812,71.13292,71.13292,0,0,0,11.15923-11.81326,77.93277,77.93277,0,0,0,8.30034-13.94336,90.28975,90.28975,0,0,0,5.45143-15.27929c.34264-1.30866.64649-2.62675.93456-3.947q.41751-1.9837.75545-3.97923.33453-1.995.56888-3.99634c.07583-.666.1469-1.332.203-1.99458l.07589-.98926.02992-.48834.01966-.45275Z" fill="#82574b"/>
    <path d="M218.23327,176.75435a10.124,10.124,0,0,0,2.51886.62184,13.02786,13.02786,0,0,0,2.56267.06969,14.45116,14.45116,0,0,0,2.50183-.40081,15.85946,15.85946,0,0,0,2.37338-.82,18.7926,18.7926,0,0,0,4.24283-2.603,26.18607,26.18607,0,0,0,3.56269-3.48494,1.57774,1.57774,0,1,1,2.24,2.21107l-.01565.0133a28.91513,28.91513,0,0,1-4.46218,3.21274,20.74707,20.74707,0,0,1-5.05484,2.13777,17.238,17.238,0,0,1-2.68654.49569,15.43334,15.43334,0,0,1-2.7082.0246,13.61849,13.61849,0,0,1-2.635-.47088A10.31463,10.31463,0,0,1,218.23327,176.75435Z" fill="#be8676"/>
    <path d="M233.56876,159.846a19.4468,19.4468,0,0,0,2.51813-.76375,24.82741,24.82741,0,0,0,2.39479-1.03514,23.72326,23.72326,0,0,0,4.31963-2.75885,22.87156,22.87156,0,0,0,1.855-1.69747,20.692,20.692,0,0,0,1.6018-1.8889,19.1966,19.1966,0,0,0,2.36837-4.22559,1.97512,1.97512,0,1,1,3.49339,1.81011l-.01186.01777a22.65227,22.65227,0,0,1-3.672,4.3862,23.41373,23.41373,0,0,1-2.18844,1.7733,23.97254,23.97254,0,0,1-7.4141,3.50136,25.56775,25.56775,0,0,1-2.61936.592A19.68713,19.68713,0,0,1,233.56876,159.846Z" fill="#be8676"/>
    <path d="M143.52191,124.8496a43.96786,43.96786,0,0,0-.59318-6.75358,45.56042,45.56042,0,0,0-1.53973-6.5143c-.33582-1.05477-.70523-2.09361-1.1291-3.10333-.20052-.5091-.43578-1.0026-.65674-1.49885-.24-.48826-.46823-.97941-.72906-1.45245a28.36251,28.36251,0,0,0-3.56352-5.25854,2.36824,2.36824,0,1,1,3.83252-2.7554l.00716.01276a32.51512,32.51512,0,0,1,2.98829,6.63458c.19333.5664.34912,1.14267.51442,1.7134.1455.57651.303,1.14771.4224,1.72675.26226,1.152.45946,2.31156.61689,3.46985a47.33338,47.33338,0,0,1,.413,6.93945A44.54286,44.54286,0,0,1,143.52191,124.8496Z" fill="#be8676"/>
    <path d="M138.01686,129.56822a44.05009,44.05009,0,0,0-.49514-6.76076,45.78614,45.78614,0,0,0-1.44581-6.54972c-.321-1.0634-.676-2.1123-1.08642-3.13389-.19379-.51492-.42255-1.0149-.63723-1.51784-.23372-.49512-.456-.99337-.71117-1.47419a28.79829,28.79829,0,0,0-3.51561-5.37321l-.00493-.006a1.97148,1.97148,0,0,1,3.04016-2.51086,2.154,2.154,0,0,1,.16453.23129,32.25285,32.25285,0,0,1,3.03623,6.51992c.19895.55861.36079,1.12779.53231,1.69165.15181.56983.31582,1.13455.442,1.70776.2757,1.14016.48725,2.28965.65955,3.43931a47.26425,47.26425,0,0,1,.50686,6.904A44.52673,44.52673,0,0,1,138.01686,129.56822Z" fill="#be8676"/>
    <path d="M220.59258,170.46287a7.06946,7.06946,0,0,0,3.01975.46894,8.80641,8.80641,0,0,0,2.91269-.67853l.6744-.31511c.22316-.10518.43-.25009.64419-.37168a11.5351,11.5351,0,0,0,1.21723-.84506l.14811-.10969.13862-.12523.27656-.24945.55039-.49489,1.01349-1.08848.05067-.05443a.943.943,0,1,1,1.38027,1.28516,1.03032,1.03032,0,0,1-.104.09613l-1.2858,1.02007-.68759.45419-.34247.22508-.17089.11206-.18224.09753a12.78637,12.78637,0,0,1-1.47516.72468c-.25624.09891-.50087.21821-.76367.29763l-.78649.232a9.50988,9.50988,0,0,1-3.22148.257A7.3,7.3,0,0,1,220.59258,170.46287Z" fill="#be8676"/>
    <path d="M229.63659,53.67719a12.03248,12.03248,0,0,1,1.84884-1.452,19.369,19.369,0,0,1,2.048-1.16652,22.56813,22.56813,0,0,1,4.45089-1.61992,24.45133,24.45133,0,0,1,9.53078-.4606c.79735.1031,1.58117.28449,2.36418.45837.77167.2219,1.55027.415,2.29947.7.758.25731,1.49215.57421,2.2186.901.71572.34935,1.42961.70071,2.10659,1.11354a21.60163,21.60163,0,0,1,1.97809,1.30361l.4754.34909a5.68878,5.68878,0,0,1,.46421.36236l.89519.76356c.14576.13083.29455.2565.43664.39087.13957.13794.2812.27214.41745.41324.27386.28028.5495.55454.81425.84a22.11445,22.11445,0,0,1,1.4682,1.822c-.73677-.28851-1.42251-.62337-2.114-.93631-.35279-.14631-.69481-.30384-1.0386-.45535-.17253-.07479-.33972-.15648-.50892-.23444-.17047-.07586-.34632-.14223-.5185-.21343-.68632-.28875-1.35808-.58727-2.04618-.84216-.34488-.12549-.6732-.28-1.01722-.39946-.34333-.1207-.687-.23706-1.02318-.36625-.33445-.13383-.68059-.23658-1.02346-.34391-.34242-.1078-.67635-.23516-1.01962-.33441-.69212-.182-1.36239-.41616-2.05651-.56717-.68316-.1878-1.37539-.32921-2.06441-.47828l-1.03962-.18955c-.34431-.07478-.69412-.116-1.04215-.16745a41.67482,41.67482,0,0,0-8.48451-.384q-2.156.10885-4.35207.41095C232.63637,53.09434,231.16182,53.34777,229.63659,53.67719Z" fill="#be8676"/>
    <path d="M195.10537,33.01956a12.03361,12.03361,0,0,1,2.2676-.62,19.37163,19.37163,0,0,1,2.34019-.27971,22.569,22.569,0,0,1,4.73066.23563,24.45116,24.45116,0,0,1,8.96167,3.27663c.69475.40464,1.34662.87618,2.00068,1.34048.62493.50415,1.26743.98444,1.8472,1.538.5986.53148,1.152,1.10859,1.69454,1.69183.52391.59988,1.04533,1.20089,1.50886,1.8442a21.59878,21.59878,0,0,1,1.31664,1.96947l.30252.50629a5.69967,5.69967,0,0,1,.28708.51421l.52841,1.05125c.08351.17717.17181.35075.25057.52975.07508.18132.15344.36.22425.54293.14347.36461.291.72439.42412,1.09028a22.12086,22.12086,0,0,1,.64546,2.24911c-.5669-.552-1.06883-1.12685-1.58446-1.68375-.26834-.27184-.52231-.5498-.7803-.82293-.12994-.13592-.25231-.27614-.37795-.41368-.12765-.13611-.26389-.26555-.39495-.398-.52027-.53258-1.02343-1.06856-1.55852-1.57064-.26908-.24956-.51165-.51946-.78224-.76312-.26954-.24456-.54105-.48525-.80067-.73484-.25624-.2532-.53532-.48231-.80959-.71436-.27369-.23231-.532-.47935-.80975-.70411-.56713-.43649-1.09388-.91257-1.67488-1.32128-.55659-.43835-1.13959-.83747-1.7167-1.24241l-.88438-.57837c-.28825-.20263-.59458-.37647-.89536-.559a41.6729,41.6729,0,0,0-7.6695-3.64863q-2.0291-.737-4.17012-1.31135C198.09606,33.64735,196.63882,33.30828,195.10537,33.01956Z" fill="#be8676"/>
    <path d="M264.101,128.55047a.32843.32843,0,0,0,.03284.015l-.01255-.00745a.21047.21047,0,0,0-.03147-.018l-.09681-.04752c-.079-.03246-.15023-.06812-.2405-.09963-.16829-.067-.35692-.12725-.54641-.18515a11.35556,11.35556,0,0,0-1.21307-.28213,17.7116,17.7116,0,0,0-2.61925-.25276,29.06378,29.06378,0,0,0-5.4728.41095,55.49911,55.49911,0,0,0-10.88709,3.07514c-.44851.16244-.88883.347-1.33121.52716l-1.327.54332c-.87312.3904-1.75845.75784-2.62492,1.16836-.86521.41277-1.74257.80422-2.59638,1.24434-.8581.43157-1.723.853-2.568,1.31272-3.4055,1.79311-6.73592,3.74734-10.00767,5.80314,3.08544-2.32527,6.24637-4.56113,9.51342-6.65289.81007-.53412,1.643-1.03166,2.47079-1.54006.823-.51667,1.67385-.98683,2.51367-1.47866.84108-.48962,1.70594-.93838,2.55963-1.41025l1.30277-.66758c.43505-.22182.86825-.44808,1.31235-.65326a57.91429,57.91429,0,0,1,11.07326-4.15969,32.23825,32.23825,0,0,1,6.00906-.96287,21.27035,21.27035,0,0,1,3.15821.0377,15.14035,15.14035,0,0,1,1.634.23579c.27851.0587.557.1218.84676.20668.14117.03717.29449.09057.44272.1389l.2385.08858c.03679.0132.08895.03624.134.05529l.06969.03016.11395.0551a1.96609,1.96609,0,0,1-1.85044,3.46956Z" fill="#c5a992"/>
    <path d="M167.76974,62.71185c.00109-.01251-.01387.02469-.02542.052-.0116.02558-.02424.05831-.03711.09307-.02554.06689-.05156.13369-.07629.2085-.05167.143-.09864.29594-.1465.44847-.09409.30745-.17657.62626-.25467.94844a19.8707,19.8707,0,0,0-.34949,1.98486,21.0611,21.0611,0,0,0-.085,4.10191,22.32143,22.32143,0,0,0,2.256,8.06616A27.61824,27.61824,0,0,0,171.271,82.319c.43954.577.85724,1.17751,1.34066,1.72637.23644.27877.46637.56493.70951.83961l.7516.806a41.86483,41.86483,0,0,0,6.80479,5.735,42.4611,42.4611,0,0,1-7.60483-4.86813l-.88231-.72694c-.288-.24991-.56458-.51335-.84822-.77044-.57722-.50484-1.096-1.07081-1.63877-1.61868a29.692,29.692,0,0,1-2.89357-3.64388,25.28557,25.28557,0,0,1-3.714-8.72113,24.905,24.905,0,0,1-.53933-4.83379,24.15709,24.15709,0,0,1,.10372-2.47095c.043-.41483.09343-.831.16246-1.25252.03583-.21139.07142-.42261.11731-.64018.02031-.1064.04611-.219.07219-.33153l.04258-.1754c.0162-.06187.02835-.114.05967-.21485a2.3593,2.3593,0,1,1,4.4553,1.55418Z" fill="#c5a992"/>
  </g>
</svg>
