<svg id="Layer_1" data-name="Layer 1" xmlns="http://www.w3.org/2000/svg" width="393.44" height="440" viewBox="0 0 393.44 440">
  <title>background-02</title>
  <path d="M423.728,90.22539a30.37823,30.37823,0,1,1-43.29909-41.64582L351.381,20.65588,180.68107,191.3558,209.11728,219.792a30.38521,30.38521,0,1,1,42.68738,42.68738l31.23023,31.23023L455.73527,121.00924Z" fill="#e0b4a4" stroke="#694138" stroke-miterlimit="10" stroke-width="9" opacity="0.12"/>
  <g opacity="0.14">
    <circle cx="238.48373" cy="161.18832" r="4.76965" fill="#694138"/>
    <circle cx="250.71892" cy="173.4235" r="4.76965" fill="#694138"/>
    <circle cx="262.33197" cy="185.03655" r="4.76965" fill="#694138"/>
    <circle cx="274.77453" cy="197.47911" r="4.76965" fill="#694138"/>
    <circle cx="287.00971" cy="209.71429" r="4.76965" fill="#694138"/>
    <circle cx="299.03752" cy="221.7421" r="4.76965" fill="#694138"/>
    <circle cx="311.34487" cy="234.04945" r="4.76965" fill="#694138"/>
  </g>
  <g opacity="0.11">
    <g>
      <path d="M333.58561,95.06635a1.66942,1.66942,0,0,1-1.89873-1.25724,20.492,20.492,0,0,0-8.07491-9.37843c-1.64631-1.07506-2.42759-.71119-2.6219,1.21827a46.91954,46.91954,0,0,1-1.5976,8.09146c-.69919,2.48149-1.87861,4.527-4.38582,5.66391a43.81236,43.81236,0,0,0-18.69352,15.32485,21.56309,21.56309,0,0,1-11.94265,8.83517,48.22874,48.22874,0,0,1-5.772,1.48614c-1.89815.34512-2.22961,1.17641-1.07622,2.70469a20.15319,20.15319,0,0,0,8.42448,6.74428c1.18622.48686,1.419,1.05571,1.23344,2.30079a48.03079,48.03079,0,0,0,90.04821,29.24205,48.07865,48.07865,0,0,0-43.64275-70.97594Zm30.75507,23.24877c.557.62294.62811.97316-.08962,1.56782-1.07659.892-3.78681,5.15181-4.20275,13.44595-.33226,6.59753.05377,11.81666-.23762,16.40967-.33641,5.33269-1.96905,9.27134-1.22157,8.869,4.21289-2.26013,5.90369-6.3714,6.29474-6.16279,1.38456.73858,2.23559,4.93974,2.432,10.48882a25.78886,25.78886,0,0,1-1.92725,10.9364c-1.34614,3.18521-3.07849,5.2683-6.82743,8.27487-1.48233,1.18809-6.96773,4.70748-12.26108,5.41713a12.5143,12.5143,0,0,1-2.73541.08854c.39259-1.42315,2.00887-9.61325-10.06854-17.34227-9.01947-5.77527-19.32919-4.08612-24.25984-3.15921-12.82735-9.41548-13.19445-20.12306-11.6769-29.64879a17.891,17.891,0,0,1,15.03667-14.18348,24.4846,24.4846,0,0,1,5.44443-.0894c2.13839.19712,2.301.02591,2.30138-2.22084.00187-5.39915,1.58719-10.13348,6.04767-13.50039,4.65184-3.50928,9.98-3.91521,15.465-2.85267C351.00638,106.43318,358.213,111.50283,364.34068,118.31512Z" fill="#694138"/>
      <path d="M309.5874,128.10791c-6.52115,2.56-8.99055,9.863-5.65716,16.73036a10.59049,10.59049,0,0,0,6.614,5.326c5.359,1.63957,13.35951-1.4278,14.48746-9.04643.03947-.49333.08991-.98607.11674-1.4801A11.37623,11.37623,0,0,0,309.5874,128.10791Zm3.91559,10.48731a1.65581,1.65581,0,0,1-.77838-2.37587,1.76654,1.76654,0,1,1,3.15576,1.58813A1.66436,1.66436,0,0,1,313.503,138.59522Zm8.03085-4.18723a7.98142,7.98142,0,0,1,.73045,6.7534,10.19538,10.19538,0,0,0-1.82651-5.54268c-3.9189-3.60389-7.40035-3.79569-11.70712-.645l-.00068-.00028.00041.00055a9.57092,9.57092,0,0,0-2.27778,4.5071,13.17566,13.17566,0,0,0,.43892,4.79386c-2.85563-4.23468-2.67325-8.29683.35439-11.51034a8.7357,8.7357,0,0,1,14.28792,1.64329Z" fill="#694138"/>
      <path d="M324.85424,115.38011c-1.44849,4.6957-.02054,8.66317,3.36046,12.04957a12.58929,12.58929,0,0,0,3.76039,2.33717,10.98512,10.98512,0,0,0,11.40106-2.33788,10.83511,10.83511,0,0,0,3.46145-11.08839c-.09606-.31554-.18738-.63262-.28893-.94637a11.51961,11.51961,0,0,0-10.78442-8.0531A11.20554,11.20554,0,0,0,324.85424,115.38011Zm10.3315,3.12292a1.53464,1.53464,0,0,1-.70322-2.22262,1.609,1.609,0,0,1,2.27495-.875,1.62951,1.62951,0,0,1,.78074,2.3731A1.57914,1.57914,0,0,1,335.18574,118.503Zm8.2256-3.96547,0,0,.00009.00025.00019.00027,0,.00007a8.1715,8.1715,0,0,1,.22962,7.61371,9.50851,9.50851,0,0,0-1.77615-6.2145c-3.96982-3.39762-6.87586-3.67078-11.13313-1.04646a8.76246,8.76246,0,0,0-2.90014,7.45166c-1.83272-2.98239-1.16387-6.88157,1.39622-9.7012A8.70038,8.70038,0,0,1,343.41134,114.53756Z" fill="#694138"/>
      <path d="M331.26988,130.12679c-3.57638-.11993-5.61426,1.73765-5.36243,4.95853a7.80873,7.80873,0,0,0,2.13055,4.64933,9.00141,9.00141,0,0,0,1.69665,1.25571,4.28278,4.28278,0,0,0,5.06471-.10559c1.67476-1.17,1.92405-2.80334,1.44146-4.65284.09932-.70188-1.09762-.94279-.61638-1.80269.41975-.75.0366-1.34026-.4414-1.931a7.49819,7.49819,0,0,0-2.13918-1.77953,4.64,4.64,0,0,0-1.40086-.51442C331.53187,130.182,331.43866,130.16234,331.26988,130.12679Z" fill="#694138"/>
    </g>
  </g>
</svg>
