<?xml version="1.0" encoding="utf-8"?>
<!-- Generator: Adobe Illustrator 23.0.2, SVG Export Plug-In . SVG Version: 6.00 Build 0)  -->
<svg version="1.1" id="Layer_1" xmlns="http://www.w3.org/2000/svg" xmlns:xlink="http://www.w3.org/1999/xlink" x="0px" y="0px"
	 viewBox="0 0 205 26" style="enable-background:new 0 0 205 26;" xml:space="preserve">
<style type="text/css">
	.st0{fill:#49231A;}
	.st1{fill:#FAE0C5;}
	.st2{fill:#82574B;}
	.st3{fill:#694138;}
	.st4{fill:#C5A992;}
	.st5{fill:#BE8676;}
	.st6{fill:#C4A891;}
	.st7{fill:#C6AA93;}
	.st8{fill:#C4A892;}
	.st9{fill:#FDE29D;}
	.st10{fill:#FCC634;}
	.st11{fill:#F8F7F7;}
	.st12{fill:#F3BD33;}
	.st13{fill:#FBFBFB;}
	.st14{fill:#FAC434;}
	.st15{fill:#9E9394;}
	.st16{fill:#5B4D4B;}
	.st17{fill:#D3CDCD;}
	.st18{fill:none;stroke:#49231A;stroke-width:0.5653;stroke-linecap:round;stroke-miterlimit:10;}
	.st19{fill:none;stroke:#49231A;stroke-width:0.5181;stroke-linecap:round;stroke-miterlimit:10;}
</style>
<g>
	<g>
		<path class="st0" d="M15.6,26C9.8,26,4.9,21.8,4.1,16C3.4,10.7,6.6,5.5,11.6,3.7c0.3-0.1,0.4-0.2,0.3-0.5
			c-0.1-0.9,0.1-1.7,0.5-2.5c0.2-0.4,0.4-0.4,0.7-0.1c0.3,0.4,0.6,0.7,1,1C15,2.5,16,3,17.3,3.2c2,0.2,3.8,1,5.3,2.2
			c0.5,0.4,1.1,0.4,1.7,0.3c0.6-0.1,1.3-0.3,1.9-0.6c0.4-0.2,0.6-0.1,0.6,0.4c-0.1,1-0.4,2-1.1,2.8c-0.2,0.2-0.2,0.3-0.1,0.5
			c2.6,4.6,1.8,10.3-2,13.9C21.4,24.9,18.7,26,15.6,26z"/>
	</g>
	<g>
		<path class="st1" d="M12.6,6.1c1.6-0.7,3.6-0.1,4.7,1.5c0.3,0.4,0.5,0.7,0.6,1.1c0.2,0.5,0.3,0.5,0.7,0.2c1.1-0.6,2.3-0.8,3.5-0.2
			c1.3,0.6,1.9,1.7,2.3,2.9c0.7,2.1,0.4,4.2-0.4,6.3c-0.1,0.2-0.1,0.2-0.3,0.2c-0.3-0.1-1.5-0.2-3.3,0.6c-1.4,0.7-2.5,1.3-3.5,1.8
			c-1.2,0.5-2.2,0.6-2,0.7c1,0.6,2,0.5,2,0.6c0,0.4-0.8,1-1.9,1.7c-0.8,0.4-1.6,0.7-2.5,0.8c-0.8,0.1-1.5-0.1-2.5-0.5
			c-0.6-0.3-3.5-1.9-3-3.8c0.2-0.9,2.3-4.5,2.1-7.3c0.1-1.9,0.4-2.1,0.4-2.3c0.1-0.9,0.4-0.5,0.8-1.4c0.4-0.9,1-1.7,1.6-2.5
			C12.2,6.4,12.4,6.2,12.6,6.1z"/>
	</g>
	<g>
		<path class="st2" d="M26.1,5.9C26,6.7,25.6,7.5,25,8.2c-0.1,0.1-0.1,0.2-0.2,0.3c-0.3,0.4-0.3,0.6-0.1,1c0.8,1.3,1.3,2.7,1.6,4.2
			c0.1,0.4,0.1,0.7,0.1,1.1c0,0.1,0.1,0,0,0c0,0,0,0,0,0c0.1-0.3-0.2-0.6,0-0.9c0.2,0.6,0,1.1-0.1,1.7c0,0.1,0,0.2,0,0.2
			c-0.3,0.4-1.1,2-1.6,2c0.3-0.6,0.7-3.1,0.6-4c-0.1-1.5-0.4-2.9-1.2-4.1c-0.8-1.2-1.9-1.8-3.3-1.9c-0.7-0.1-1.5,0.1-2.2,0.5
			c-0.3,0.1-0.4,0.1-0.5-0.2c-0.6-1.3-1.6-2.2-3-2.6c-0.2-0.1-0.5-0.1-0.8-0.2c-0.3-0.1-0.6,0-0.9,0c-0.3,0-0.3-0.1-0.3-0.4
			c0-0.1,0.1-0.2,0.1-0.3C13.6,4,13.6,3.5,13.4,3c-0.1-0.2-0.3-0.4-0.2-0.7c0.2-0.2,0.3,0,0.3,0.1c0.8,1.1,1.9,1.6,3.2,1.8
			c1.9,0.2,3.7,0.9,5.2,2c1.3,0.9,2.5,0.9,3.8-0.1C25.8,6,25.9,5.9,26.1,5.9z"/>
	</g>
	<g>
		<path class="st3" d="M13.2,2.2c0,0.2,0.1,0.4,0.2,0.6c0.3,0.6,0.3,1.3,0.1,1.9c-0.1,0.4-0.1,0.4,0.4,0.4c0.2,0,0.4-0.1,0.7,0.1
			c-1.6-0.1-3.1,0.4-4.3,1.4c-1.5,1.2-2.4,2.7-3,4.4c-0.1,0.4-0.3,0.7-0.8,0.9c-0.7,0.3-1.3,0.7-1.8,1.6c0-0.5,0.1-0.8,0.2-1.2
			C5.3,10.3,6.2,8.5,7.7,7c1.3-1.3,2.7-2.2,4.4-2.8c0.5-0.2,0.6-0.3,0.5-0.8c-0.2-0.7,0-1.4,0.2-2c0.1-0.2,0.1-0.2,0.2,0
			C13,1.6,13.3,1.9,13.2,2.2z"/>
	</g>
	<g>
		<path class="st4" d="M12.6,6.1c-0.8,0.8-1.5,1.7-2,2.8c-0.4,0.9-1,1.8-1.3,2.9c-0.1,1.4-0.1,0.5-0.5,0.2c-0.3-0.2-0.6-0.2-1-0.3
			c-0.1,0-0.2,0-0.1-0.2C8.6,9.1,10,7.1,12.6,6.1C12.6,6.1,12.6,6.1,12.6,6.1z"/>
	</g>
	<g>
		<path class="st5" d="M13.2,2.2c-0.1-0.3-0.3-0.5-0.2-0.9c0.6,0.7,1.3,1.3,2,1.8c0.6,0.4,1.3,0.5,2.1,0.6c1.8,0.2,3.5,0.9,4.9,2
			c0.8,0.6,1.6,0.8,2.6,0.5C25,6.1,25.4,6,25.8,5.9c0.1,0,0.2-0.2,0.3,0C25.4,6.6,24.5,7,23.4,7c-0.5,0-1-0.2-1.4-0.5
			c-1.2-0.9-2.4-1.6-3.8-1.9c-0.7-0.2-1.5-0.3-2.2-0.4c-1.2-0.2-2.1-0.8-2.7-1.8C13.3,2.3,13.2,2.3,13.2,2.2z"/>
	</g>
	<g>
		<path class="st3" d="M26.4,15.9c-1.2,0.6-1.5,1.7-1.5,1.8c-0.1,0.4-0.4,0.7-0.6,1.1c0,0.1-0.1,0.1-0.1,0.1c-0.1,0-0.1,0-0.1,0
			c-0.6-0.3-1.2-0.3-1.9-0.1c-0.7,0.2-1.4,0.5-2,0.8c-1.1,0.5-2,1.4-3.5,1.7c0.6,0.2,1,0.2,1.4,0.2c-0.2,0.8-1.2,2.3-3.4,3.1
			c-0.2,0.1-0.7,0.2-1,0.3c-0.1,0-0.1,0.1-0.1,0.1c0,0,0,0.1,0,0.1c0.2,0.3,1.9,0.3,2.3,0.3c2.2-0.1,3.3-0.3,4.7-1.1
			c1.2-0.6,2.6-1.7,3.4-2.5c0.3-0.3,1.5-2,1.8-2.9C26.1,17.9,26.4,17,26.4,15.9z"/>
	</g>
	<g>
		<path class="st5" d="M26.5,13.9c0,0.3,0,0.6,0,0.9c-0.2-0.9-0.4-1.9-0.7-2.8c-0.3-0.9-0.7-1.8-1.2-2.6c-0.2-0.4-0.2-0.8,0-1
			c0,0,0.1-0.1,0.2,0C24.8,8.7,25,8.8,25,9C25.9,10.5,26.5,12.2,26.5,13.9z"/>
	</g>
	<g>
		<path class="st0" d="M11.8,8.2c1.1-1.5,2.9-1.8,4.2-0.7c1.5,1.3,1.2,3.7-0.7,4.6c-0.1,0-0.2,0.1-0.3,0.1c-1.7,0.6-3.3-0.7-3.5-2
			C11.3,9.4,11.4,8.8,11.8,8.2z"/>
	</g>
	<g>
		<path class="st0" d="M18.2,11.3c0.3-1.1,1-1.8,2.2-2.1c1.2-0.2,2.4,0.3,2.9,1.4c0.5,1,0.3,2.3-0.5,3.2c-0.1,0.1-0.1,0.1-0.2,0.2
			c-0.8,0.7-1.7,0.9-2.7,0.5c-1-0.4-1.6-1.1-1.8-2.1C18.1,12,18.1,11.7,18.2,11.3z"/>
	</g>
	<g>
		<path class="st0" d="M15.6,12.7c0.1-0.4,0.4-0.7,0.7-1c0.7-0.4,1.3-0.2,1.6,0.6c0,0,0,0.1,0,0.1c0,0.1,0.1,0.2,0,0.4
			c0,0.2,0,0.4-0.1,0.7c-0.1,0.2-0.2,0.3-0.4,0.3c-0.2,0-0.2,0.3-0.3,0.3c-0.3,0.3-0.7,0.4-1.1,0.2c-0.4-0.2-0.6-0.6-0.6-1.1
			C15.5,13,15.5,12.8,15.6,12.7z"/>
	</g>
	<g>
		<path class="st4" d="M11.8,8.2c-0.4,0.8-0.5,1.6-0.1,2.5c0.5,1.2,1.7,1.8,3,1.6c0.1,0,0.2,0,0.3,0c-0.9,0.4-1.7,0.3-2.5-0.2
			c-1.2-0.8-1.6-2.4-0.8-3.6C11.6,8.3,11.7,8.2,11.8,8.2z"/>
	</g>
	<g>
		<path class="st6" d="M18.2,11.3c0,0.4-0.1,0.8,0,1.2c0.4,1.8,2.5,2.7,4.1,1.7c0.1-0.1,0.2-0.1,0.3-0.2c-0.4,0.6-1,0.7-1.7,0.8
			c-1.4,0.1-2.7-1-2.8-2.2C18.1,12.6,18,11.6,18.2,11.3z"/>
	</g>
	<g>
		<path class="st7" d="M17.2,17.4c-0.6,0-1.2-0.8-1.1-1.3c0-0.1,0.2-0.2,0.3-0.1c0.4,0.6,0.9,0.8,1.5,0.8c0.1,0,0.1,0,0.1,0.1
			c0,0.1,0,0.1-0.1,0.2C17.7,17.2,17.5,17.3,17.2,17.4z"/>
	</g>
	<g>
		<path class="st7" d="M13.9,15.6c-0.6,0.1-1-0.7-1-1.2c0,0,0-0.1,0.1-0.1c0.1,0,0.2,0,0.2,0.1c0.3,0.5,0.8,0.7,1.5,0.7
			c0.1,0,0.2,0,0.2,0.1c0,0.1-0.1,0.1-0.2,0.2C14.4,15.6,14.2,15.6,13.9,15.6z"/>
	</g>
	<g>
		<path class="st7" d="M15,17.7c-0.6,0-1.2-0.7-1.1-1.2c0,0,0-0.1,0.1-0.1c0.1,0,0.1,0,0.2,0.1c0.4,0.5,0.9,0.7,1.6,0.8
			c0.1,0,0.1,0,0.2,0.1c0,0.1,0,0.1-0.1,0.2C15.5,17.5,15.2,17.6,15,17.7z"/>
	</g>
	<g>
		<path class="st7" d="M16,19.7c-0.6,0-1.2-0.7-1.1-1.2c0,0,0-0.1,0.1-0.1c0.1,0,0.1,0,0.2,0.1c0.4,0.5,0.9,0.7,1.6,0.8
			c0.1,0,0.1,0,0.2,0.1c0,0.1,0,0.1-0.1,0.2C16.6,19.5,16.3,19.6,16,19.7z"/>
	</g>
	<g>
		<path class="st7" d="M13,18.5c-0.6,0-1.2-0.7-1.1-1.2c0,0,0-0.1,0.1-0.1c0.1,0,0.1,0,0.2,0.1c0.4,0.5,0.9,0.7,1.6,0.8
			c0.1,0,0.1,0,0.2,0.1c0,0.1,0,0.1-0.1,0.2C13.5,18.4,13.2,18.5,13,18.5z"/>
	</g>
	<g>
		<path class="st7" d="M14,20.4c-0.6,0-1.2-0.7-1.1-1.2c0,0,0-0.1,0.1-0.1c0.1,0,0.1,0,0.2,0.1c0.4,0.5,0.9,0.7,1.6,0.8
			c0.1,0,0.1,0,0.2,0.1c0,0.1,0,0.1-0.1,0.2C14.5,20.3,14.3,20.4,14,20.4z"/>
	</g>
	<g>
		<path class="st7" d="M14.1,22.4c-0.5,0-1-0.6-0.9-1.1c0,0,0-0.1,0.1-0.1c0.1,0,0.1,0,0.1,0.1c0.3,0.5,0.8,0.6,1.3,0.6
			c0.1,0,0.1,0,0.1,0.1c0,0.1,0,0.1-0.1,0.1C14.5,22.3,14.3,22.4,14.1,22.4z"/>
	</g>
	<g>
		<path class="st7" d="M12.1,21.4c-0.5,0-1-0.6-0.9-1.1c0,0,0-0.1,0.1-0.1c0.1,0,0.1,0,0.1,0.1c0.3,0.5,0.8,0.6,1.3,0.6
			c0.1,0,0.1,0,0.1,0.1c0,0.1,0,0.1-0.1,0.1C12.5,21.2,12.3,21.3,12.1,21.4z"/>
	</g>
	<g>
		<path class="st7" d="M12.4,23c-0.4,0-0.9-0.6-0.8-1c0,0,0-0.1,0.1-0.1c0.1,0,0.1,0,0.1,0.1c0.3,0.4,0.7,0.6,1.2,0.6
			c0,0,0.1,0,0.1,0.1c0,0.1,0,0.1-0.1,0.1C12.8,22.8,12.6,22.9,12.4,23z"/>
	</g>
	<g>
		<path class="st8" d="M15.6,12.7c0,0.1,0,0.2,0,0.3c-0.1,0.9,0.7,1.7,1.7,1.1c-0.3,0.4-0.7,0.6-1.1,0.4c-0.4-0.1-0.7-0.5-0.7-1
			C15.4,13.2,15.4,12.9,15.6,12.7z"/>
	</g>
	<g>
		<path class="st9" d="M15.6,10.6c0.3-1.2,0-2-1.2-2.5c0-0.3,0-0.5,0.3-0.6c1.4,0.3,2.1,2,1.3,3.2C15.8,10.8,15.7,10.8,15.6,10.6z"
			/>
	</g>
	<g>
		<path class="st10" d="M14.7,7.5c-0.1,0.2-0.2,0.4-0.3,0.6C14,8,13.6,8,13.2,8.1c-0.4,0.1-0.7,0.4-1,0.6
			C12.8,7.7,13.7,7.2,14.7,7.5z"/>
	</g>
	<g>
		<path class="st11" d="M15,9.5c0,0.3-0.2,0.4-0.4,0.4c-0.3,0-0.4-0.2-0.4-0.4c0-0.3,0.2-0.4,0.4-0.4C14.8,9.1,15,9.2,15,9.5z"/>
	</g>
	<g>
		<path class="st12" d="M15.6,10.6c0.1,0,0.3,0.1,0.4,0.1c-0.3,0.5-0.8,0.8-1.3,0.9C15,11.4,15.4,11,15.6,10.6z"/>
	</g>
	<g>
		<path class="st9" d="M21.4,9.9c1.4,0.4,2,2,1.2,3.2c-0.2,0.1-0.4,0-0.5-0.2c0.3-1.2,0-1.9-1-2.5C21,10.2,21.1,9.9,21.4,9.9z"/>
	</g>
	<g>
		<path class="st10" d="M21.4,9.9c-0.2,0.1-0.3,0.3-0.3,0.6c-0.6-0.2-1.3-0.2-1.9,0.2C19.6,10,20.5,9.7,21.4,9.9z"/>
	</g>
	<g>
		<path class="st13" d="M21.7,11.8c0,0.3-0.1,0.4-0.4,0.4c-0.3,0-0.4-0.2-0.4-0.4c0-0.2,0.1-0.4,0.4-0.4
			C21.5,11.4,21.7,11.5,21.7,11.8z"/>
	</g>
	<g>
		<path class="st14" d="M22.1,12.9c0.2,0.1,0.3,0.2,0.5,0.2c-0.4,0.6-0.9,0.8-1.6,0.9C21.5,13.8,21.9,13.4,22.1,12.9z"/>
	</g>
	<g>
		<path class="st15" d="M17.2,12.9c-0.1-0.1-0.3-0.2-0.4-0.3c-0.1-0.1-0.3-0.2-0.2-0.4c0.1-0.2,0.3-0.2,0.5-0.1
			C17.3,12.4,17.4,12.6,17.2,12.9z"/>
	</g>
	<g>
		<path class="st16" d="M16.2,12.8c0.1,0.2,0.3,0.4,0.4,0.6c0,0.1,0.1,0.2,0,0.2c-0.1,0.1-0.2,0-0.3,0
			C16.1,13.4,16.1,13.1,16.2,12.8z"/>
	</g>
	<g>
		<path class="st4" d="M10.4,20.8c0.6-1,0.8-2.2,0.9-3.4c0.1-1.2,0-2.3-0.4-3.4c-0.1-0.3-0.3-0.6-0.4-0.9c-0.3-0.6-0.6-1.2-0.9-1.8
			c0,0,0,0,0-0.1c0,0-0.1,0-0.1,0C9.1,11.4,9,11.8,9,12.2c0,0.5,0,1,0.1,1.5c0.1,0.3,0.2,0.7,0.4,1c0.2,0.7,0.3,1.4,0.3,2.1
			c0,0.9-0.1,1.8-0.6,2.5c-0.5,0.6-0.8,1.5-1.5,1.7c-0.3,0.1-0.3,1.1,0.3,1.3C8.6,22.5,9.7,22,10.4,20.8z"/>
	</g>
	<g>
		<path class="st17" d="M17.2,12.9c0-0.3,0-0.5-0.1-0.7c0.2,0.2,0.3,0.4,0.3,0.7C17.4,13,17.4,13,17.2,12.9z"/>
	</g>
	<g>
		<path class="st3" d="M4.9,16.8c-0.3-1.4-0.5-3.2,0-4.2c0.1-0.3,0.5-0.7,0.7-0.9c0.2-0.2,0.5-0.3,0.8-0.4c0.4-0.1,1-0.6,2.2,0.5
			c0.8,0.7,1.6,2.3,1.6,3.8c0,3.5-1.1,4.8-1.9,5.4c-0.3,0.2-0.8,0.5-1.2,0.2c-0.3-0.2-0.8-1-1-1.2C5.5,19,5.1,17.9,4.9,16.8z"/>
	</g>
	<g>
		<path class="st0" d="M7.2,22c-0.2,0-0.3-0.1-0.3-0.3c0-0.2,0.1-0.3,0.3-0.4c0.1,0,2.3-0.4,2.6-4.1c0.3-3.9-2.3-6-2.3-6
			c-0.1-0.1-0.2-0.3,0-0.4c0.1-0.1,0.3-0.2,0.4,0c0.1,0.1,2.9,2.4,2.5,6.6C10,21.5,7.4,22,7.2,22C7.2,22,7.2,22,7.2,22z"/>
	</g>
	<g>
		<path class="st2" d="M6.7,12.9c0.8,1.1,1,2.6,1,4c0,0.6-0.1,1.2-0.3,1.8c-0.2,0.6-0.7,1.1-1.3,1.2C5.8,20,5,18.6,5,18.3
			c-0.2-1.8-0.7-3.1-0.7-5C4.3,11.8,5.9,11.8,6.7,12.9z"/>
	</g>
	<g>
		<path class="st2" d="M6.4,20.6C7.1,20.4,7.6,19.7,8,19c0.4-0.7,0.6-1.5,0.6-2.3c0-0.8-0.1-1.6-0.3-2.4c-0.2-0.8-0.6-1.5-1-2.2
			c0.5,0.7,0.9,1.4,1.2,2.2c0.3,0.8,0.4,1.6,0.4,2.4c0,0.8-0.2,1.7-0.5,2.5c-0.4,0.8-0.9,1.5-1.8,1.9L6.4,20.6z"/>
	</g>
	<g>
		<path class="st5" d="M22.3,21.9c-1.1,1-2.4,1.4-3.1,0.5c-0.4-0.6,0.4-1.6,1.6-2.5c1.2-0.9,2.1-1.1,2.7-0.7
			C24.2,19.7,23.3,21,22.3,21.9z"/>
	</g>
	<g>
		<path class="st0" d="M6.8,21.6c-0.1,0-0.2,0-0.2-0.1C2.7,17,4.5,11.4,4.5,11.3c0-0.2,0.2-0.2,0.4-0.2c0.2,0,0.2,0.2,0.2,0.4
			c0,0.1-1.7,5.4,2,9.7c0.1,0.1,0.1,0.3,0,0.4C6.9,21.6,6.9,21.6,6.8,21.6z"/>
	</g>
	<g>
		<path class="st2" d="M21.9,21.6c-1.1,1-2.4,1.3-2.7,0.8s0.3-1.6,1.5-2.5c1.2-0.9,2.3-1.1,2.8-0.7C23.8,19.4,22.9,20.7,21.9,21.6z"
			/>
	</g>
	<g>
		<path class="st2" d="M26.5,15.2c-0.2,1.5-0.6,3-1.3,4.4c-0.7,1.4-1.7,2.6-2.9,3.5c-1.2,0.9-2.6,1.6-4.1,1.9
			c-0.4,0.1-0.7,0.2-1.1,0.2l-1.1,0.1c-0.7,0-1.5,0-2.2,0c0.7,0,1.5,0,2.2-0.1l1.1-0.2c0.4,0,0.7-0.1,1.1-0.2c1.4-0.3,2.8-1.1,3.9-2
			c1.1-0.9,2-2.1,2.6-3.4c0.6-1.3,1-2.8,1.1-4.2L26.5,15.2z"/>
	</g>
	<g>
		<path class="st5" d="M17.4,24.1c0.4,0.2,0.9,0.1,1.3-0.1c0.4-0.2,0.8-0.5,1-0.8c0.1-0.1,0.2-0.1,0.3,0c0.1,0.1,0.1,0.2,0,0.3
			c0,0,0,0,0,0c-0.4,0.3-0.8,0.6-1.3,0.7C18.3,24.4,17.8,24.3,17.4,24.1z"/>
	</g>
	<g>
		<path class="st5" d="M19.4,21.8c0.9-0.2,1.7-0.9,2-1.7c0.1-0.1,0.2-0.2,0.3-0.1c0.1,0.1,0.2,0.2,0.1,0.3c0,0,0,0,0,0l0,0
			C21.3,21.3,20.4,21.8,19.4,21.8z"/>
	</g>
	<g>
		<path class="st5" d="M7.3,17.1c0-1.2-0.4-2.4-1.1-3.3c-0.1-0.1-0.1-0.3,0-0.4c0.1-0.1,0.3-0.1,0.4,0c0,0,0,0,0,0
			C7.4,14.6,7.5,15.9,7.3,17.1z"/>
	</g>
	<g>
		<path class="st5" d="M6.6,17.8c0-1.2-0.3-2.4-1.1-3.3c-0.1-0.1-0.1-0.3,0-0.4s0.3-0.1,0.4,0c0,0,0,0,0,0
			C6.6,15.3,6.7,16.6,6.6,17.8z"/>
	</g>
	<g>
		<path class="st5" d="M17.7,23.3c0.5,0.2,1.1-0.1,1.4-0.5c0-0.1,0.1-0.1,0.2,0c0.1,0,0.1,0.1,0,0.2c0,0,0,0,0,0l0,0
			C18.9,23.3,18.2,23.5,17.7,23.3z"/>
	</g>
	<g>
		<path class="st5" d="M18.9,7.6c0.6-0.6,1.6-0.7,2.4-0.6c0.4,0.1,0.8,0.2,1.2,0.4c0.4,0.2,0.7,0.5,0.9,0.8
			c-0.8-0.3-1.5-0.7-2.2-0.7C20.5,7.3,19.7,7.4,18.9,7.6z"/>
	</g>
	<g>
		<path class="st5" d="M14.2,4.8c0.8-0.3,1.7-0.1,2.5,0.4c0.4,0.2,0.7,0.5,0.9,0.9c0.3,0.3,0.4,0.7,0.5,1.1
			c-0.6-0.6-1.1-1.2-1.8-1.5C15.8,5.2,15.1,5,14.2,4.8z"/>
	</g>
	<g>
		<path class="st4" d="M23.5,17.6c-0.3-0.1-0.9-0.1-1.4-0.1c-0.5,0.1-1,0.2-1.5,0.4c-1,0.4-1.9,0.9-2.7,1.4c0.8-0.6,1.7-1.2,2.6-1.7
			c0.5-0.2,1-0.4,1.5-0.6c0.5-0.1,1-0.2,1.7,0c0.1,0,0.2,0.2,0.2,0.3C23.9,17.6,23.7,17.7,23.5,17.6C23.6,17.7,23.6,17.7,23.5,17.6
			L23.5,17.6z"/>
	</g>
	<g>
		<path class="st4" d="M10.6,8.8c-0.1,0.3-0.2,0.7-0.1,1.1c0,0.4,0.1,0.7,0.3,1.1c0.2,0.3,0.4,0.7,0.7,0.9c0.3,0.3,0.6,0.5,0.9,0.8
			c-0.4-0.2-0.7-0.4-1-0.7c-0.3-0.3-0.6-0.6-0.8-0.9c-0.2-0.4-0.4-0.7-0.5-1.2C9.9,9.5,9.9,9,10,8.6c0-0.2,0.2-0.3,0.4-0.2
			C10.5,8.4,10.6,8.5,10.6,8.8C10.6,8.7,10.6,8.7,10.6,8.8L10.6,8.8z"/>
	</g>
</g>
<g>
	<path class="st0" d="M42.3,13c0,1-0.1,1.8-0.4,2.5c-0.3,0.7-0.6,1.3-1.1,1.8c-0.5,0.5-1.1,0.9-1.7,1.1c-0.7,0.3-1.4,0.4-2.2,0.4
		c-0.8,0-1.6-0.1-2.3-0.4c-0.7-0.3-1.3-0.6-1.8-1.1c-0.5-0.5-0.9-1.1-1.1-1.8c-0.3-0.7-0.4-1.6-0.4-2.5c0-0.9,0.1-1.8,0.4-2.5
		c0.3-0.7,0.6-1.3,1.1-1.8c0.5-0.5,1.1-0.9,1.8-1.1c0.7-0.3,1.5-0.4,2.3-0.4c0.8,0,1.6,0.1,2.3,0.4s1.3,0.7,1.7,1.2
		c0.5,0.5,0.9,1.1,1.1,1.8C42.2,11.3,42.3,12.1,42.3,13z M36.8,9.2c-0.5,0-1,0.1-1.4,0.3c-0.4,0.2-0.7,0.5-1,0.8
		c-0.3,0.4-0.5,0.8-0.6,1.2c-0.1,0.5-0.2,1-0.2,1.5c0,0.5,0,1,0.2,1.4c0.1,0.5,0.3,0.9,0.6,1.2c0.3,0.4,0.6,0.6,1,0.8
		c0.4,0.2,0.9,0.3,1.4,0.3c0.5,0,0.9-0.1,1.3-0.3c0.4-0.2,0.7-0.4,1-0.8s0.5-0.7,0.6-1.2c0.1-0.5,0.2-1,0.2-1.5c0-0.5-0.1-1-0.2-1.5
		c-0.1-0.5-0.3-0.9-0.6-1.2c-0.3-0.3-0.6-0.6-1-0.8C37.7,9.3,37.3,9.2,36.8,9.2z"/>
	<path class="st0" d="M57.3,10.4c-0.1,0.7-0.2,1.4-0.3,2.1c-0.1,0.7-0.3,1.4-0.5,2.1c-0.2,0.7-0.4,1.4-0.6,2.1
		c-0.2,0.7-0.5,1.4-0.7,2h-3c-0.3-0.8-0.6-1.7-0.9-2.5c-0.3-0.8-0.5-1.7-0.6-2.6h0c-0.2,1-0.4,1.8-0.7,2.7c-0.3,0.8-0.6,1.6-0.9,2.4
		h-3c-0.2-0.4-0.3-0.8-0.5-1.2c-0.2-0.5-0.3-0.9-0.5-1.4c-0.2-0.5-0.3-1-0.4-1.5s-0.3-1-0.4-1.5c-0.1-0.5-0.2-1-0.3-1.4
		c-0.1-0.5-0.1-0.9-0.1-1.2l2.5-0.1c0,0.5,0.1,1,0.1,1.5s0.1,1.1,0.2,1.6c0.1,0.5,0.2,1.1,0.3,1.6c0.1,0.5,0.3,1,0.4,1.5h0.1
		c0.2-0.5,0.4-1,0.6-1.6c0.2-0.6,0.3-1.1,0.5-1.7c0.1-0.5,0.2-1.1,0.3-1.6c0.1-0.5,0.2-0.9,0.2-1.3H52c0,0.4,0.1,0.9,0.2,1.4
		c0.1,0.5,0.2,1,0.4,1.6c0.1,0.5,0.3,1.1,0.5,1.6c0.2,0.5,0.3,1,0.5,1.5h0.1c0.1-0.3,0.2-0.6,0.3-0.9c0.1-0.4,0.2-0.7,0.3-1.1
		c0.1-0.4,0.2-0.8,0.2-1.2c0.1-0.4,0.1-0.8,0.2-1.2c0.1-0.4,0.1-0.7,0.1-1c0-0.3,0-0.6,0.1-0.8L57.3,10.4z"/>
	<path class="st0" d="M59.3,18.7V6.9h2.4v11.8H59.3z"/>
	<path class="st0" d="M63.5,9.4v-2h8.7v2h-3.1v9.3h-2.5V9.4H63.5z"/>
	<path class="st0" d="M72.3,14.5c0-0.7,0.1-1.3,0.3-1.8c0.2-0.5,0.5-1,0.8-1.4c0.4-0.4,0.8-0.7,1.3-0.9s1.1-0.3,1.8-0.3
		c0.6,0,1.1,0.1,1.7,0.3c0.5,0.2,1,0.4,1.3,0.8c0.4,0.4,0.7,0.8,0.9,1.4c0.2,0.5,0.3,1.2,0.3,1.9c0,0.7-0.1,1.3-0.3,1.9
		c-0.2,0.5-0.5,1-0.8,1.4c-0.4,0.4-0.8,0.7-1.3,0.9c-0.5,0.2-1.1,0.3-1.8,0.3c-0.7,0-1.2-0.1-1.8-0.3c-0.5-0.2-1-0.5-1.3-0.8
		c-0.4-0.4-0.6-0.8-0.8-1.4C72.4,15.8,72.3,15.2,72.3,14.5z M74.6,14.5c0,0.5,0,0.8,0.1,1.2c0.1,0.3,0.2,0.6,0.4,0.8
		c0.2,0.2,0.4,0.3,0.6,0.4c0.2,0.1,0.5,0.1,0.8,0.1s0.5,0,0.8-0.1c0.2-0.1,0.4-0.2,0.6-0.4c0.2-0.2,0.3-0.5,0.4-0.8
		c0.1-0.3,0.1-0.7,0.1-1.1c0-0.4,0-0.8-0.1-1.1c-0.1-0.3-0.2-0.6-0.4-0.8c-0.2-0.2-0.4-0.3-0.6-0.4c-0.2-0.1-0.5-0.1-0.8-0.1
		c-0.3,0-0.5,0-0.8,0.1c-0.2,0.1-0.4,0.2-0.6,0.4c-0.2,0.2-0.3,0.4-0.4,0.8C74.6,13.7,74.6,14.1,74.6,14.5z"/>
	<path class="st0" d="M89.5,12.4c-0.4,0.6-0.9,1.1-1.4,1.6c0.2,0.4,0.4,0.7,0.6,1.1c0.2,0.4,0.5,0.8,0.8,1.1
		c0.3,0.4,0.6,0.7,0.9,1.1c0.3,0.3,0.6,0.6,0.8,0.9l-1.7,1.1c-0.3-0.2-0.5-0.4-0.8-0.7c-0.3-0.3-0.6-0.7-0.9-1
		c-0.3-0.4-0.6-0.8-0.8-1.2c-0.3-0.4-0.5-0.8-0.6-1.1c-0.2,0.1-0.3,0.2-0.5,0.3c-0.2,0.1-0.3,0.2-0.5,0.2v3h-2.4V6.9h2.4v6.6
		c0.3-0.2,0.7-0.4,1-0.6c0.3-0.2,0.5-0.5,0.8-0.7c0.2-0.3,0.4-0.6,0.6-0.9c0.2-0.3,0.4-0.6,0.5-1h2.5C90.3,11.2,90,11.8,89.5,12.4z"
		/>
	<path class="st0" d="M95,15.6c0.1,0.5,0.4,0.8,0.8,1c0.4,0.2,0.9,0.4,1.6,0.4c0.2,0,0.4,0,0.6-0.1c0.2,0,0.4-0.1,0.5-0.1
		c0.2-0.1,0.3-0.1,0.5-0.2c0.2-0.1,0.3-0.2,0.5-0.2l0.7,1.6c-0.5,0.3-1,0.5-1.5,0.6c-0.5,0.2-1.1,0.2-1.7,0.2
		c-1.4,0-2.5-0.4-3.2-1.1c-0.7-0.7-1.1-1.8-1.1-3.3c0-0.7,0.1-1.3,0.3-1.9s0.5-1,0.9-1.4c0.4-0.4,0.8-0.6,1.3-0.8
		c0.5-0.2,1.1-0.3,1.7-0.3c0.5,0,1,0.1,1.5,0.2c0.4,0.2,0.8,0.4,1.1,0.6c0.3,0.3,0.5,0.6,0.7,0.9c0.2,0.3,0.2,0.7,0.2,1.1
		c0,0.3,0,0.6-0.1,0.9c-0.1,0.3-0.2,0.6-0.5,0.8c-0.2,0.3-0.5,0.5-0.9,0.6c-0.4,0.2-0.9,0.2-1.5,0.2H95z M96.7,12.1
		c-0.3,0-0.5,0-0.7,0.1c-0.2,0.1-0.4,0.2-0.5,0.4c-0.1,0.2-0.3,0.3-0.4,0.5c-0.1,0.2-0.2,0.4-0.2,0.6h2c0.2,0,0.3,0,0.5,0
		c0.1,0,0.2,0,0.3-0.1c0.1,0,0.2-0.1,0.2-0.2c0.1-0.1,0.1-0.2,0.1-0.3c0-0.2,0-0.3-0.1-0.5c-0.1-0.1-0.2-0.2-0.3-0.3
		c-0.1-0.1-0.3-0.1-0.4-0.2C97,12.1,96.9,12.1,96.7,12.1z"/>
	<path class="st0" d="M102.5,11.6c0.2-0.1,0.5-0.3,0.8-0.5c0.3-0.2,0.7-0.3,1.1-0.5c0.4-0.1,0.8-0.3,1.3-0.4
		c0.5-0.1,0.9-0.1,1.4-0.1c0.6,0,1.1,0.1,1.5,0.3c0.4,0.2,0.7,0.4,1,0.7c0.2,0.3,0.4,0.6,0.5,1c0.1,0.4,0.2,0.8,0.2,1.2v5.4H108
		v-5.2c0-0.2,0-0.3,0-0.5c0-0.2-0.1-0.3-0.2-0.4c-0.1-0.1-0.2-0.2-0.4-0.3c-0.2-0.1-0.3-0.1-0.6-0.1c-0.2,0-0.3,0-0.5,0.1
		c-0.2,0-0.4,0.1-0.5,0.2c-0.2,0.1-0.3,0.1-0.5,0.2s-0.3,0.1-0.4,0.2v6h-2.4V11.6z"/>
</g>
</svg>
