<svg id="Layer_1" data-name="Layer 1" xmlns="http://www.w3.org/2000/svg" xmlns:xlink="http://www.w3.org/1999/xlink" width="24" height="24" viewBox="0 0 24 24">
  <defs>
    <style>
      .cls-1 {
        opacity: 0.85;
        fill: url(#linear-gradient);
      }

      .cls-2 {
        fill: #49231a;
      }

      .cls-3 {
        fill: #fae0c5;
      }

      .cls-4 {
        fill: #82574b;
      }

      .cls-5 {
        fill: #694138;
      }

      .cls-6 {
        fill: #c5a992;
      }

      .cls-7 {
        fill: #be8676;
      }

      .cls-8 {
        fill: #c4a891;
      }

      .cls-9 {
        fill: #c6aa93;
      }

      .cls-10 {
        fill: #c4a892;
      }

      .cls-11 {
        fill: #fde29d;
      }

      .cls-12 {
        fill: #fcc634;
      }

      .cls-13 {
        fill: #f8f7f7;
      }

      .cls-14 {
        fill: #f3bd33;
      }

      .cls-15 {
        fill: #fbfbfb;
      }

      .cls-16 {
        fill: #fac434;
      }

      .cls-17 {
        fill: #9e9394;
      }

      .cls-18 {
        fill: #5b4d4b;
      }

      .cls-19 {
        fill: #d3cdcd;
      }

      .cls-20, .cls-21 {
        fill: none;
        stroke: #49231a;
        stroke-linecap: round;
        stroke-miterlimit: 10;
      }

      .cls-20 {
        stroke-width: 0.45609px;
      }

      .cls-21 {
        stroke-width: 0.41808px;
      }
    </style>
    <linearGradient id="linear-gradient" x1="12" y1="-8.8821" x2="12" y2="34.94288" gradientUnits="userSpaceOnUse">
      <stop offset="0" stop-color="#fae0c5"/>
      <stop offset="1" stop-color="#82574b"/>
    </linearGradient>
  </defs>
  <title>24х24----01</title>
  <circle class="cls-1" cx="12" cy="12" r="12"/>
  <g>
    <path class="cls-2" d="M11.953,20.76923A8.258,8.258,0,0,1,9.10169,4.74284c.20436-.07285.27152-.15375.24967-.37345a3.46334,3.46334,0,0,1,.341-1.82342c.13881-.29861.29158-.31593.49781-.05549a8.25024,8.25024,0,0,0,.69213.755,3.71147,3.71147,0,0,0,2.30684,1.09693A7.5287,7.5287,0,0,1,17.02637,5.938a1.37872,1.37872,0,0,0,1.21427.20674,8.07852,8.07852,0,0,0,1.35655-.412c.30862-.127.42679-.03769.3969.29912a3.52466,3.52466,0,0,1-.76883,1.98365.28663.28663,0,0,0-.03748.38972A8.266,8.266,0,0,1,11.953,20.76923Z"/>
    <path class="cls-3" d="M9.85882,6.4511a2.83967,2.83967,0,0,1,3.345,1.0563,4.17489,4.17489,0,0,1,.45422.81848c.14339.34033.18235.35117.52317.16947a2.71713,2.71713,0,0,1,2.53729-.175,3.1965,3.1965,0,0,1,1.684,2.11507,6.942,6.942,0,0,1-.25276,4.51633c-.04905.13508-.09668.17434-.24469.11351a3.58782,3.58782,0,0,0-2.38022.45023c-1.02754.48355-1.78812.96481-2.50849,1.29225-.83616.38008-1.56566.45118-1.44428.53211a4.22289,4.22289,0,0,0,1.44428.45609c0,.26993-.568.73925-1.3939,1.21774a4.434,4.434,0,0,1-1.81524.59261,3.38146,3.38146,0,0,1-1.80783-.36607C7.541,19.04372,5.49837,17.868,5.871,16.50373c.173-.63353,1.67232-3.26864,1.52029-5.245a4.47242,4.47242,0,0,1,.30406-1.67232c.0621-.63806.28167-.38795.54394-.97255A7.39006,7.39006,0,0,1,9.42015,6.80963,1.88186,1.88186,0,0,1,9.85882,6.4511Z"/>
    <path class="cls-4" d="M19.53624,6.271a2.8787,2.8787,0,0,1-.80517,1.65181c-.073.07054-.0819.16857-.142.24091a.53647.53647,0,0,0-.04252.745,8.95469,8.95469,0,0,1,1.169,3.03055,4.14866,4.14866,0,0,1,.09756.77664c.01576.03617.05891-.01292.02459.00339-.01442.00685-.02653.00115-.02359-.01475.038-.20592-.13182-.42258.032-.62176a2.8325,2.8325,0,0,1-.04466,1.2126c-.0089.05478-.01586.10986-.02371.16481-.22028.2776-.7636,1.45725-1.13631,1.44725a8.09312,8.09312,0,0,0,.44994-2.90989,5.58026,5.58026,0,0,0-.89008-2.95132,3.06308,3.06308,0,0,0-2.39759-1.38579,2.982,2.982,0,0,0-1.56543.33794c-.19239.09885-.2539.03982-.33383-.12656a3.38864,3.38864,0,0,0-2.12269-1.88815,5.42736,5.42736,0,0,0-.555-.109,1.99386,1.99386,0,0,0-.61526-.0212c-.20634.00832-.24856-.07913-.21-.25478.01815-.0828.03876-.165.05769-.24755a1.69043,1.69043,0,0,0-.09134-1.15707.741.741,0,0,1-.14529-.50381c.12842-.10923.18832.01521.23722.08695a3.00916,3.00916,0,0,0,2.28529,1.27317A7.84484,7.84484,0,0,1,16.517,6.51617a2.03726,2.03726,0,0,0,2.7049-.06249A.74258.74258,0,0,1,19.53624,6.271Z"/>
    <path class="cls-5" d="M10.25722,3.65418a.86509.86509,0,0,0,.16434.44741,1.82808,1.82808,0,0,1,.08438,1.40233c-.09205.31388-.08281.30962.25271.31972.156.0047.32235-.05524.46815.05108A4.2131,4.2131,0,0,0,8.12758,6.902,6.86757,6.86757,0,0,0,5.9418,10.09a.8395.8395,0,0,1-.56622.61367,2.02648,2.02648,0,0,0-1.26935,1.15024,3.12215,3.12215,0,0,1,.11578-.8596,7.91107,7.91107,0,0,1,5.24-5.92386c.35586-.11482.40643-.18837.32651-.557a2.71067,2.71067,0,0,1,.1674-1.47159c.04232-.12539.07329-.11795.13123-.01728C10.10389,3.24524,10.31467,3.41348,10.25722,3.65418Z"/>
    <path class="cls-6" d="M9.85882,6.4511A7.99751,7.99751,0,0,0,8.39967,8.453a11.38984,11.38984,0,0,0-.93236,2.12156c-.076.98819-.0618.32757-.361.11861a1.60847,1.60847,0,0,0-.70767-.18658c-.087-.01253-.149-.02006-.10785-.1336A6.01121,6.01121,0,0,1,9.80268,6.452.17.17,0,0,1,9.85882,6.4511Z"/>
    <path class="cls-7" d="M10.25722,3.65418c-.04427-.21322-.23634-.38651-.17008-.62959a6.39216,6.39216,0,0,0,1.47247,1.28418,3.4609,3.4609,0,0,0,1.48784.42486,7.29834,7.29834,0,0,1,3.54572,1.42349,2.013,2.013,0,0,0,1.83929.37629c.29361-.07483.58763-.14471.8762-.2387.06731-.02192.14357-.11033.22762-.02371a2.75072,2.75072,0,0,1-1.90912.80967,1.55316,1.55316,0,0,1-.98553-.37387,7.33907,7.33907,0,0,0-2.748-1.37146c-.52445-.11476-1.05871-.18387-1.58557-.2886a2.84165,2.84165,0,0,1-1.9646-1.32268C10.32517,3.69433,10.28642,3.67719,10.25722,3.65418Z"/>
    <path class="cls-5" d="M19.77776,13.46016A2.36142,2.36142,0,0,0,18.66814,14.765a3.14143,3.14143,0,0,1-.43464.80471.15969.15969,0,0,1-.09592.08273.16848.16848,0,0,1-.10277-.0317,1.75752,1.75752,0,0,0-1.36972-.10525,8.91582,8.91582,0,0,0-1.44428.60812,9.75045,9.75045,0,0,1-2.50849,1.21624,2.601,2.601,0,0,0,.98819.152A3.637,3.637,0,0,1,11.268,19.69634c-.16668.05929-.53262.15937-.69676.22539-.0428.01723-.09047.03946-.10454.08341a.1327.1327,0,0,0,.01862.10076c.11432.21132,1.37889.21057,1.61884.19856a6.8674,6.8674,0,0,0,3.34465-.76015A11.3075,11.3075,0,0,0,17.88132,17.72a9.44035,9.44035,0,0,0,1.29225-2.0524A5.88,5.88,0,0,0,19.77776,13.46016Z"/>
    <path class="cls-7" d="M19.84615,12.08276V12.761c-.17418-.67865-.29973-1.36183-.52573-2.02147a8.11415,8.11415,0,0,0-.87105-1.83863.54582.54582,0,0,1,.02371-.724c.03539-.033.0707-.06665.116-.01322.009.15163.11992.25323.18956.37324A7.59548,7.59548,0,0,1,19.84615,12.08276Z"/>
    <path class="cls-2" d="M9.238,7.9342a2.012,2.012,0,0,1,2.99572-.49567,1.95592,1.95592,0,0,1-.4898,3.29356c-.07711.03591-.15594.06813-.234.10206A1.978,1.978,0,0,1,8.96532,9.36851,1.8209,1.8209,0,0,1,9.238,7.9342Z"/>
    <path class="cls-2" d="M13.844,10.20933A1.95358,1.95358,0,0,1,15.3999,8.7245,1.92659,1.92659,0,0,1,17.50224,9.729a1.98057,1.98057,0,0,1-.34894,2.28762c-.03937.04079-.08008.0803-.12017.12041a1.86287,1.86287,0,0,1-1.96217.3722,1.88866,1.88866,0,0,1-1.27723-1.54031A2.16417,2.16417,0,0,1,13.844,10.20933Z"/>
    <path class="cls-2" d="M11.96305,11.17826a1.3426,1.3426,0,0,1,.53288-.69942c.46822-.29884.91491-.14,1.18612.41221l.01844.06287a.79785.79785,0,0,1,.03532.25413,1.289,1.289,0,0,1-.09684.46851c-.05093.12031-.10946.2262-.2572.22322-.16939-.00342-.10908.19764-.22359.23937a.67409.67409,0,0,1-.82246.15785.73632.73632,0,0,1-.42585-.75975A1.54755,1.54755,0,0,1,11.96305,11.17826Z"/>
    <path class="cls-6" d="M9.238,7.9342a2.07366,2.07366,0,0,0-.07775,1.77588,1.95326,1.95326,0,0,0,2.15312,1.14211c.06466-.01105.131-.01225.19658-.018a1.75731,1.75731,0,0,1-1.82069-.16707,1.91178,1.91178,0,0,1-.586-2.5982C9.13705,8.01145,9.16328,7.94936,9.238,7.9342Z"/>
    <path class="cls-8" d="M13.844,10.20933a3.41419,3.41419,0,0,0,.02345.84864,1.95275,1.95275,0,0,0,2.92181,1.21959c.08043-.0483.16256-.09376.2439-.14055a1.574,1.574,0,0,1-1.20732.57745,1.92439,1.92439,0,0,1-2.04516-1.57933A2.26962,2.26962,0,0,1,13.844,10.20933Z"/>
    <path class="cls-9" d="M13.14276,14.54015c-.39617-.00515-.85582-.577-.76641-.9099.029-.10788.11662-.14278.18451-.0418a1.24728,1.24728,0,0,0,1.11384.5545c.04942.00007.098.01486.10624.071.00776.05259-.02867.086-.07236.11034A1.44214,1.44214,0,0,1,13.14276,14.54015Z"/>
    <path class="cls-9" d="M10.76552,13.29314c-.41592.08193-.70631-.51332-.73041-.86314a.11616.11616,0,0,1,.0505-.08989c.06-.03272.11119.00335.144.05325a1.08953,1.08953,0,0,0,1.04547.50372c.06653-.00371.14054.00913.15857.08915.019.08451-.0587.10606-.11109.14412A.83255.83255,0,0,1,10.76552,13.29314Z"/>
    <path class="cls-9" d="M11.53674,14.76612a.86233.86233,0,0,1-.76909-.89659.146.146,0,0,1,.04863-.09121c.05053-.02934.09213.01375.11727.05029a1.26946,1.26946,0,0,0,1.12.54167c.04633.00027.10182.00057.11258.05959.00968.05314-.03457.08123-.07346.10875A1.63138,1.63138,0,0,1,11.53674,14.76612Z"/>
    <path class="cls-9" d="M12.29689,16.2104a.86232.86232,0,0,1-.76909-.89659.146.146,0,0,1,.04862-.09121c.05054-.02934.09214.01375.11728.05029a1.26945,1.26945,0,0,0,1.12.54167c.04633.00027.10182.00057.11257.05959.00969.05314-.03457.08123-.07345.10875A1.63146,1.63146,0,0,1,12.29689,16.2104Z"/>
    <path class="cls-9" d="M10.09246,15.37424a.86233.86233,0,0,1-.76909-.89659.146.146,0,0,1,.04863-.09121c.05053-.02934.09213.01375.11727.05029a1.26946,1.26946,0,0,0,1.12.54167c.04634.00027.10182.00057.11258.05959.00968.05314-.03457.08122-.07346.10875A1.63158,1.63158,0,0,1,10.09246,15.37424Z"/>
    <path class="cls-9" d="M10.85261,16.7425a.86231.86231,0,0,1-.76909-.89659.146.146,0,0,1,.04862-.0912c.05054-.02935.09214.01374.11728.05028a1.26945,1.26945,0,0,0,1.12.54167c.04633.00027.10182.00058.11257.0596.00969.05313-.03457.08122-.07345.10875A1.63142,1.63142,0,0,1,10.85261,16.7425Z"/>
    <path class="cls-9" d="M10.88714,18.18679a.73213.73213,0,0,1-.653-.76122.124.124,0,0,1,.04129-.07744c.0429-.02491.07822.01167.09957.0427a1.07781,1.07781,0,0,0,.9509.45989c.03934.00022.08644.00048.09558.05059.00822.04512-.02935.069-.06237.09233A1.385,1.385,0,0,1,10.88714,18.18679Z"/>
    <path class="cls-9" d="M9.44286,17.42664a.73213.73213,0,0,1-.653-.76122.124.124,0,0,1,.04129-.07743c.0429-.02491.07822.01167.09957.04269a1.07779,1.07779,0,0,0,.9509.45989c.03934.00023.08644.00049.09558.0506.00822.04511-.02935.069-.06237.09233A1.385,1.385,0,0,1,9.44286,17.42664Z"/>
    <path class="cls-9" d="M9.68762,18.56687a.66641.66641,0,0,1-.59437-.6929.11287.11287,0,0,1,.03758-.07049c.039-.02267.0712.01063.09063.03887a.98107.98107,0,0,0,.86555.41861c.03581.00021.07869.00044.087.046.00748.04107-.02672.06277-.05677.08405A1.26088,1.26088,0,0,1,9.68762,18.56687Z"/>
    <path class="cls-10" d="M11.96305,11.17826a1.6162,1.6162,0,0,1-.00413.196.74948.74948,0,0,0,1.19926.76492.69146.69146,0,0,1-.80942.29782.70447.70447,0,0,1-.49739-.71495A.80214.80214,0,0,1,11.96305,11.17826Z"/>
    <path class="cls-11" d="M11.97241,9.69228a1.3826,1.3826,0,0,0-.84951-1.82812.33626.33626,0,0,1,.215-.404,1.50193,1.50193,0,0,1,.90692,2.30039A.18607.18607,0,0,1,11.97241,9.69228Z"/>
    <path class="cls-12" d="M11.33786,7.46017a1.6108,1.6108,0,0,0-.215.404,1.64559,1.64559,0,0,0-.868.01919,2.26527,2.26527,0,0,0-.69169.45451A1.47328,1.47328,0,0,1,11.33786,7.46017Z"/>
    <path class="cls-13" d="M11.57146,8.865a.29542.29542,0,0,1-.29988.313.3037.3037,0,1,1-.01445-.60723A.29772.29772,0,0,1,11.57146,8.865Z"/>
    <path class="cls-14" d="M11.97241,9.69228l.27241.0682a1.37224,1.37224,0,0,1-.96541.65739A1.75293,1.75293,0,0,0,11.97241,9.69228Z"/>
    <path class="cls-11" d="M16.1693,9.16636a1.49587,1.49587,0,0,1,.86,2.30508.231.231,0,0,1-.33741-.12137,1.38376,1.38376,0,0,0-.74217-1.77353C15.88822,9.36771,15.92833,9.21328,16.1693,9.16636Z"/>
    <path class="cls-12" d="M16.1693,9.16636a.53471.53471,0,0,0-.21947.4102,1.50655,1.50655,0,0,0-1.36515.163A1.39912,1.39912,0,0,1,16.1693,9.16636Z"/>
    <path class="cls-15" d="M16.35929,10.53222c-.008.19794-.10651.30842-.29681.31047a.2715.2715,0,0,1-.30027-.29823.26385.26385,0,0,1,.28026-.28653A.27664.27664,0,0,1,16.35929,10.53222Z"/>
    <path class="cls-16" d="M16.69192,11.35007a.84427.84427,0,0,0,.33746.12129,1.405,1.405,0,0,1-1.13646.651A1.63487,1.63487,0,0,0,16.69192,11.35007Z"/>
    <path class="cls-17" d="M13.168,11.34219a2.45433,2.45433,0,0,1-.27047-.19254c-.08489-.0784-.22533-.17863-.16083-.29068.0734-.12752.235-.12271.37246-.04917C13.18994,10.98051,13.30135,11.14783,13.168,11.34219Z"/>
    <path class="cls-18" d="M12.44152,11.25317c.09981.16413.18206.29071.25439.42273.02773.05061.10018.11634.01487.17091a.15139.15139,0,0,1-.18492-.0272A.42357.42357,0,0,1,12.44152,11.25317Z"/>
    <path class="cls-6" d="M8.22745,17.03583A5.04872,5.04872,0,0,0,8.862,14.60829a5.86784,5.86784,0,0,0-.30705-2.4586c-.08746-.22168-.19544-.43459-.30324-.64712l-.671-1.32287a.07839.07839,0,0,0-.02943-.03678.0723.0723,0,0,0-.07136.01567.77771.77771,0,0,0-.2278.64169,3.731,3.731,0,0,0,.07247,1.04309c.06475.25153.17836.48759.25958.7343a4.96576,4.96576,0,0,1,.19424,1.54024,2.88268,2.88268,0,0,1-.434,1.79629c-.33919.43967-.5543,1.047-1.07086,1.25082-.25053.09885-.21671.78066.20556.935C6.92486,18.263,7.72976,17.86027,8.22745,17.03583Z"/>
    <path class="cls-19" d="M13.168,11.34219a1.83317,1.83317,0,0,0-.05884-.53236.4925.4925,0,0,1,.19771.46917C13.30431,11.37721,13.26048,11.42262,13.168,11.34219Z"/>
    <path class="cls-5" d="M4.27469,14.14727a5.53913,5.53913,0,0,1,0-3.04059,2.206,2.206,0,0,1,.51129-.62105,1.956,1.956,0,0,1,.54125-.2829c.27372-.10461.71437-.41,1.608.37185a3.9531,3.9531,0,0,1,1.14022,2.73653c0,2.50848-.80433,3.46035-1.36685,3.91979-.209.17071-.57344.34731-.83514.14515a4.8988,4.8988,0,0,1-.68656-.87232A7.98623,7.98623,0,0,1,4.27469,14.14727Z"/>
    <path class="cls-20" d="M6.25107,9.96646a5.47033,5.47033,0,0,1,1.74326,4.5319C7.76554,17.37928,5.947,17.644,5.947,17.644"/>
    <path class="cls-4" d="M5.56674,11.3047A4.616,4.616,0,0,1,6.291,14.156a3.4571,3.4571,0,0,1-.22676,1.30612,1.52331,1.52331,0,0,1-.93453.88987c-.22306.06264-.749-.91587-.779-1.1405a25.82983,25.82983,0,0,1-.52046-3.578C3.82506,10.52,4.99806,10.53289,5.56674,11.3047Z"/>
    <path class="cls-4" d="M5.377,16.85879a2.20246,2.20246,0,0,0,1.1259-1.1,4.02044,4.02044,0,0,0,.44466-1.63619,5.6977,5.6977,0,0,0-.92455-3.32,5.812,5.812,0,0,1,1.15249,3.327,4.30428,4.30428,0,0,1-.36534,1.77956,2.57543,2.57543,0,0,1-1.28137,1.37975Z"/>
    <path class="cls-7" d="M16.81712,17.796c-.79895.69756-1.74834.98819-2.20443.38007-.31476-.41968.28662-1.13583,1.13957-1.76757s1.53747-.80591,1.977-.51287C18.18538,16.19967,17.50611,17.19442,16.81712,17.796Z"/>
    <path class="cls-21" d="M4.19867,10.27052A7.914,7.914,0,0,0,5.643,17.4159"/>
    <path class="cls-4" d="M16.515,17.57053c-.80825.685-1.69558.91395-1.95044.56985s.23-1.13516,1.08294-1.7669,1.644-.76946,2.00586-.52082C17.89806,16.02084,17.212,16.9798,16.515,17.57053Z"/>
    <path class="cls-4" d="M19.85748,13.01725a9.15871,9.15871,0,0,1-.92473,3.13693A7.252,7.252,0,0,1,13.96661,20.019a10.97833,10.97833,0,0,1-1.5887.24322c-.53437.02239-1.07062.00146-1.604.00427.53414-.02179,1.069-.02,1.59916-.06107a10.88157,10.88157,0,0,0,1.56532-.29691,7.14721,7.14721,0,0,0,2.798-1.42406,7.87312,7.87312,0,0,0,2.66539-5.48756Z"/>
    <path class="cls-7" d="M13.24442,19.39228a1.30462,1.30462,0,0,0,.96217-.05176,2.16983,2.16983,0,0,0,.75469-.58784.15253.15253,0,1,1,.2326.19738l-.0176.01762a2.39485,2.39485,0,0,1-.92017.51658A1.37983,1.37983,0,0,1,13.24442,19.39228Z"/>
    <path class="cls-7" d="M14.72671,17.758a2.0888,2.0888,0,0,0,1.45544-1.19562.19113.19113,0,1,1,.35569.14.255.255,0,0,1-.01917.03664A2.28,2.28,0,0,1,14.72671,17.758Z"/>
    <path class="cls-7" d="M6.023,14.37531a3.82751,3.82751,0,0,0-.79369-2.37593.22911.22911,0,0,1,.34558-.3009.27714.27714,0,0,1,.02556.0358A4.04811,4.04811,0,0,1,6.023,14.37531Z"/>
    <path class="cls-7" d="M5.49092,14.8314a3.85413,3.85413,0,0,0-.76275-2.398.19071.19071,0,1,1,.29085-.24675.25381.25381,0,0,1,.01843.02584A4.03732,4.03732,0,0,1,5.49092,14.8314Z"/>
    <path class="cls-7" d="M13.47247,18.78417A.93736.93736,0,0,0,14.4966,18.416a.09106.09106,0,1,1,.14089.11539l-.00833.0089-.00431.004A1.0255,1.0255,0,0,1,13.47247,18.78417Z"/>
    <path class="cls-7" d="M14.34664,7.496a2.212,2.212,0,0,1,1.7277-.4524,2.62168,2.62168,0,0,1,.86631.31076,2.28153,2.28153,0,0,1,.67462.59773,5.58294,5.58294,0,0,0-1.59635-.53292A4.41679,4.41679,0,0,0,14.34664,7.496Z"/>
    <path class="cls-7" d="M11.009,5.49927a2.212,2.212,0,0,1,1.76779.254,2.62171,2.62171,0,0,1,.67764.62279,2.28162,2.28162,0,0,1,.38957.81279,5.58368,5.58368,0,0,0-1.26412-1.111A4.4173,4.4173,0,0,0,11.009,5.49927Z"/>
    <path class="cls-6" d="M17.67787,14.733a1.93939,1.93939,0,0,0-.98584-.04333,5.5252,5.5252,0,0,0-1.05224.29617,11.83283,11.83283,0,0,0-1.97728,1.02376,11.92341,11.92341,0,0,1,1.90171-1.19812,5.75762,5.75762,0,0,1,1.07054-.401,2.11822,2.11822,0,0,1,1.222-.01279.19007.19007,0,1,1-.12107.36035l-.01723-.00672Z"/>
    <path class="cls-6" d="M8.36676,8.36925a1.78763,1.78763,0,0,0-.092.75711,2.22338,2.22338,0,0,0,.21641.77969,2.93877,2.93877,0,0,0,.486.68323,4.45729,4.45729,0,0,0,.65663.55541,4.51742,4.51742,0,0,1-.734-.47166,3.10869,3.10869,0,0,1-.60593-.6527,2.51079,2.51079,0,0,1-.35732-.843A2.15024,2.15024,0,0,1,7.93612,8.219a.229.229,0,1,1,.43714.13344Z"/>
  </g>
</svg>
