<svg id="Layer_1" data-name="Layer 1" xmlns="http://www.w3.org/2000/svg" width="205" height="26" viewBox="0 0 205 26">
  <title>bannerspace</title>
  <g>
    <path d="M15.55759,26.01429A11.48162,11.48162,0,0,1,11.5932,3.73191c.28414-.1013.37752-.21377.34714-.51924a4.81509,4.81509,0,0,1,.474-2.53519c.193-.41519.40539-.43926.69213-.07717A11.4696,11.4696,0,0,0,14.06883,1.65a5.16026,5.16026,0,0,0,3.20732,1.52512,10.46765,10.46765,0,0,1,5.33519,2.21841A1.91685,1.91685,0,0,0,24.2996,5.681a11.2315,11.2315,0,0,0,1.88608-.57287c.4291-.17662.59341-.05241.55184.41588a4.90055,4.90055,0,0,1-1.06894,2.758.39851.39851,0,0,0-.05212.54184,11.405,11.405,0,0,1-1.97736,13.946A11.32376,11.32376,0,0,1,15.55759,26.01429Z" fill="#49231a"/>
    <path d="M12.64589,6.107a3.94818,3.94818,0,0,1,4.65077,1.46863,5.80511,5.80511,0,0,1,.63152,1.138c.19937.47318.25353.48826.7274.23562A3.77781,3.77781,0,0,1,22.18332,8.706a4.44435,4.44435,0,0,1,2.34139,2.94071,9.65183,9.65183,0,0,1-.35144,6.2793c-.0682.18781-.13442.24239-.3402.15782a4.98829,4.98829,0,0,0-3.30936.626c-1.42864.67231-2.48612,1.34143-3.48769,1.79669-1.16256.52844-2.17683.6273-2.00806.73982a5.87131,5.87131,0,0,0,2.00806.63412c0,.3753-.78975,1.02783-1.938,1.6931a6.165,6.165,0,0,1-2.52384.82394,4.70151,4.70151,0,0,1-2.51353-.509c-.63735-.27326-3.47733-1.90789-2.95925-3.80475.24058-.88083,2.32513-4.54456,2.11375-7.29244a6.21836,6.21836,0,0,1,.42275-2.32512c.08635-.88713.39162-.53938.75628-1.35218A10.27449,10.27449,0,0,1,12.036,6.60548,2.61608,2.61608,0,0,1,12.64589,6.107Z" fill="#fae0c5"/>
    <path d="M26.10094,5.85657a4.00237,4.00237,0,0,1-1.11946,2.29661c-.10155.09807-.11388.23437-.19742.33495a.74588.74588,0,0,0-.05912,1.03578,12.45037,12.45037,0,0,1,1.62531,4.21356,5.76911,5.76911,0,0,1,.13565,1.07979c.02191.05029.0819-.018.03418.00472-.02005.00953-.03688.0016-.0328-.02051.05288-.28629-.18327-.58754.04456-.86446a3.93841,3.93841,0,0,1-.0621,1.68594c-.01237.07616-.02205.15275-.033.22914-.30626.386-1.06168,2.02611-1.57987,2.01219a11.25217,11.25217,0,0,0,.62557-4.04578A7.7584,7.7584,0,0,0,24.245,9.71512a4.25883,4.25883,0,0,0-3.33351-1.92675,4.1461,4.1461,0,0,0-2.1765.46986c-.2675.13744-.353.05537-.46415-.176a4.71143,4.71143,0,0,0-2.95129-2.6252,7.544,7.544,0,0,0-.77163-.15148,2.77265,2.77265,0,0,0-.85543-.02948c-.28688.01157-.34559-.11-.292-.35423.02525-.11512.05389-.22937.08022-.34418a2.3503,2.3503,0,0,0-.127-1.60875,1.03034,1.03034,0,0,1-.202-.70047c.17856-.15186.26183.02115.32982.1209a4.18381,4.18381,0,0,0,3.17736,1.77015,10.90721,10.90721,0,0,1,5.24437,2.03793,2.83249,2.83249,0,0,0,3.76076-.08689A1.03266,1.03266,0,0,1,26.10094,5.85657Z" fill="#82574b"/>
    <path d="M13.1998,2.21828a1.20274,1.20274,0,0,0,.2285.62206,2.54166,2.54166,0,0,1,.11731,1.94974c-.128.4364-.11513.43048.35136.44452.21693.00653.44818-.07681.6509.071a5.8577,5.8577,0,0,0-4.309,1.42827,9.54827,9.54827,0,0,0-3.039,4.43242,1.16723,1.16723,0,0,1-.78725.85323,2.8175,2.8175,0,0,0-1.76485,1.59924,4.34055,4.34055,0,0,1,.161-1.19515,10.99918,10.99918,0,0,1,7.28546-8.23627c.49477-.15965.56508-.26191.454-.77439a3.76874,3.76874,0,0,1,.23275-2.046c.05884-.17435.1019-.164.18246-.024C12.98662,1.6497,13.27968,1.88362,13.1998,2.21828Z" fill="#694138"/>
    <path d="M12.64589,6.107a11.11948,11.11948,0,0,0-2.02874,2.78339A15.83528,15.83528,0,0,0,9.32083,11.8401c-.10569,1.37393-.08592.45544-.50189.16491A2.2364,2.2364,0,0,0,7.835,11.7456c-.121-.01743-.20712-.0279-.15-.18576a8.35778,8.35778,0,0,1,4.88276-5.45158A.23678.23678,0,0,1,12.64589,6.107Z" fill="#c5a992"/>
    <path d="M13.1998,2.21828c-.06154-.29645-.32859-.53739-.23647-.87536a8.88708,8.88708,0,0,0,2.04726,1.78546,4.812,4.812,0,0,0,2.06863.59072A10.14721,10.14721,0,0,1,22.009,5.69825a2.79871,2.79871,0,0,0,2.55726.52318c.40822-.104.817-.20119,1.21823-.33188.09358-.03048.19961-.15339.31647-.033a3.8244,3.8244,0,0,1-2.65436,1.12574,2.15944,2.15944,0,0,1-1.37023-.51981,10.204,10.204,0,0,0-3.82074-1.90683c-.72917-.15955-1.472-.25564-2.2045-.40124a3.951,3.951,0,0,1-2.73151-1.839C13.29428,2.27411,13.2404,2.25027,13.1998,2.21828Z" fill="#be8676"/>
    <path d="M26.43675,15.85209A3.28311,3.28311,0,0,0,24.894,17.66633a4.36823,4.36823,0,0,1-.6043,1.11884.22205.22205,0,0,1-.13337.115.23419.23419,0,0,1-.14289-.04406,2.44353,2.44353,0,0,0-1.9044-.14634,12.3959,12.3959,0,0,0-2.00806.8455,13.55672,13.55672,0,0,1-3.48769,1.691,3.6165,3.6165,0,0,0,1.37394.21137,5.05678,5.05678,0,0,1-3.382,3.06494c-.23175.08243-.74054.22157-.96875.31337-.05951.02395-.12579.05486-.14534.116a.18453.18453,0,0,0,.02588.1401c.159.29381,1.91714.29277,2.25077.27607A9.54824,9.54824,0,0,0,20.418,24.31122a15.72162,15.72162,0,0,0,3.382-2.5365,13.1262,13.1262,0,0,0,1.79669-2.85356A8.17564,8.17564,0,0,0,26.43675,15.85209Z" fill="#694138"/>
    <path d="M26.53184,13.937v.943c-.24218-.94358-.41673-1.89343-.731-2.81057a11.28156,11.28156,0,0,0-1.21107-2.55636.75887.75887,0,0,1,.033-1.00659c.0492-.046.0983-.09267.16125-.01838.01247.21081.16673.35208.26356.51893A10.56057,10.56057,0,0,1,26.53184,13.937Z" fill="#be8676"/>
    <path d="M11.78276,8.169a2.79739,2.79739,0,0,1,4.16511-.68915,2.71942,2.71942,0,0,1-.681,4.57921c-.10722.04993-.21682.09473-.32531.14191a2.75014,2.75014,0,0,1-3.538-2.03777A2.53163,2.53163,0,0,1,11.78276,8.169Z" fill="#49231a"/>
    <path d="M18.18666,11.33228A2.71619,2.71619,0,0,1,20.35,9.26783a2.67862,2.67862,0,0,1,2.923,1.39658,2.7537,2.7537,0,0,1-.48514,3.18061c-.05475.05671-.11135.11165-.16709.16741a2.59006,2.59006,0,0,1-2.72812.51749,2.62592,2.62592,0,0,1-1.7758-2.14158A3.00926,3.00926,0,0,1,18.18666,11.33228Z" fill="#49231a"/>
    <path d="M15.57152,12.67943a1.86669,1.86669,0,0,1,.74089-.97245c.651-.41549,1.27205-.19467,1.64913.57312l.02564.08742a1.10916,1.10916,0,0,1,.0491.35333,1.79229,1.79229,0,0,1-.13463.65139c-.07082.16728-.15219.3145-.35761.31035-.23551-.00475-.15166.2748-.31086.33282a.93726.93726,0,0,1-1.14352.21947,1.02377,1.02377,0,0,1-.59209-1.05633A2.15229,2.15229,0,0,1,15.57152,12.67943Z" fill="#49231a"/>
    <path d="M11.78276,8.169a2.88314,2.88314,0,0,0-.10811,2.46911,2.71573,2.71573,0,0,0,2.9936,1.58794c.08991-.01537.18216-.017.27332-.02508a2.44328,2.44328,0,0,1-2.5314-.2323,2.65806,2.65806,0,0,1-.8148-3.61242C11.64236,8.27644,11.67883,8.1901,11.78276,8.169Z" fill="#c5a992"/>
    <path d="M18.18666,11.33228a4.74761,4.74761,0,0,0,.03261,1.17991,2.715,2.715,0,0,0,4.06236,1.69565c.11182-.06715.226-.13036.3391-.1954a2.18844,2.18844,0,0,1-1.6786.80286,2.67558,2.67558,0,0,1-2.8435-2.19584A3.15554,3.15554,0,0,1,18.18666,11.33228Z" fill="#c4a891"/>
    <path d="M17.21174,17.35365c-.55082-.00716-1.1899-.80219-1.0656-1.26508.04028-.15.16215-.19852.25655-.05812a1.73417,1.73417,0,0,0,1.54863.771c.06871.0001.13619.02065.14772.09874.01078.07313-.03986.11954-.10062.15343A2.005,2.005,0,0,1,17.21174,17.35365Z" fill="#c6aa93"/>
    <path d="M13.90652,15.61986c-.57827.11392-.982-.71369-1.01553-1.20007a.16148.16148,0,0,1,.07022-.125c.08347-.04549.15459.00465.20023.074a1.51488,1.51488,0,0,0,1.45358.70036c.0925-.00516.1954.01268.22046.12394.02648.1175-.0816.14746-.15445.20038A1.15753,1.15753,0,0,1,13.90652,15.61986Z" fill="#c6aa93"/>
    <path d="M14.9788,17.66783a1.199,1.199,0,0,1-1.06932-1.24658.20305.20305,0,0,1,.06761-.12681c.07026-.04079.1281.01911.16306.06992a1.765,1.765,0,0,0,1.55719.75311c.06443.00038.14157.0008.15652.08286.01347.07388-.04806.11293-.10213.1512A2.26832,2.26832,0,0,1,14.9788,17.66783Z" fill="#c6aa93"/>
    <path d="M16.03567,19.67589a1.19893,1.19893,0,0,1-1.06931-1.24658.20308.20308,0,0,1,.06761-.12681c.07026-.04079.1281.01912.16305.06992a1.765,1.765,0,0,0,1.5572.75312c.06442.00037.14156.00079.15652.08285.01347.07388-.04806.11293-.10213.1512A2.26808,2.26808,0,0,1,16.03567,19.67589Z" fill="#c6aa93"/>
    <path d="M12.97073,18.51333a1.199,1.199,0,0,1-1.06931-1.24658.20305.20305,0,0,1,.06761-.12681c.07026-.04079.1281.01911.16305.06992a1.765,1.765,0,0,0,1.5572.75311c.06442.00038.14156.0008.15652.08286.01347.07388-.04806.11293-.10213.1512A2.26828,2.26828,0,0,1,12.97073,18.51333Z" fill="#c6aa93"/>
    <path d="M14.02761,20.4157a1.19894,1.19894,0,0,1-1.06932-1.24658.20306.20306,0,0,1,.06762-.1268c.07025-.0408.12809.01911.16305.06992a1.765,1.765,0,0,0,1.55719.75311c.06443.00037.14157.0008.15653.08285.01346.07389-.04807.11293-.10214.15121A2.26828,2.26828,0,0,1,14.02761,20.4157Z" fill="#c6aa93"/>
    <path d="M14.07562,22.42378a1.01792,1.01792,0,0,1-.90787-1.05837.1724.1724,0,0,1,.0574-.10766c.05965-.03463.10876.01623.13844.05936a1.49852,1.49852,0,0,0,1.32208.63941c.0547.00032.1202.00068.1329.07035.01143.06272-.04081.09587-.08672.12837A1.92574,1.92574,0,0,1,14.07562,22.42378Z" fill="#c6aa93"/>
    <path d="M12.06755,21.36691a1.01793,1.01793,0,0,1-.90787-1.05837.17247.17247,0,0,1,.05741-.10767c.05965-.03463.10876.01623.13843.05937a1.4985,1.4985,0,0,0,1.32209.6394c.0547.00032.12019.00068.13289.07035.01144.06273-.04081.09588-.08671.12837A1.92594,1.92594,0,0,1,12.06755,21.36691Z" fill="#c6aa93"/>
    <path d="M12.40785,22.95223a.92656.92656,0,0,1-.82638-.96339.15685.15685,0,0,1,.05225-.098c.05429-.03153.099.01477.126.054a1.364,1.364,0,0,0,1.20343.582c.04979.00029.1094.00062.121.064.01041.0571-.03714.08728-.07893.11686A1.75314,1.75314,0,0,1,12.40785,22.95223Z" fill="#c6aa93"/>
    <path d="M15.57152,12.67943a2.24644,2.24644,0,0,1-.00575.27246,1.04205,1.04205,0,0,0,1.66741,1.06352.96141.96141,0,0,1-1.12539.41408.97949.97949,0,0,1-.69155-.994A1.1152,1.1152,0,0,1,15.57152,12.67943Z" fill="#c4a892"/>
    <path d="M15.58452,10.61338A1.92229,1.92229,0,0,0,14.4034,8.07165a.46755.46755,0,0,1,.29888-.5617,2.08824,2.08824,0,0,1,1.26094,3.19838A.25872.25872,0,0,1,15.58452,10.61338Z" fill="#fde29d"/>
    <path d="M14.70228,7.51a2.23962,2.23962,0,0,0-.299.56167,2.288,2.288,0,0,0-1.20688.02668,3.14968,3.14968,0,0,0-.9617.63193A2.04841,2.04841,0,0,1,14.70228,7.51Z" fill="#fcc634"/>
    <path d="M15.02707,9.46322a.41073.41073,0,0,1-.41694.4352.42225.42225,0,1,1-.0201-.84426A.41394.41394,0,0,1,15.02707,9.46322Z" fill="#f8f7f7"/>
    <path d="M15.58452,10.61338q.18942.04735.37876.09483a1.90789,1.90789,0,0,1-1.34227.914A2.43705,2.43705,0,0,0,15.58452,10.61338Z" fill="#f3bd33"/>
    <path d="M21.4197,9.88218a2.07978,2.07978,0,0,1,1.19575,3.20488.32118.32118,0,0,1-.46912-.16875,1.92393,1.92393,0,0,0-1.03188-2.46585C21.0289,10.16211,21.08467,9.94741,21.4197,9.88218Z" fill="#fde29d"/>
    <path d="M21.4197,9.88218a.74339.74339,0,0,0-.30514.57032,2.09463,2.09463,0,0,0-1.898.22667A1.94525,1.94525,0,0,1,21.4197,9.88218Z" fill="#fcc634"/>
    <path d="M21.68386,11.78121c-.01107.27519-.14809.42881-.41268.43166a.37748.37748,0,0,1-.41748-.41465.36684.36684,0,0,1,.38966-.39838A.38464.38464,0,0,1,21.68386,11.78121Z" fill="#fbfbfb"/>
    <path d="M22.14633,12.91831a1.174,1.174,0,0,0,.46919.16863,1.95337,1.95337,0,0,1-1.58008.90516A2.273,2.273,0,0,0,22.14633,12.91831Z" fill="#fac434"/>
    <path d="M17.24688,12.90735a3.41424,3.41424,0,0,1-.376-.2677c-.118-.109-.31328-.24836-.22361-.40415.102-.1773.32666-.17061.51785-.06836C17.27733,12.40448,17.43223,12.63711,17.24688,12.90735Z" fill="#9e9394"/>
    <path d="M16.23676,12.78358c.13877.2282.25313.40419.35369.58774.03856.07037.13929.16175.02068.23763a.21048.21048,0,0,1-.25711-.03782A.5889.5889,0,0,1,16.23676,12.78358Z" fill="#5b4d4b"/>
    <path d="M10.37771,20.82353a7.01947,7.01947,0,0,0,.8822-3.37513,8.15865,8.15865,0,0,0-.42691-3.41834c-.1216-.30821-.27172-.60424-.42161-.89973l-.93293-1.83926a.10892.10892,0,0,0-.04092-.05113.10047.10047,0,0,0-.09921.02179,1.08123,1.08123,0,0,0-.31672.89216,5.18755,5.18755,0,0,0,.10075,1.45027c.09.34973.248.67793.36091,1.02094a6.90461,6.90461,0,0,1,.27007,2.14148A4.00805,4.00805,0,0,1,9.15,19.26407c-.47159.6113-.77067,1.45569-1.48888,1.73908-.34833.13745-.30131,1.0854.28579,1.3C8.56664,22.5297,9.68574,21.9698,10.37771,20.82353Z" fill="#c5a992"/>
    <path d="M17.24688,12.90735a2.54906,2.54906,0,0,0-.0818-.74017.68471.68471,0,0,1,.27488.65231C17.43635,12.956,17.37541,13.01917,17.24688,12.90735Z" fill="#d3cdcd"/>
    <path d="M4.882,16.80741a7.70136,7.70136,0,0,1,0-4.2275,3.06694,3.06694,0,0,1,.71087-.86348,2.71978,2.71978,0,0,1,.75254-.39334c.38056-.14544.99323-.57011,2.23565.517a5.49623,5.49623,0,0,1,1.58531,3.80475c0,3.48768-1.11831,4.81112-1.90041,5.44991-.29059.23734-.79729.48287-1.16115.2018a6.81073,6.81073,0,0,1-.95456-1.21284A11.10345,11.10345,0,0,1,4.882,16.80741Z" fill="#694138"/>
    <path d="M7.2063,21.98584a.31656.31656,0,0,1-.04492-.62994c.09093-.01534,2.28368-.40426,2.57619-4.08532a7.35933,7.35933,0,0,0-2.30723-6.02992.317.317,0,0,1,.39878-.493A7.86,7.86,0,0,1,10.36971,17.321c-.3347,4.20911-3.00346,4.64514-3.1174,4.66157A.32509.32509,0,0,1,7.2063,21.98584Z" fill="#49231a"/>
    <path d="M6.67837,12.85523a6.418,6.418,0,0,1,1.007,3.96431,4.80673,4.80673,0,0,1-.31529,1.816,2.118,2.118,0,0,1-1.29932,1.23724c-.31015.08709-1.04137-1.27338-1.08312-1.58571A35.9142,35.9142,0,0,1,4.264,13.3123C4.25681,11.76416,5.88769,11.78213,6.67837,12.85523Z" fill="#82574b"/>
    <path d="M6.41459,20.57739A3.06222,3.06222,0,0,0,7.98,19.048a5.58959,5.58959,0,0,0,.61823-2.27488,7.21028,7.21028,0,0,0-.27678-2.3909,9.63339,9.63339,0,0,0-1.00867-2.22507A9.71353,9.71353,0,0,1,8.47215,14.333a7.44906,7.44906,0,0,1,.443,2.44976A5.98449,5.98449,0,0,1,8.4072,19.257a3.58084,3.58084,0,0,1-1.78156,1.91835Z" fill="#82574b"/>
    <path d="M22.3204,21.88041c-1.11082.96986-2.43082,1.37394-3.06494.52844-.43763-.58351.39851-1.57922,1.58441-2.45756s2.13763-1.1205,2.74878-.71307C24.22277,19.661,23.27834,21.044,22.3204,21.88041Z" fill="#be8676"/>
    <path d="M6.78451,21.64184a.29046.29046,0,0,1-.22075-.10079c-3.86621-4.51039-2.0821-10.158-2.06347-10.21384a.29032.29032,0,1,1,.55215.17967c-.017.05369-1.697,5.39888,1.95283,9.6551a.29091.29091,0,0,1-.22076.47986Z" fill="#49231a"/>
    <path d="M21.90032,21.567c-1.12375.9524-2.35747,1.27072-2.7118.7923s.31977-1.57829,1.50567-2.45662S22.98,18.83281,23.483,19.17851C23.82329,19.41234,22.86942,20.74564,21.90032,21.567Z" fill="#82574b"/>
    <path d="M26.54758,15.23628a12.73391,12.73391,0,0,1-1.2857,4.36145,10.08283,10.08283,0,0,1-6.9047,5.37342,5.15741,5.15741,0,0,1-1.099.20387l-1.10983.1343c-.743.03112-1.48854.002-2.23008.00593.74266-.0303,1.48626-.02776,2.2234-.08492l1.09715-.17263a5.06645,5.06645,0,0,0,1.07921-.24017,9.93716,9.93716,0,0,0,3.89025-1.98,9.6887,9.6887,0,0,0,2.62606-3.44812,12.23281,12.23281,0,0,0,1.07978-4.18155Z" fill="#82574b"/>
    <path d="M17.35308,24.09985a1.814,1.814,0,0,0,1.33776-.072,3.01706,3.01706,0,0,0,1.04928-.81731.21207.21207,0,1,1,.3234.27443.276.276,0,0,1-.02447.0245,3.32991,3.32991,0,0,1-1.27937.71823A1.91845,1.91845,0,0,1,17.35308,24.09985Z" fill="#be8676"/>
    <path d="M19.414,21.82757a2.90422,2.90422,0,0,0,2.02358-1.66234.26575.26575,0,1,1,.472.23927l-.00412.00637A3.17,3.17,0,0,1,19.414,21.82757Z" fill="#be8676"/>
    <path d="M7.31277,17.12447a5.32156,5.32156,0,0,0-1.10351-3.3034.31855.31855,0,0,1,.48049-.41835.38508.38508,0,0,1,.03552.04977A5.62826,5.62826,0,0,1,7.31277,17.12447Z" fill="#be8676"/>
    <path d="M6.573,17.7586a5.35866,5.35866,0,0,0-1.06051-3.33412.26516.26516,0,0,1,.40439-.34308.35369.35369,0,0,1,.02562.03593A5.61332,5.61332,0,0,1,6.573,17.7586Z" fill="#be8676"/>
    <path d="M17.67015,23.25435a1.30325,1.30325,0,0,0,1.4239-.51191.1266.1266,0,1,1,.19589.16043l-.01158.01237-.006.00552A1.4258,1.4258,0,0,1,17.67015,23.25435Z" fill="#be8676"/>
    <path d="M18.88555,7.55975a3.07542,3.07542,0,0,1,2.40213-.629,3.64514,3.64514,0,0,1,1.20447.43207,3.17213,3.17213,0,0,1,.938.83106,7.76257,7.76257,0,0,0-2.2195-.741A6.14122,6.14122,0,0,0,18.88555,7.55975Z" fill="#be8676"/>
    <path d="M14.245,4.78361a3.07544,3.07544,0,0,1,2.45787.35318,3.64531,3.64531,0,0,1,.94216.86589,3.17234,3.17234,0,0,1,.54163,1.13008,7.76269,7.76269,0,0,0-1.75757-1.5447A6.14127,6.14127,0,0,0,14.245,4.78361Z" fill="#be8676"/>
    <path d="M23.51715,17.62183a2.69643,2.69643,0,0,0-1.37067-.06025,7.682,7.682,0,0,0-1.463.41178,16.45211,16.45211,0,0,0-2.74914,1.42339,16.57949,16.57949,0,0,1,2.64406-1.66581,8.00643,8.00643,0,0,1,1.48844-.55761,2.945,2.945,0,0,1,1.699-.01777.26427.26427,0,1,1-.16833.501l-.024-.00935Z" fill="#c5a992"/>
    <path d="M10.57139,8.7739a2.48552,2.48552,0,0,0-.128,1.05265,3.09136,3.09136,0,0,0,.30089,1.08405,4.08631,4.08631,0,0,0,.67567.94994,6.197,6.197,0,0,0,.91295.77221A6.281,6.281,0,0,1,11.3124,11.977a4.322,4.322,0,0,1-.84246-.90749,3.49057,3.49057,0,0,1-.4968-1.17208A2.98949,2.98949,0,0,1,9.97265,8.565a.31842.31842,0,1,1,.60778.18554Z" fill="#c5a992"/>
  </g>
  <path d="M42.281,13.0412a7.4313,7.4313,0,0,1-.41138,2.53073,5.01031,5.01031,0,0,1-1.13335,1.83067,4.752,4.752,0,0,1-1.74029,1.1076,6.23417,6.23417,0,0,1-2.23328.367,6.76869,6.76869,0,0,1-2.31052-.39111A4.84994,4.84994,0,0,1,32.67076,17.361a4.96687,4.96687,0,0,1-1.141-1.82519,6.95838,6.95838,0,0,1-.3829-2.49457,7.393,7.393,0,0,1,.40755-2.511A5.08416,5.08416,0,0,1,32.68282,8.693a4.77275,4.77275,0,0,1,1.76493-1.1339,6.709,6.709,0,0,1,2.3149-.3944,6.05152,6.05152,0,0,1,2.26615.39111,4.83167,4.83167,0,0,1,1.74412,1.15362,5.13066,5.13066,0,0,1,1.12075,1.84929A7.15477,7.15477,0,0,1,42.281,13.0412ZM36.75444,9.186a3.04636,3.04636,0,0,0-1.39793.30128,2.82652,2.82652,0,0,0-.986.82714,3.69906,3.69906,0,0,0-.59543,1.227,5.67093,5.67093,0,0,0-.20761,1.49981,4.88478,4.88478,0,0,0,.17913,1.44723,3.66466,3.66466,0,0,0,.591,1.21387,2.8984,2.8984,0,0,0,1.003.84029,3.05419,3.05419,0,0,0,1.422.31333,2.95315,2.95315,0,0,0,1.31247-.28156,2.7597,2.7597,0,0,0,.974-.78223,3.60768,3.60768,0,0,0,.60748-1.20182,5.339,5.339,0,0,0,.212-1.54911,5.39414,5.39414,0,0,0-.20377-1.50748,3.71476,3.71476,0,0,0-.59927-1.22263A2.78052,2.78052,0,0,0,36.75444,9.186Z" fill="#fff"/>
  <path d="M57.26591,10.39216a19.68592,19.68592,0,0,1-.30182,2.07826q-.212,1.06816-.50122,2.13961-.28923,1.0731-.6398,2.10785-.35085,1.03528-.72581,1.98842h-2.975q-.50532-1.24728-.90492-2.4858a20.54807,20.54807,0,0,1-.64364-2.55155h-.03287a19.303,19.303,0,0,1-.6765,2.67753q-.41577,1.244-.87206,2.35982H46.03321q-.23664-.562-.47656-1.24345-.24075-.68034-.47273-1.41764-.23253-.73787-.44041-1.5042-.20788-.76578-.37085-1.49981-.16352-.73291-.27279-1.41a12.2203,12.2203,0,0,1-.143-1.23907l2.49457-.08107q.03205.7.126,1.491.09367.79044.23664,1.6017.14214.8118.32976,1.60608c.12489.52915.26622,1.02872.424,1.49543h.08983q.30978-.75758.57462-1.60937.26459-.85289.46452-1.6751.19967-.8233.33852-1.56116.138-.73785.19556-1.26755h2.861a12.85244,12.85244,0,0,0,.212,1.422q.15447.77073.36646,1.582.212.81016.4689,1.60937.25637.79866.52586,1.49981h.08929q.13065-.39933.26513-.92465.13474-.52586.2569-1.101c.08162-.38234.15886-.77455.23226-1.17333q.1101-.59982.19172-1.15362.08134-.5538.126-1.03091.04519-.47657.05313-.81071Z" fill="#fff"/>
  <path d="M59.34691,18.7063V6.88749h2.37242V18.7063Z" fill="#fff"/>
  <path d="M66.20637,9.36453v-2.029h8.72169v2.029H71.80574V18.7063H69.32815V9.36453Z" fill="#fff"/>
  <path d="M74.96312,14.49171a5.30669,5.30669,0,0,1,.28539-1.789,3.608,3.608,0,0,1,2.15988-2.23274,4.8544,4.8544,0,0,1,1.777-.30566,5.17142,5.17142,0,0,1,1.663.26074,3.61473,3.61473,0,0,1,1.34479.79866,3.73326,3.73326,0,0,1,.89671,1.353,5.14967,5.14967,0,0,1,.32592,1.915,5.567,5.567,0,0,1-.28922,1.86682,3.71129,3.71129,0,0,1-.83536,1.37383,3.58708,3.58708,0,0,1-1.32891.85124,4.99947,4.99947,0,0,1-1.76876.29361,5.15337,5.15337,0,0,1-1.76877-.28484,3.51667,3.51667,0,0,1-1.32891-.84358,3.75506,3.75506,0,0,1-.83919-1.37382A5.54946,5.54946,0,0,1,74.96312,14.49171Zm2.32312,0a4.06994,4.06994,0,0,0,.14242,1.158,2.06884,2.06884,0,0,0,.3955.76579,1.44877,1.44877,0,0,0,.6031.424,2.191,2.191,0,0,0,.77455.13037,2.138,2.138,0,0,0,.774-.13475,1.44986,1.44986,0,0,0,.60365-.436,2.06021,2.06021,0,0,0,.38673-.77017A4.19058,4.19058,0,0,0,81.101,14.484a3.69783,3.69783,0,0,0-.14242-1.09226,2.10093,2.10093,0,0,0-.39549-.75045,1.54791,1.54791,0,0,0-.59927-.43165,2.18522,2.18522,0,0,0-1.54035.00438,1.54574,1.54574,0,0,0-.60748.44041,2.07894,2.07894,0,0,0-.39111.75374A3.744,3.744,0,0,0,77.28624,14.49171Z" fill="#fff"/>
  <path d="M92.24655,12.43427a9.7609,9.7609,0,0,1-1.41819,1.56883,9.41442,9.41442,0,0,0,.6157,1.12513q.37058.58666.79044,1.14923.41987.562.85617,1.06378.43549.50123.81071.86768L92.1978,19.32529a5.67716,5.67716,0,0,1-.83536-.745q-.45273-.47657-.89287-1.03967-.43959-.562-.82276-1.15691a9.49547,9.49547,0,0,1-.62775-1.11746q-.2613.13968-.51765.26074c-.17146.08217-.33853.15228-.50122.21254V18.7063H85.62777V6.88749h2.37242v6.63466a5.11753,5.11753,0,0,0,.95368-.57845,5.46982,5.46982,0,0,0,.78222-.7384,6.19384,6.19384,0,0,0,.62776-.86,8.26244,8.26244,0,0,0,.49738-.95313h2.46992A8.52726,8.52726,0,0,1,92.24655,12.43427Z" fill="#fff"/>
  <path d="M97.72705,15.61685a1.79371,1.79371,0,0,0,.75374,1.04734,2.86093,2.86093,0,0,0,1.55295.355,2.90489,2.90489,0,0,0,.58283-.057,4.47013,4.47013,0,0,0,.54613-.1468,5.25116,5.25116,0,0,0,.50943-.20377q.244-.115.47274-.22788l.66007,1.62142a6.58786,6.58786,0,0,1-1.47517.6398,5.91066,5.91066,0,0,1-1.69536.23226,4.39474,4.39474,0,0,1-3.19956-1.09227,4.39142,4.39142,0,0,1-1.12075-3.28446,5.36866,5.36866,0,0,1,.30566-1.89092,3.66467,3.66467,0,0,1,.86-1.35739,3.56363,3.56363,0,0,1,1.32835-.81509,5.1236,5.1236,0,0,1,1.7118-.2728,4.39567,4.39567,0,0,1,1.45928.22788,3.47038,3.47038,0,0,1,1.11253.619,2.78133,2.78133,0,0,1,.70937.90164,2.417,2.417,0,0,1,.24869,1.07145,3.41057,3.41057,0,0,1-.13475.9378,2.09922,2.09922,0,0,1-.47657.84686,2.48172,2.48172,0,0,1-.92519.61132,3.942,3.942,0,0,1-1.47133.23664ZM99.406,12.07164a1.54951,1.54951,0,0,0-1.19415.51053,1.95707,1.95707,0,0,0-.35057.54339,3.07234,3.07234,0,0,0-.19939.6409h1.98075a3.83583,3.83583,0,0,0,.4563-.0241,1.0537,1.0537,0,0,0,.34236-.09313.51743.51743,0,0,0,.21583-.195.61848.61848,0,0,0,.07723-.32867.93.93,0,0,0-.11777-.482,1.02773,1.02773,0,0,0-.31-.32867,1.30314,1.30314,0,0,0-.42781-.18734A2.04873,2.04873,0,0,0,99.406,12.07164Z" fill="#fff"/>
  <path d="M105.22884,11.59069a7.27532,7.27532,0,0,1,.79921-.46889,8.80625,8.80625,0,0,1,1.07967-.46123,10.03188,10.03188,0,0,1,1.2922-.35387,7.08035,7.08035,0,0,1,1.43463-.14242,4.03135,4.03135,0,0,1,1.52007.252,2.56612,2.56612,0,0,1,.99038.6891,2.63221,2.63221,0,0,1,.53792,1.00681,4.35587,4.35587,0,0,1,.16324,1.20621V18.7063h-2.37187V13.51448a2.5446,2.5446,0,0,0-.0493-.49409,1.21777,1.21777,0,0,0-.183-.44808,1.06833,1.06833,0,0,0-.36318-.32976,1.15748,1.15748,0,0,0-.57845-.13038,2.30434,2.30434,0,0,0-.522.06136,4.93691,4.93691,0,0,0-.52532.15009q-.25718.09037-.47711.19172c-.1468.06792-.2717.13146-.37468.19172V18.7063h-2.37242Z" fill="#fff"/>
</svg>
